<svg width="600" height="520" viewBox="0 0 600 520" fill="none" xmlns="http://www.w3.org/2000/svg">
<path d="M362.021 228.006L281.307 31.205C276.277 18.9415 262.258 13.0773 249.995 18.107L53.1936 98.8211C40.9301 103.851 35.0659 117.87 40.0955 130.133L120.81 326.934C125.839 339.198 139.858 345.062 152.122 340.032L348.923 259.318C361.186 254.289 367.051 240.27 362.021 228.006Z" fill="#F2F6FF"/>
<path d="M495.126 167.054L458.565 34.1405C455.05 21.3604 441.84 13.8498 429.059 17.3653L296.146 53.9258C283.366 57.4412 275.855 70.6514 279.371 83.4316L315.931 216.345C319.447 229.125 332.657 236.636 345.437 233.12L478.351 196.56C491.131 193.044 498.641 179.834 495.126 167.054Z" fill="#FAFAFA"/>
<path d="M283.887 329.901L200.524 220.114C192.508 209.558 177.452 207.498 166.896 215.514L57.1087 298.877C46.5522 306.893 44.4925 321.948 52.5082 332.505L135.871 442.292C143.887 452.848 158.943 454.908 169.499 446.892L279.286 363.529C289.843 355.513 291.903 340.458 283.887 329.901Z" fill="#E5EEFF"/>
<path fill-rule="evenodd" clip-rule="evenodd" d="M341 348L351.86 354.41L349.11 356.24L352 360.17L349.25 362L346.36 358.07L343.61 359.91L341 348Z" fill="#1A1A1A"/>
<g filter="url(#filter0_d_1_2)">
<path d="M168 99C168 97.9391 168.421 96.9217 169.172 96.1716C169.922 95.4214 170.939 95 172 95H467C468.061 95 469.078 95.4214 469.828 96.1716C470.579 96.9217 471 97.9391 471 99V473C471 474.061 470.579 475.078 469.828 475.828C469.078 476.579 468.061 477 467 477H172C170.939 477 169.922 476.579 169.172 475.828C168.421 475.078 168 474.061 168 473V99Z" fill="white"/>
<path d="M169 99C169 98.2044 169.316 97.4413 169.879 96.8787C170.441 96.3161 171.204 96 172 96H467C467.796 96 468.559 96.3161 469.121 96.8787C469.684 97.4413 470 98.2044 470 99V473C470 473.796 469.684 474.559 469.121 475.121C468.559 475.684 467.796 476 467 476H172C171.204 476 170.441 475.684 169.879 475.121C169.316 474.559 169 473.796 169 473V99Z" stroke="#E8E8E8" stroke-width="2"/>
</g>
<path d="M193.85 125.33C193.85 124.701 194.1 124.099 194.544 123.654C194.989 123.21 195.591 122.96 196.22 122.96H385.06C385.69 122.96 386.294 123.21 386.739 123.656C387.185 124.101 387.435 124.705 387.435 125.335C387.435 125.965 387.185 126.569 386.739 127.014C386.294 127.46 385.69 127.71 385.06 127.71H196.22C195.908 127.71 195.599 127.648 195.311 127.529C195.023 127.409 194.761 127.233 194.541 127.012C194.32 126.791 194.146 126.529 194.028 126.24C193.909 125.951 193.849 125.642 193.85 125.33ZM272 318.5C272 317.837 272.263 317.201 272.732 316.732C273.201 316.263 273.837 316 274.5 316H404.5C405.163 316 405.799 316.263 406.268 316.732C406.737 317.201 407 317.837 407 318.5C407 319.163 406.737 319.799 406.268 320.268C405.799 320.737 405.163 321 404.5 321H274.5C273.837 321 273.201 320.737 272.732 320.268C272.263 319.799 272 319.163 272 318.5ZM193.85 138C193.849 137.688 193.909 137.379 194.028 137.09C194.146 136.801 194.32 136.539 194.541 136.318C194.761 136.097 195.023 135.921 195.311 135.801C195.599 135.682 195.908 135.62 196.22 135.62H406.16C406.79 135.62 407.394 135.87 407.839 136.316C408.285 136.761 408.535 137.365 408.535 137.995C408.535 138.625 408.285 139.229 407.839 139.674C407.394 140.12 406.79 140.37 406.16 140.37H196.22C195.908 140.37 195.599 140.308 195.311 140.189C195.023 140.069 194.761 139.893 194.541 139.672C194.32 139.451 194.146 139.189 194.028 138.9C193.909 138.611 193.849 138.302 193.85 137.99V138ZM272 331C272 329.9 272.9 329 274 329H427C427.53 329 428.039 329.211 428.414 329.586C428.789 329.961 429 330.47 429 331C429 331.53 428.789 332.039 428.414 332.414C428.039 332.789 427.53 333 427 333H274C273.47 333 272.961 332.789 272.586 332.414C272.211 332.039 272 331.53 272 331ZM193.85 151.7C193.85 151.071 194.1 150.469 194.544 150.024C194.989 149.58 195.591 149.33 196.22 149.33H348.14C348.77 149.33 349.374 149.58 349.819 150.026C350.265 150.471 350.515 151.075 350.515 151.705C350.515 152.335 350.265 152.939 349.819 153.384C349.374 153.83 348.77 154.08 348.14 154.08H196.22C195.591 154.08 194.989 153.83 194.544 153.386C194.1 152.941 193.85 152.339 193.85 151.71V151.7ZM272 344.75C271.999 344.438 272.059 344.129 272.178 343.84C272.296 343.551 272.47 343.289 272.691 343.068C272.911 342.847 273.173 342.671 273.461 342.551C273.749 342.432 274.058 342.37 274.37 342.37H426.3C426.93 342.37 427.534 342.62 427.979 343.066C428.425 343.511 428.675 344.115 428.675 344.745C428.675 345.375 428.425 345.979 427.979 346.424C427.534 346.87 426.93 347.12 426.3 347.12H274.37C273.741 347.12 273.139 346.87 272.694 346.426C272.25 345.981 272 345.379 272 344.75ZM193.85 191.8C193.849 191.488 193.909 191.179 194.028 190.89C194.146 190.601 194.32 190.339 194.541 190.118C194.761 189.897 195.023 189.721 195.311 189.601C195.599 189.482 195.908 189.42 196.22 189.42H443.1C443.73 189.42 444.334 189.67 444.779 190.116C445.225 190.561 445.475 191.165 445.475 191.795C445.475 192.425 445.225 193.029 444.779 193.474C444.334 193.92 443.73 194.17 443.1 194.17H196.22C195.591 194.17 194.989 193.92 194.544 193.476C194.1 193.031 193.85 192.429 193.85 191.8ZM193.85 384.84C193.849 384.528 193.909 384.219 194.028 383.93C194.146 383.641 194.32 383.379 194.541 383.158C194.761 382.937 195.023 382.761 195.311 382.641C195.599 382.522 195.908 382.46 196.22 382.46H443.1C443.73 382.46 444.334 382.71 444.779 383.156C445.225 383.601 445.475 384.205 445.475 384.835C445.475 385.465 445.225 386.069 444.779 386.514C444.334 386.96 443.73 387.21 443.1 387.21H196.22C195.591 387.21 194.989 386.96 194.544 386.516C194.1 386.071 193.85 385.469 193.85 384.84ZM193.85 202.87C193.85 202.241 194.1 201.639 194.544 201.194C194.989 200.75 195.591 200.5 196.22 200.5H432.54C433.17 200.5 433.774 200.75 434.219 201.196C434.665 201.641 434.915 202.245 434.915 202.875C434.915 203.505 434.665 204.109 434.219 204.554C433.774 205 433.17 205.25 432.54 205.25H196.22C195.908 205.25 195.599 205.188 195.311 205.069C195.023 204.949 194.761 204.773 194.541 204.552C194.32 204.331 194.146 204.069 194.028 203.78C193.909 203.491 193.849 203.182 193.85 202.87ZM193.85 395.92C193.849 395.608 193.909 395.299 194.028 395.01C194.146 394.721 194.32 394.459 194.541 394.238C194.761 394.017 195.023 393.841 195.311 393.721C195.599 393.602 195.908 393.54 196.22 393.54H432.54C433.17 393.54 433.774 393.79 434.219 394.236C434.665 394.681 434.915 395.285 434.915 395.915C434.915 396.545 434.665 397.149 434.219 397.594C433.774 398.04 433.17 398.29 432.54 398.29H196.22C195.908 398.29 195.599 398.228 195.311 398.109C195.023 397.989 194.761 397.813 194.541 397.592C194.32 397.371 194.146 397.109 194.028 396.82C193.909 396.531 193.849 396.222 193.85 395.91V395.92ZM193.85 213.95C193.85 213.321 194.1 212.719 194.544 212.274C194.989 211.83 195.591 211.58 196.22 211.58H437.82C438.45 211.58 439.054 211.83 439.499 212.276C439.945 212.721 440.195 213.325 440.195 213.955C440.195 214.585 439.945 215.189 439.499 215.634C439.054 216.08 438.45 216.33 437.82 216.33H196.22C195.908 216.33 195.599 216.268 195.311 216.149C195.023 216.029 194.761 215.853 194.541 215.632C194.32 215.411 194.146 215.149 194.028 214.86C193.909 214.571 193.849 214.262 193.85 213.95ZM193.85 407C193.849 406.688 193.909 406.379 194.028 406.09C194.146 405.801 194.32 405.539 194.541 405.318C194.761 405.097 195.023 404.921 195.311 404.801C195.599 404.682 195.908 404.62 196.22 404.62H437.82C438.45 404.62 439.054 404.87 439.499 405.316C439.945 405.761 440.195 406.365 440.195 406.995C440.195 407.625 439.945 408.229 439.499 408.674C439.054 409.12 438.45 409.37 437.82 409.37H196.22C195.908 409.37 195.599 409.308 195.311 409.189C195.023 409.069 194.761 408.893 194.541 408.672C194.32 408.451 194.146 408.189 194.028 407.9C193.909 407.611 193.849 407.302 193.85 406.99V407ZM193.85 225.03C193.849 224.718 193.909 224.409 194.028 224.12C194.146 223.831 194.32 223.569 194.541 223.348C194.761 223.127 195.023 222.951 195.311 222.831C195.599 222.712 195.908 222.65 196.22 222.65H437.82C438.45 222.65 439.054 222.9 439.499 223.346C439.945 223.791 440.195 224.395 440.195 225.025C440.195 225.655 439.945 226.259 439.499 226.704C439.054 227.15 438.45 227.4 437.82 227.4H196.22C195.591 227.4 194.989 227.15 194.544 226.706C194.1 226.261 193.85 225.659 193.85 225.03ZM193.85 236.1C193.85 235.471 194.1 234.869 194.544 234.424C194.989 233.98 195.591 233.73 196.22 233.73H422C422.63 233.73 423.234 233.98 423.679 234.426C424.125 234.871 424.375 235.475 424.375 236.105C424.375 236.735 424.125 237.339 423.679 237.784C423.234 238.23 422.63 238.48 422 238.48H196.22C195.591 238.48 194.989 238.23 194.544 237.786C194.1 237.341 193.85 236.739 193.85 236.11V236.1ZM193.85 247.18C193.85 246.551 194.1 245.949 194.544 245.504C194.989 245.06 195.591 244.81 196.22 244.81H422C422.63 244.81 423.234 245.06 423.679 245.506C424.125 245.951 424.375 246.555 424.375 247.185C424.375 247.815 424.125 248.419 423.679 248.864C423.234 249.31 422.63 249.56 422 249.56H196.22C195.908 249.56 195.599 249.498 195.311 249.379C195.023 249.259 194.761 249.083 194.541 248.862C194.32 248.641 194.146 248.379 194.028 248.09C193.909 247.801 193.849 247.492 193.85 247.18ZM193.85 258.26C193.85 257.631 194.1 257.029 194.544 256.584C194.989 256.14 195.591 255.89 196.22 255.89H422C422.629 255.89 423.231 256.14 423.676 256.584C424.12 257.029 424.37 257.631 424.37 258.26C424.37 258.889 424.12 259.491 423.676 259.936C423.231 260.38 422.629 260.63 422 260.63H196.22C195.591 260.63 194.989 260.38 194.544 259.936C194.1 259.491 193.85 258.889 193.85 258.26ZM193.85 269.34C193.849 269.028 193.909 268.719 194.028 268.43C194.146 268.141 194.32 267.879 194.541 267.658C194.761 267.437 195.023 267.261 195.311 267.141C195.599 267.022 195.908 266.96 196.22 266.96H422C422.63 266.96 423.234 267.21 423.679 267.656C424.125 268.101 424.375 268.705 424.375 269.335C424.375 269.965 424.125 270.569 423.679 271.014C423.234 271.46 422.63 271.71 422 271.71H196.22C195.591 271.71 194.989 271.46 194.544 271.016C194.1 270.571 193.85 269.969 193.85 269.34ZM272 296.24C272 295.611 272.25 295.009 272.694 294.564C273.139 294.12 273.741 293.87 274.37 293.87H378.82C379.45 293.87 380.054 294.12 380.499 294.566C380.945 295.011 381.195 295.615 381.195 296.245C381.195 296.875 380.945 297.479 380.499 297.924C380.054 298.37 379.45 298.62 378.82 298.62H274.37C274.058 298.62 273.749 298.558 273.461 298.439C273.173 298.319 272.911 298.143 272.691 297.922C272.47 297.701 272.296 297.439 272.178 297.15C272.059 296.861 271.999 296.552 272 296.24ZM272 355.5C272 354.837 272.263 354.201 272.732 353.732C273.201 353.263 273.837 353 274.5 353H394.5C395.163 353 395.799 353.263 396.268 353.732C396.737 354.201 397 354.837 397 355.5C397 356.163 396.737 356.799 396.268 357.268C395.799 357.737 395.163 358 394.5 358H274.5C273.837 358 273.201 357.737 272.732 357.268C272.263 356.799 272 356.163 272 355.5ZM272 307.32C271.999 307.008 272.059 306.699 272.178 306.41C272.296 306.121 272.47 305.859 272.691 305.638C272.911 305.417 273.173 305.241 273.461 305.121C273.749 305.002 274.058 304.94 274.37 304.94H378.82C379.45 304.94 380.054 305.19 380.499 305.636C380.945 306.081 381.195 306.685 381.195 307.315C381.195 307.945 380.945 308.549 380.499 308.994C380.054 309.44 379.45 309.69 378.82 309.69H274.37C273.741 309.69 273.139 309.44 272.694 308.996C272.25 308.551 272 307.949 272 307.32Z" fill="#F4F4F4"/>
<path d="M253 290H200C196.686 290 194 292.686 194 296V356C194 359.314 196.686 362 200 362H253C256.314 362 259 359.314 259 356V296C259 292.686 256.314 290 253 290Z" fill="#F4F4F4"/>
<path d="M245 430H212C209.791 430 208 431.791 208 434V467C208 469.209 209.791 471 212 471H245C247.209 471 249 469.209 249 467V434C249 431.791 247.209 430 245 430Z" fill="#FF8000"/>
<path fill-rule="evenodd" clip-rule="evenodd" d="M232.42 440.75H218.75V456.69H225.58V461.25H239.25V444.17H232.41V440.75H232.42ZM238.12 445.31V460.11H226.72V456.69H232.42V445.31H238.12ZM231.28 444.17V441.89H219.88V455.56H231.29V444.17H231.28ZM221.03 449.87C221.001 450.486 221.098 451.102 221.313 451.68C221.529 452.257 221.86 452.785 222.286 453.232C222.712 453.678 223.224 454.033 223.791 454.276C224.358 454.518 224.968 454.643 225.585 454.643C226.202 454.643 226.812 454.518 227.379 454.276C227.946 454.033 228.458 453.678 228.884 453.232C229.31 452.785 229.641 452.257 229.857 451.68C230.072 451.102 230.169 450.486 230.14 449.87C230.085 448.699 229.581 447.594 228.733 446.784C227.885 445.975 226.757 445.523 225.585 445.523C224.413 445.523 223.285 445.975 222.437 446.784C221.589 447.594 221.085 448.699 221.03 449.87ZM228.81 451C228.611 451.569 228.265 452.076 227.807 452.469C227.349 452.861 226.795 453.126 226.202 453.235C225.609 453.345 224.998 453.295 224.43 453.092C223.862 452.889 223.358 452.539 222.968 452.078C222.579 451.618 222.319 451.062 222.214 450.468C222.109 449.874 222.162 449.263 222.37 448.697C222.577 448.13 222.93 447.629 223.394 447.243C223.858 446.857 224.415 446.601 225.01 446.5V451H228.81ZM229.01 449.86C229.01 448.16 227.77 446.76 226.15 446.49V449.86H229H229.01Z" fill="white"/>
<path d="M193 471H160C157.791 471 156 472.791 156 475V508C156 510.209 157.791 512 160 512H193C195.209 512 197 510.209 197 508V475C197 472.791 195.209 471 193 471Z" fill="#F23030"/>
<path fill-rule="evenodd" clip-rule="evenodd" d="M168.51 483.51L170.64 492L168.51 500.49L177.01 498.37L185.49 500.49L183.37 492L185.49 483.51L177 485.63L168.51 483.51ZM166.75 481.75L177 484.31L187.25 481.75L184.69 492L187.25 502.25L177 499.69L166.75 502.25L169.31 492L166.75 481.75Z" fill="white"/>
<path d="M193 397H147C144.791 397 143 398.791 143 401V447C143 449.209 144.791 451 147 451H193C195.209 451 197 449.209 197 447V401C197 398.791 195.209 397 193 397Z" fill="#FF5975"/>
<path fill-rule="evenodd" clip-rule="evenodd" d="M164.43 431.86C166.054 433.463 167.95 434.763 170.03 435.7C172.093 434.839 173.976 433.598 175.58 432.04C179.21 428.53 181.49 423.54 181.78 416.72L176.16 414.62L169.41 412.08H170.59L163.84 414.61L159.2 416.35L158.22 416.72C158.52 423.32 160.8 428.27 164.43 431.86ZM156.5 415.56L170 410.5L183.5 415.56C183.34 433.66 170 437.5 170 437.5C170 437.5 156.66 433.15 156.5 415.56Z" fill="white"/>
<path d="M562.61 147H342.39C338.861 147 336 149.861 336 153.39V231.61C336 235.139 338.861 238 342.39 238H562.61C566.139 238 569 235.139 569 231.61V153.39C569 149.861 566.139 147 562.61 147Z" fill="#F4F4F4"/>
<path d="M355.7 166.85C355.7 166.094 356 165.369 356.535 164.835C357.069 164.3 357.794 164 358.55 164H389.9L401.3 175.4V218.15C401.3 218.906 401 219.631 400.465 220.165C399.931 220.7 399.206 221 398.45 221H358.55C357.794 221 357.069 220.7 356.535 220.165C356 219.631 355.7 218.906 355.7 218.15V166.85Z" fill="white"/>
<path fill-rule="evenodd" clip-rule="evenodd" d="M358.55 219.57H398.45C399.24 219.57 399.88 218.94 399.88 218.15V175.99L389.31 165.43H358.55C357.76 165.43 357.13 166.06 357.13 166.85V218.15C357.13 218.94 357.76 219.57 358.55 219.57ZM389.9 164H358.55C358.176 164 357.805 164.074 357.459 164.217C357.114 164.36 356.799 164.57 356.535 164.835C356.27 165.099 356.06 165.414 355.917 165.759C355.774 166.105 355.7 166.476 355.7 166.85V218.15C355.7 218.524 355.774 218.895 355.917 219.241C356.06 219.586 356.27 219.901 356.535 220.165C356.799 220.43 357.114 220.64 357.459 220.783C357.805 220.926 358.176 221 358.55 221H398.45C399.206 221 399.931 220.7 400.465 220.165C401 219.631 401.3 218.906 401.3 218.15V175.4L389.9 164Z" fill="#E8E8E8"/>
<path d="M389.9 164L401.3 175.4H389.9V164Z" fill="#E8E8E8"/>
<path d="M381.1 192.47H353.1C351.526 192.47 350.25 193.746 350.25 195.32V209.62C350.25 211.194 351.526 212.47 353.1 212.47H381.1C382.674 212.47 383.95 211.194 383.95 209.62V195.32C383.95 193.746 382.674 192.47 381.1 192.47Z" fill="#F23030"/>
<path d="M354.55 208.47V198.25H358.06C358.63 198.25 359.16 198.31 359.65 198.43C360.14 198.53 360.57 198.71 360.93 198.98C361.3 199.23 361.59 199.57 361.8 200C362.01 200.41 362.12 200.93 362.12 201.55C362.12 202.15 362.02 202.66 361.8 203.1C361.59 203.54 361.3 203.9 360.93 204.18C360.57 204.46 360.14 204.68 359.66 204.81C359.18 204.94 358.67 205.01 358.13 205.01H356.86V208.48H354.56L354.55 208.47ZM356.85 203.17H358C359.25 203.17 359.88 202.63 359.88 201.55C359.88 201.01 359.71 200.64 359.38 200.42C358.938 200.173 358.435 200.058 357.93 200.09H356.87V203.18L356.85 203.17ZM363.89 208.47V198.25H366.77C367.56 198.25 368.27 198.35 368.89 198.55C369.52 198.75 370.06 199.06 370.51 199.48C370.95 199.88 371.3 200.41 371.54 201.04C371.78 201.68 371.9 202.44 371.9 203.32C371.9 204.2 371.78 204.96 371.54 205.61C371.325 206.216 370.976 206.766 370.52 207.22C370.08 207.64 369.55 207.95 368.94 208.16C368.34 208.37 367.65 208.47 366.9 208.47H363.89ZM366.19 206.61H366.63C367.07 206.61 367.47 206.55 367.83 206.44C368.18 206.32 368.48 206.14 368.73 205.89C368.98 205.63 369.18 205.29 369.31 204.87C369.46 204.45 369.53 203.93 369.53 203.32C369.53 202.72 369.46 202.21 369.31 201.8C369.203 201.426 369.004 201.086 368.73 200.81C368.479 200.56 368.17 200.378 367.83 200.28C367.44 200.169 367.036 200.115 366.63 200.12H366.19V206.61ZM373.84 208.47V198.25H380.28V200.2H376.15V202.57H379.69V204.51H376.14V208.48H373.84V208.47ZM469.9 121.95C469.9 120.902 470.316 119.898 471.057 119.157C471.798 118.416 472.802 118 473.85 118H517.3L533.1 133.8V193.05C533.1 194.098 532.684 195.102 531.943 195.843C531.202 196.584 530.198 197 529.15 197H473.85C472.802 197 471.798 196.584 471.057 195.843C470.316 195.102 469.9 194.098 469.9 193.05V121.95Z" fill="white"/>
<path fill-rule="evenodd" clip-rule="evenodd" d="M473.85 195.03H529.15C530.25 195.03 531.13 194.14 531.13 193.05V134.62L516.48 119.97H473.85C472.76 119.97 471.87 120.86 471.87 121.95V193.05C471.87 194.15 472.76 195.02 473.85 195.02V195.03ZM517.3 118H473.85C472.802 118 471.798 118.416 471.057 119.157C470.316 119.898 469.9 120.902 469.9 121.95V193.05C469.9 194.098 470.316 195.102 471.057 195.843C471.798 196.584 472.802 197 473.85 197H529.15C530.198 197 531.202 196.584 531.943 195.843C532.684 195.102 533.1 194.098 533.1 193.05V133.8L517.3 118Z" fill="#E8E8E8"/>
<path d="M517.3 118L533.1 133.8H517.3V118Z" fill="#E8E8E8"/>
<path d="M507.69 157.82H465.69C463.508 157.82 461.74 159.588 461.74 161.77V180.87C461.74 183.052 463.508 184.82 465.69 184.82H507.69C509.872 184.82 511.64 183.052 511.64 180.87V161.77C511.64 159.588 509.872 157.82 507.69 157.82Z" fill="#3D99F5"/>
<path d="M467.72 178.82V164.66H471.72C472.712 164.646 473.7 164.784 474.65 165.07C475.492 165.311 476.265 165.75 476.903 166.35C477.542 166.95 478.027 167.694 478.32 168.52C478.65 169.42 478.82 170.46 478.82 171.68C478.82 172.89 478.65 173.95 478.32 174.85C477.99 175.75 477.52 176.49 476.91 177.09C476.28 177.679 475.529 178.123 474.71 178.39C473.87 178.68 472.93 178.83 471.89 178.83H467.72V178.82ZM470.91 176.24H471.51C472.13 176.24 472.68 176.16 473.17 176C473.67 175.84 474.08 175.59 474.43 175.24C474.78 174.88 475.05 174.41 475.23 173.83C475.43 173.25 475.53 172.53 475.53 171.68C475.53 170.84 475.43 170.13 475.23 169.57C475.081 169.054 474.806 168.584 474.43 168.2C474.08 167.85 473.66 167.6 473.17 167.46C472.633 167.311 472.077 167.24 471.52 167.25H470.91V176.24ZM487.26 179.09C486.386 179.129 485.515 178.972 484.71 178.629C483.905 178.286 483.187 177.767 482.61 177.11C482.05 176.47 481.61 175.7 481.29 174.78C480.971 173.778 480.816 172.731 480.83 171.68C480.83 170.52 480.99 169.49 481.29 168.59C481.567 167.747 482.017 166.97 482.61 166.31C483.168 165.693 483.859 165.211 484.63 164.9C485.43 164.57 486.31 164.4 487.26 164.4C488.22 164.4 489.09 164.57 489.87 164.9C490.67 165.22 491.35 165.69 491.91 166.31C492.48 166.93 492.91 167.71 493.21 168.61C493.54 169.51 493.7 170.53 493.7 171.68C493.715 172.733 493.553 173.781 493.22 174.78C492.95 175.637 492.507 176.43 491.92 177.11C491.354 177.748 490.654 178.253 489.87 178.59C489.09 178.92 488.22 179.09 487.27 179.09H487.26ZM487.26 176.33C488.24 176.33 489 175.91 489.56 175.09C490.13 174.25 490.41 173.11 490.41 171.68C490.41 170.26 490.13 169.15 489.57 168.35C489.32 167.972 488.977 167.663 488.575 167.453C488.173 167.243 487.724 167.139 487.27 167.15C486.29 167.15 485.53 167.55 484.97 168.35C484.4 169.15 484.11 170.25 484.11 171.68C484.11 173.11 484.4 174.25 484.96 175.08C485.202 175.47 485.542 175.79 485.945 176.009C486.348 176.228 486.801 176.339 487.26 176.33ZM502.27 179.09C501.409 179.12 500.551 178.971 499.751 178.652C498.951 178.334 498.225 177.853 497.62 177.24C497.001 176.59 496.522 175.821 496.21 174.98C495.846 173.97 495.67 172.903 495.69 171.83C495.69 170.66 495.87 169.61 496.23 168.7C496.59 167.77 497.07 167 497.68 166.36C498.278 165.727 499.004 165.229 499.81 164.9C500.62 164.57 501.48 164.4 502.38 164.4C503.28 164.4 504.11 164.59 504.83 164.96C505.498 165.286 506.107 165.722 506.63 166.25L504.94 168.29C504.596 167.971 504.209 167.701 503.79 167.49C503.368 167.276 502.903 167.165 502.43 167.165C501.957 167.165 501.492 167.276 501.07 167.49C500.65 167.69 500.28 167.99 499.97 168.37C499.66 168.77 499.41 169.24 499.23 169.81C499.05 170.37 498.96 171.01 498.96 171.72C498.96 173.18 499.28 174.32 499.9 175.13C500.52 175.93 501.36 176.33 502.4 176.33C502.98 176.33 503.5 176.2 503.94 175.96C504.395 175.707 504.807 175.383 505.16 175L506.86 177C506.303 177.676 505.599 178.215 504.802 178.577C504.005 178.94 503.135 179.115 502.26 179.09H502.27ZM449.2 211.1C449.2 210.278 449.527 209.489 450.108 208.908C450.689 208.327 451.478 208 452.3 208H486.4L498.8 220.4V266.9C498.8 267.722 498.473 268.511 497.892 269.092C497.311 269.673 496.522 270 495.7 270H452.3C451.478 270 450.689 269.673 450.108 269.092C449.527 268.511 449.2 267.722 449.2 266.9V211.1Z" fill="white"/>
<path fill-rule="evenodd" clip-rule="evenodd" d="M452.3 268.45H495.7C496.56 268.45 497.25 267.75 497.25 266.9V221.04L485.75 209.55H452.3C451.44 209.55 450.75 210.25 450.75 211.1V266.9C450.75 267.76 451.45 268.45 452.3 268.45ZM486.4 208H452.3C451.478 208 450.689 208.327 450.108 208.908C449.527 209.489 449.2 210.278 449.2 211.1V266.9C449.2 267.722 449.527 268.511 450.108 269.092C450.689 269.673 451.478 270 452.3 270H495.7C496.522 270 497.311 269.673 497.892 269.092C498.473 268.511 498.8 267.722 498.8 266.9V220.4L486.4 208Z" fill="#E8E8E8"/>
<path d="M486.4 208L498.8 220.4H486.4V208Z" fill="#E8E8E8"/>
<path d="M476.6 239.35H446.6C444.888 239.35 443.5 240.738 443.5 242.45V257.25C443.5 258.962 444.888 260.35 446.6 260.35H476.6C478.312 260.35 479.7 258.962 479.7 257.25V242.45C479.7 240.738 478.312 239.35 476.6 239.35Z" fill="#FF8000"/>
<path fill-rule="evenodd" clip-rule="evenodd" d="M523.9 252.85H556.1C556.74 252.85 557.25 252.34 557.25 251.7V217.68L548.73 209.15H523.9C523.27 209.15 522.75 209.66 522.75 210.3V251.7C522.75 252.34 523.27 252.85 523.9 252.85ZM549.2 208H523.9C523.598 208 523.299 208.059 523.02 208.175C522.741 208.291 522.487 208.46 522.274 208.674C522.06 208.887 521.891 209.141 521.775 209.42C521.659 209.699 521.6 209.998 521.6 210.3V251.7C521.6 252.31 521.842 252.895 522.274 253.326C522.705 253.758 523.29 254 523.9 254H556.1C556.71 254 557.295 253.758 557.726 253.326C558.158 252.895 558.4 252.31 558.4 251.7V217.2L549.2 208Z" fill="#E8E8E8"/>
<path d="M549.2 208L558.4 217.2H549.2V208Z" fill="#E8E8E8"/>
<path d="M540.15 231.05H519.15C517.88 231.05 516.85 232.08 516.85 233.35V244.75C516.85 246.02 517.88 247.05 519.15 247.05H540.15C541.42 247.05 542.45 246.02 542.45 244.75V233.35C542.45 232.08 541.42 231.05 540.15 231.05Z" fill="#00CC44"/>
<path d="M439.5 196.17L430.75 188.2L432.05 187L443 197L432.05 207L430.75 205.8L439.51 197.83H415V196.17H439.5Z" fill="#9E9E9E"/>
<path opacity="0.3" fill-rule="evenodd" clip-rule="evenodd" d="M539.32 363.94L558.78 391.74L536.13 387.74C535.873 387.691 535.645 387.544 535.495 387.328C535.345 387.113 535.286 386.848 535.33 386.59L539.32 363.94ZM466.04 387.17L493.84 406.64L471.2 410.63C471.071 410.653 470.938 410.65 470.81 410.622C470.681 410.594 470.56 410.541 470.452 410.465C470.344 410.39 470.253 410.294 470.182 410.184C470.111 410.073 470.063 409.949 470.04 409.82L466.04 387.17Z" fill="white"/>
<path fill-rule="evenodd" clip-rule="evenodd" d="M143.84 340.6C143.812 340.338 143.889 340.075 144.053 339.869C144.218 339.663 144.458 339.53 144.72 339.5C145.814 339.362 146.899 339.162 147.97 338.9C148.229 338.838 148.501 338.881 148.728 339.019C148.955 339.158 149.118 339.381 149.18 339.64C149.242 339.899 149.199 340.171 149.061 340.398C148.922 340.625 148.699 340.788 148.44 340.85C147.32 341.12 146.16 341.33 144.96 341.48C144.829 341.497 144.697 341.488 144.569 341.453C144.442 341.418 144.323 341.359 144.219 341.278C144.115 341.197 144.028 341.096 143.963 340.982C143.898 340.867 143.856 340.741 143.84 340.61V340.6ZM147.17 155.04C147.24 157.27 147.34 159.49 147.54 161.68C147.563 161.945 147.479 162.209 147.307 162.412C147.136 162.615 146.89 162.742 146.625 162.765C146.36 162.788 146.096 162.704 145.893 162.532C145.69 162.361 145.563 162.115 145.54 161.85C145.34 159.61 145.24 157.35 145.17 155.1C145.166 154.969 145.188 154.838 145.235 154.715C145.281 154.592 145.352 154.48 145.442 154.384C145.532 154.288 145.64 154.212 145.76 154.158C145.879 154.104 146.009 154.074 146.14 154.07C146.271 154.066 146.402 154.088 146.525 154.135C146.648 154.181 146.76 154.252 146.856 154.342C146.952 154.432 147.028 154.54 147.082 154.66C147.136 154.779 147.166 154.909 147.17 155.04ZM146 144.89C145.869 144.894 145.738 144.872 145.615 144.825C145.492 144.779 145.38 144.709 145.284 144.618C145.188 144.528 145.111 144.42 145.057 144.3C145.004 144.181 144.974 144.051 144.97 143.92C144.94 142.79 144.9 141.68 144.84 140.59C144.785 139.491 144.765 138.39 144.78 137.29C144.781 137.159 144.808 137.029 144.86 136.908C144.911 136.787 144.986 136.678 145.08 136.586C145.174 136.494 145.285 136.421 145.407 136.372C145.528 136.323 145.659 136.299 145.79 136.3C145.921 136.301 146.051 136.328 146.172 136.38C146.293 136.431 146.402 136.506 146.494 136.6C146.586 136.694 146.659 136.805 146.708 136.927C146.757 137.048 146.781 137.179 146.78 137.31C146.76 138.41 146.78 139.47 146.84 140.49C146.9 141.59 146.94 142.72 146.97 143.86C146.974 143.991 146.952 144.122 146.905 144.245C146.859 144.368 146.789 144.48 146.698 144.576C146.608 144.672 146.5 144.749 146.38 144.803C146.261 144.856 146.131 144.886 146 144.89ZM148.24 171.79C148.493 171.712 148.767 171.738 149.002 171.861C149.236 171.985 149.412 172.197 149.49 172.45C149.81 173.5 150.19 174.52 150.59 175.51C151.07 176.62 151.47 177.76 151.84 178.89C151.886 179.016 151.907 179.15 151.9 179.285C151.894 179.419 151.86 179.551 151.801 179.672C151.743 179.793 151.66 179.901 151.559 179.989C151.458 180.077 151.34 180.145 151.212 180.186C151.084 180.228 150.949 180.243 150.815 180.232C150.681 180.22 150.551 180.182 150.432 180.119C150.313 180.055 150.209 179.969 150.124 179.864C150.039 179.76 149.977 179.639 149.94 179.51C149.58 178.41 149.2 177.33 148.76 176.29C148.313 175.227 147.92 174.142 147.58 173.04C147.502 172.787 147.528 172.513 147.651 172.278C147.775 172.044 147.987 171.868 148.24 171.79ZM146.6 127.53C146.339 127.486 146.106 127.34 145.952 127.125C145.799 126.909 145.737 126.641 145.78 126.38C146.12 124.27 146.56 122.11 147.08 119.95C147.142 119.691 147.305 119.468 147.532 119.329C147.759 119.191 148.031 119.148 148.29 119.21C148.549 119.272 148.772 119.435 148.911 119.662C149.049 119.889 149.092 120.161 149.03 120.42C148.525 122.497 148.098 124.591 147.75 126.7C147.729 126.83 147.683 126.955 147.614 127.067C147.545 127.179 147.454 127.277 147.348 127.354C147.241 127.431 147.12 127.487 146.991 127.517C146.863 127.547 146.73 127.551 146.6 127.53ZM157.7 335.73C157.623 335.623 157.567 335.502 157.537 335.374C157.507 335.245 157.502 335.112 157.524 334.982C157.545 334.852 157.592 334.727 157.662 334.616C157.731 334.504 157.823 334.407 157.93 334.33C159.731 333.035 161.406 331.572 162.93 329.96C163.021 329.865 163.129 329.788 163.249 329.735C163.369 329.682 163.499 329.653 163.63 329.649C163.762 329.646 163.892 329.669 164.015 329.716C164.138 329.763 164.25 329.834 164.345 329.925C164.44 330.016 164.517 330.124 164.57 330.244C164.623 330.364 164.652 330.494 164.656 330.625C164.659 330.757 164.636 330.887 164.589 331.01C164.542 331.133 164.471 331.245 164.38 331.34C162.767 333.044 160.996 334.591 159.09 335.96C158.983 336.037 158.862 336.093 158.734 336.123C158.605 336.153 158.472 336.158 158.342 336.136C158.212 336.115 158.087 336.068 157.975 335.998C157.864 335.929 157.767 335.837 157.69 335.73H157.7ZM152.47 196.46C152.52 198.53 152.67 200.65 152.9 202.72C152.914 202.851 152.903 202.983 152.866 203.109C152.83 203.235 152.769 203.353 152.686 203.456C152.604 203.558 152.503 203.644 152.387 203.707C152.272 203.771 152.146 203.811 152.015 203.825C151.884 203.839 151.752 203.828 151.626 203.791C151.5 203.755 151.382 203.694 151.279 203.611C151.177 203.529 151.091 203.428 151.028 203.312C150.964 203.197 150.924 203.071 150.91 202.94C150.68 200.82 150.52 198.64 150.47 196.51C150.467 196.379 150.489 196.248 150.537 196.125C150.584 196.003 150.655 195.891 150.745 195.796C150.836 195.7 150.944 195.624 151.064 195.571C151.184 195.517 151.314 195.488 151.445 195.485C151.576 195.482 151.707 195.504 151.83 195.552C151.952 195.599 152.064 195.67 152.159 195.76C152.255 195.851 152.331 195.959 152.384 196.079C152.438 196.199 152.467 196.329 152.47 196.46ZM153.47 212.3C153.727 212.237 153.999 212.278 154.226 212.415C154.453 212.552 154.616 212.773 154.68 213.03C154.96 214.15 155.24 215.15 155.53 216.01C155.86 217.01 156.21 218.02 156.57 219.04C156.614 219.164 156.633 219.296 156.626 219.427C156.619 219.559 156.587 219.687 156.53 219.806C156.473 219.925 156.394 220.032 156.296 220.12C156.198 220.208 156.084 220.276 155.96 220.32C155.836 220.364 155.704 220.383 155.573 220.376C155.441 220.369 155.313 220.337 155.194 220.28C155.075 220.223 154.968 220.144 154.88 220.046C154.792 219.948 154.724 219.834 154.68 219.71L153.63 216.64C153.33 215.72 153.03 214.67 152.74 213.51C152.677 213.253 152.718 212.981 152.855 212.754C152.992 212.527 153.213 212.364 153.47 212.3ZM152.11 186.93C151.982 186.897 151.863 186.84 151.757 186.761C151.652 186.682 151.564 186.583 151.497 186.469C151.43 186.356 151.386 186.231 151.368 186.1C151.349 185.97 151.357 185.837 151.39 185.71C151.94 183.431 153.031 181.318 154.57 179.55C154.748 179.364 154.992 179.254 155.249 179.244C155.507 179.233 155.758 179.322 155.952 179.492C156.145 179.662 156.266 179.901 156.288 180.157C156.31 180.414 156.232 180.669 156.07 180.87C154.74 182.403 153.8 184.235 153.33 186.21C153.297 186.338 153.24 186.457 153.161 186.563C153.082 186.668 152.983 186.756 152.869 186.823C152.756 186.89 152.631 186.934 152.5 186.952C152.37 186.971 152.237 186.963 152.11 186.93ZM154.66 189.24C154.883 189.097 155.153 189.049 155.412 189.105C155.671 189.161 155.897 189.318 156.04 189.54C156.64 190.44 157.32 191.29 158.13 192.08C158.63 192.56 159.2 193 159.85 193.4C159.968 193.466 160.071 193.555 160.153 193.662C160.236 193.769 160.296 193.891 160.33 194.022C160.364 194.152 160.371 194.289 160.351 194.422C160.33 194.555 160.284 194.683 160.213 194.798C160.142 194.913 160.048 195.012 159.938 195.09C159.828 195.168 159.703 195.222 159.571 195.251C159.439 195.279 159.302 195.28 159.17 195.254C159.037 195.228 158.912 195.176 158.8 195.1C158.04 194.63 157.35 194.1 156.74 193.51C155.81 192.61 155.04 191.65 154.37 190.63C154.297 190.52 154.247 190.396 154.222 190.267C154.197 190.137 154.198 190.004 154.225 189.875C154.252 189.745 154.305 189.623 154.379 189.514C154.454 189.405 154.549 189.312 154.66 189.24ZM150.9 110.8C150.777 110.752 150.664 110.681 150.569 110.59C150.474 110.499 150.397 110.39 150.344 110.269C150.291 110.148 150.263 110.018 150.26 109.886C150.258 109.754 150.282 109.623 150.33 109.5C151.111 107.454 151.978 105.442 152.93 103.47C152.985 103.348 153.063 103.238 153.161 103.147C153.259 103.056 153.374 102.986 153.5 102.94C153.626 102.895 153.759 102.874 153.893 102.881C154.026 102.888 154.157 102.921 154.277 102.98C154.398 103.038 154.505 103.119 154.593 103.22C154.682 103.32 154.749 103.437 154.791 103.564C154.833 103.691 154.849 103.825 154.839 103.958C154.829 104.092 154.791 104.221 154.73 104.34C153.8 106.263 152.953 108.225 152.19 110.22C152.143 110.343 152.073 110.455 151.983 110.551C151.893 110.646 151.785 110.723 151.665 110.777C151.545 110.831 151.416 110.861 151.285 110.865C151.154 110.869 151.023 110.847 150.9 110.8ZM159.14 228.47C159.383 228.37 159.655 228.369 159.899 228.469C160.142 228.568 160.336 228.759 160.44 229C161.28 230.97 162.14 232.93 163.04 234.87C163.114 234.99 163.162 235.125 163.181 235.264C163.199 235.404 163.188 235.547 163.147 235.682C163.107 235.817 163.038 235.942 162.946 236.049C162.854 236.156 162.74 236.242 162.612 236.302C162.484 236.362 162.345 236.393 162.204 236.396C162.063 236.398 161.923 236.37 161.793 236.314C161.664 236.258 161.547 236.175 161.452 236.071C161.357 235.967 161.284 235.844 161.24 235.71C160.328 233.748 159.448 231.771 158.6 229.78C158.549 229.659 158.523 229.528 158.522 229.397C158.522 229.265 158.548 229.135 158.598 229.013C158.648 228.891 158.722 228.781 158.815 228.687C158.908 228.594 159.018 228.52 159.14 228.47ZM169.94 322.37C169.712 322.235 169.547 322.014 169.481 321.757C169.416 321.501 169.455 321.228 169.59 321C170.735 319.06 171.789 317.068 172.75 315.03C172.806 314.911 172.886 314.805 172.983 314.716C173.081 314.628 173.195 314.56 173.319 314.516C173.443 314.472 173.575 314.453 173.706 314.459C173.837 314.466 173.966 314.499 174.085 314.555C174.204 314.611 174.31 314.691 174.399 314.788C174.487 314.886 174.555 315 174.599 315.124C174.643 315.248 174.662 315.38 174.656 315.511C174.649 315.642 174.616 315.771 174.56 315.89C173.572 317.982 172.487 320.028 171.31 322.02C171.175 322.248 170.954 322.413 170.697 322.479C170.441 322.544 170.168 322.505 169.94 322.37ZM166.44 244.03C166.557 243.967 166.685 243.929 166.816 243.916C166.948 243.903 167.081 243.917 167.208 243.956C167.334 243.995 167.452 244.059 167.553 244.143C167.655 244.228 167.739 244.333 167.8 244.45C168.3 245.4 168.81 246.35 169.32 247.27C169.752 248.047 170.179 248.827 170.6 249.61C170.704 249.841 170.716 250.103 170.634 250.343C170.552 250.583 170.382 250.782 170.159 250.902C169.935 251.021 169.675 251.051 169.43 250.986C169.185 250.921 168.974 250.765 168.84 250.55C168.42 249.77 168 249 167.57 248.24L166.03 245.39C165.906 245.156 165.879 244.883 165.956 244.63C166.033 244.377 166.207 244.165 166.44 244.04V244.03ZM158.74 95.42C158.633 95.3427 158.543 95.2451 158.474 95.1328C158.406 95.0205 158.36 94.8958 158.339 94.7657C158.319 94.6356 158.324 94.5028 158.355 94.3748C158.386 94.2468 158.442 94.1263 158.52 94.02C159.817 92.2273 161.244 90.5327 162.79 88.95C162.976 88.7604 163.229 88.6523 163.494 88.6494C163.626 88.6481 163.756 88.6726 163.878 88.7215C164 88.7705 164.111 88.8431 164.205 88.935C164.299 89.0269 164.374 89.1364 164.425 89.2573C164.477 89.3782 164.504 89.508 164.506 89.6394C164.507 89.7708 164.482 89.9012 164.433 90.0231C164.384 90.145 164.312 90.2561 164.22 90.35C162.743 91.8641 161.379 93.4852 160.14 95.2C160.063 95.3066 159.965 95.3969 159.853 95.4657C159.741 95.5344 159.616 95.5804 159.486 95.6008C159.356 95.6212 159.223 95.6158 159.095 95.5848C158.967 95.5537 158.846 95.4977 158.74 95.42ZM164.22 175.75C164.201 175.486 164.287 175.226 164.459 175.025C164.631 174.825 164.876 174.7 165.14 174.68C166.29 174.6 167.46 174.6 168.64 174.68C169.91 174.78 171.04 175.05 172.02 175.48C172.14 175.533 172.249 175.61 172.339 175.705C172.43 175.8 172.501 175.912 172.548 176.034C172.596 176.157 172.618 176.288 172.615 176.419C172.612 176.55 172.583 176.68 172.53 176.8C172.477 176.92 172.4 177.029 172.305 177.119C172.21 177.21 172.098 177.281 171.976 177.328C171.853 177.376 171.722 177.398 171.591 177.395C171.46 177.392 171.33 177.363 171.21 177.31C170.347 176.942 169.427 176.729 168.49 176.68C167.425 176.6 166.355 176.6 165.29 176.68C165.159 176.69 165.027 176.673 164.902 176.631C164.777 176.59 164.661 176.524 164.562 176.437C164.462 176.351 164.381 176.246 164.322 176.128C164.264 176.01 164.229 175.881 164.22 175.75ZM165.86 196.47C165.866 196.338 165.899 196.208 165.956 196.088C166.013 195.969 166.093 195.862 166.191 195.773C166.29 195.685 166.405 195.617 166.53 195.574C166.655 195.53 166.788 195.512 166.92 195.52C168.47 195.61 169.97 195.45 171.28 195.03C171.405 194.991 171.537 194.976 171.668 194.988C171.799 194.999 171.927 195.037 172.043 195.098C172.16 195.158 172.263 195.242 172.347 195.342C172.432 195.443 172.496 195.56 172.535 195.685C172.574 195.81 172.589 195.942 172.577 196.073C172.565 196.204 172.528 196.332 172.467 196.448C172.407 196.565 172.323 196.668 172.223 196.753C172.122 196.837 172.005 196.901 171.88 196.94C170.3 197.44 168.55 197.61 166.81 197.52C166.679 197.514 166.55 197.481 166.431 197.425C166.312 197.369 166.205 197.29 166.117 197.192C166.029 197.095 165.961 196.981 165.917 196.857C165.873 196.733 165.853 196.601 165.86 196.47ZM173.24 257.08C173.481 256.972 173.756 256.964 174.003 257.057C174.251 257.151 174.451 257.339 174.56 257.58C175.305 259.196 176.012 260.83 176.68 262.48C176.761 262.721 176.747 262.985 176.641 263.216C176.534 263.447 176.344 263.629 176.108 263.725C175.872 263.821 175.608 263.823 175.371 263.731C175.133 263.639 174.94 263.46 174.83 263.23C174.17 261.6 173.48 259.99 172.75 258.41C172.695 258.291 172.663 258.161 172.658 258.03C172.652 257.898 172.673 257.767 172.719 257.643C172.764 257.52 172.834 257.406 172.923 257.31C173.013 257.213 173.12 257.135 173.24 257.08ZM177.62 305.84C177.496 305.796 177.381 305.728 177.283 305.64C177.185 305.552 177.106 305.446 177.049 305.327C176.992 305.208 176.96 305.079 176.953 304.947C176.946 304.816 176.966 304.684 177.01 304.56C177.39 303.48 177.75 302.4 178.1 301.34C178.37 300.51 178.61 299.69 178.82 298.86C178.886 298.603 179.052 298.382 179.281 298.247C179.51 298.112 179.783 298.074 180.04 298.14C180.297 298.206 180.518 298.372 180.653 298.601C180.788 298.83 180.826 299.103 180.76 299.36C180.54 300.23 180.28 301.1 180 301.96C179.646 303.054 179.279 304.144 178.9 305.23C178.81 305.479 178.624 305.682 178.384 305.795C178.144 305.907 177.869 305.92 177.62 305.83V305.84ZM178.37 270.24C178.625 270.166 178.898 270.196 179.131 270.323C179.363 270.451 179.536 270.665 179.61 270.92C180.11 272.65 180.55 274.39 180.92 276.14C180.973 276.4 180.921 276.67 180.774 276.892C180.628 277.113 180.4 277.267 180.14 277.32C179.88 277.373 179.61 277.321 179.388 277.174C179.167 277.028 179.013 276.8 178.96 276.54C178.6 274.838 178.176 273.15 177.69 271.48C177.653 271.353 177.642 271.221 177.657 271.09C177.672 270.958 177.713 270.832 177.777 270.716C177.841 270.601 177.927 270.5 178.031 270.418C178.134 270.336 178.253 270.276 178.38 270.24H178.37ZM181.07 291.39C180.939 291.382 180.81 291.349 180.692 291.291C180.573 291.234 180.467 291.154 180.38 291.055C180.293 290.957 180.226 290.842 180.183 290.717C180.14 290.593 180.122 290.461 180.13 290.33C180.23 288.61 180.22 286.87 180.13 285.14C180.111 285.003 180.121 284.863 180.159 284.73C180.197 284.596 180.262 284.472 180.351 284.366C180.439 284.259 180.549 284.172 180.673 284.11C180.797 284.048 180.932 284.012 181.07 284.005C181.209 283.998 181.347 284.02 181.477 284.069C181.606 284.119 181.724 284.194 181.823 284.292C181.922 284.389 181.999 284.506 182.05 284.635C182.101 284.763 182.125 284.901 182.12 285.04C182.22 286.84 182.22 288.64 182.12 290.44C182.114 290.571 182.081 290.7 182.025 290.819C181.969 290.938 181.89 291.045 181.792 291.133C181.695 291.221 181.581 291.289 181.457 291.333C181.333 291.377 181.201 291.397 181.07 291.39ZM176.59 191.51C176.461 191.484 176.339 191.432 176.23 191.359C176.121 191.285 176.028 191.191 175.956 191.082C175.883 190.972 175.833 190.849 175.808 190.72C175.783 190.591 175.784 190.459 175.81 190.33C175.94 189.7 176 188.99 175.95 188.2C175.902 187.18 175.812 186.162 175.68 185.15C175.656 185.017 175.66 184.881 175.69 184.75C175.72 184.619 175.777 184.495 175.856 184.386C175.935 184.277 176.036 184.185 176.152 184.116C176.267 184.047 176.396 184.002 176.529 183.984C176.663 183.965 176.799 183.974 176.929 184.01C177.059 184.046 177.18 184.107 177.286 184.191C177.391 184.275 177.479 184.379 177.543 184.497C177.608 184.616 177.647 184.746 177.66 184.88C177.81 185.95 177.89 187.03 177.95 188.09C178 189.04 177.94 189.91 177.77 190.73C177.744 190.859 177.692 190.981 177.619 191.09C177.545 191.199 177.451 191.292 177.342 191.364C177.232 191.437 177.109 191.487 176.98 191.512C176.851 191.537 176.719 191.536 176.59 191.51ZM171.28 83.71C171.166 83.4724 171.15 83.1994 171.236 82.9504C171.323 82.7013 171.504 82.4963 171.74 82.38C172.75 81.89 173.79 81.47 174.86 81.11C176.196 80.6595 177.543 80.2427 178.9 79.86C179.029 79.813 179.167 79.7933 179.304 79.8019C179.442 79.8105 179.576 79.8474 179.698 79.9102C179.82 79.973 179.928 80.0604 180.016 80.1669C180.103 80.2734 180.167 80.3967 180.204 80.5292C180.241 80.6616 180.251 80.8003 180.232 80.9366C180.213 81.0729 180.166 81.2038 180.095 81.3212C180.023 81.4386 179.928 81.5399 179.815 81.6189C179.703 81.6978 179.575 81.7527 179.44 81.78C178.14 82.15 176.84 82.55 175.5 83C174.51 83.33 173.55 83.73 172.61 84.18C172.372 84.294 172.099 84.3097 171.85 84.2236C171.601 84.1374 171.396 83.9565 171.28 83.72V83.71ZM191.87 78.4C191.845 78.1361 191.926 77.8731 192.094 77.6687C192.263 77.4643 192.506 77.3353 192.77 77.31C194.15 77.18 195.55 77.08 196.98 77.01C197.117 76.9911 197.257 77.001 197.39 77.0389C197.524 77.0769 197.648 77.1422 197.754 77.2306C197.861 77.3191 197.948 77.4287 198.01 77.5526C198.072 77.6766 198.108 77.812 198.115 77.9505C198.122 78.0889 198.1 78.2273 198.051 78.3568C198.001 78.4863 197.926 78.6042 197.828 78.7028C197.731 78.8015 197.614 78.8789 197.485 78.9301C197.357 78.9812 197.219 79.005 197.08 79C195.68 79.07 194.3 79.17 192.96 79.3C192.829 79.3138 192.696 79.3014 192.569 79.2636C192.442 79.2257 192.325 79.1631 192.222 79.0794C192.12 78.9957 192.035 78.8926 191.973 78.776C191.911 78.6594 191.872 78.5316 191.86 78.4H191.87ZM200.68 87.05C200.342 86.8413 200.101 86.5073 200.009 86.1212C199.918 85.7351 199.983 85.3283 200.19 84.99C201.929 81.996 204.395 79.4888 207.36 77.7C204.519 76.0574 202.085 73.7945 200.24 71.08C200.05 70.7464 199.995 70.3525 200.086 69.9794C200.178 69.6064 200.409 69.2827 200.732 69.075C201.055 68.8673 201.445 68.7915 201.823 68.8631C202.2 68.9347 202.535 69.1484 202.76 69.46C205.06 73.04 209.05 75.36 210.71 76.06C210.75 76.07 210.8 76.09 210.84 76.12C211.095 76.1688 211.333 76.2825 211.531 76.4501C211.729 76.6177 211.881 76.8335 211.971 77.0767C212.062 77.3199 212.088 77.5823 212.047 77.8386C212.007 78.095 211.901 78.3365 211.74 78.54C211.64 78.68 211.47 78.84 211.39 78.92L211.37 78.94C211.239 79.0664 211.087 79.1681 210.92 79.24C207.24 80.86 204.85 83.16 202.75 86.56C202.647 86.7293 202.512 86.8767 202.353 86.9936C202.193 87.1105 202.012 87.1946 201.819 87.2411C201.627 87.2875 201.427 87.2955 201.231 87.2644C201.036 87.2333 200.849 87.1639 200.68 87.06V87.05Z" fill="#CCDDFF"/>
<path fill-rule="evenodd" clip-rule="evenodd" d="M141.1 346.93L137.71 357.4C137.147 359.193 137.31 361.136 138.165 362.81C139.019 364.483 140.497 365.755 142.28 366.35C143.153 366.655 144.078 366.783 145 366.727C145.923 366.67 146.826 366.43 147.654 366.02C148.483 365.61 149.222 365.039 149.827 364.34C150.433 363.641 150.893 362.829 151.18 361.95C151.589 360.646 151.617 359.253 151.261 357.934C150.904 356.615 150.179 355.425 149.169 354.505C148.159 353.585 146.908 352.972 145.561 352.739C144.215 352.506 142.83 352.662 141.57 353.19L144.21 345.04L159.68 335.64L158.08 335.32C156.922 335.078 155.715 335.281 154.7 335.89L145.33 341.59L148.71 331.16C149.075 330.031 149 328.806 148.5 327.73L147.81 326.26L142.23 343.47L134.91 347.92C135.134 346.571 134.967 345.185 134.43 343.928C133.892 342.67 133.006 341.592 131.876 340.822C130.746 340.051 129.419 339.62 128.052 339.579C126.685 339.538 125.334 339.889 124.16 340.59C123.373 341.073 122.689 341.708 122.15 342.458C121.611 343.209 121.227 344.059 121.02 344.959C120.814 345.859 120.789 346.792 120.946 347.702C121.104 348.612 121.442 349.482 121.94 350.26C122.929 351.858 124.506 353.004 126.331 353.451C128.157 353.898 130.085 353.61 131.7 352.65L141.1 346.93ZM123.94 349.05C124.6 350.113 125.65 350.875 126.865 351.172C128.081 351.469 129.364 351.278 130.44 350.64C130.967 350.319 131.424 349.896 131.785 349.396C132.146 348.896 132.403 348.329 132.542 347.728C132.681 347.128 132.698 346.505 132.593 345.897C132.488 345.29 132.262 344.709 131.93 344.19C131.268 343.126 130.216 342.364 128.998 342.069C127.781 341.773 126.496 341.968 125.42 342.61C124.896 342.932 124.441 343.355 124.082 343.854C123.723 344.354 123.467 344.92 123.329 345.519C123.191 346.119 123.174 346.74 123.279 347.346C123.384 347.952 123.609 348.532 123.94 349.05ZM143 364.13C143.581 364.332 144.197 364.416 144.812 364.378C145.426 364.34 146.027 364.18 146.579 363.907C147.131 363.634 147.623 363.255 148.026 362.79C148.43 362.325 148.737 361.785 148.93 361.2C149.306 360.004 149.198 358.707 148.627 357.591C148.056 356.474 147.07 355.626 145.88 355.23C145.299 355.028 144.683 354.944 144.068 354.982C143.454 355.02 142.853 355.18 142.301 355.453C141.749 355.726 141.257 356.105 140.854 356.57C140.45 357.035 140.143 357.575 139.95 358.16C139.574 359.356 139.682 360.653 140.253 361.769C140.824 362.886 141.81 363.734 143 364.13Z" fill="#0055FF"/>
<path d="M141.11 346.93L141.64 347.1L142.11 345.66L140.81 346.45L141.11 346.93ZM151.18 361.95L151.71 362.13L151.18 361.96V361.95ZM141.57 353.19L141.04 353.01L140.66 354.18L141.79 353.7L141.57 353.19ZM144.21 345.04L143.92 344.56L143.74 344.67L143.68 344.87L144.21 345.04ZM159.68 335.64L159.97 336.12L161.19 335.38L159.79 335.09L159.68 335.64ZM158.08 335.32L158.2 334.77L158.09 335.32H158.08ZM145.33 341.59L144.8 341.42L144.33 342.85L145.63 342.07L145.33 341.59ZM147.81 326.26L148.32 326.02L147.72 324.73L147.28 326.09L147.81 326.26ZM142.23 343.47L142.52 343.95L142.7 343.85L142.76 343.65L142.23 343.47ZM134.91 347.92L134.36 347.82L134.16 349.04L135.2 348.4L134.91 347.92ZM138.25 357.57L141.65 347.1L140.58 346.75L137.18 357.23L138.24 357.57H138.25ZM142.45 365.82C140.809 365.269 139.45 364.096 138.665 362.553C137.879 361.01 137.73 359.221 138.25 357.57L137.18 357.23C136.572 359.162 136.747 361.256 137.667 363.061C138.587 364.866 140.179 366.237 142.1 366.88L142.46 365.82H142.45ZM150.65 361.78C150.384 362.589 149.96 363.336 149.401 363.979C148.843 364.621 148.162 365.146 147.399 365.522C146.635 365.899 145.804 366.119 144.954 366.17C144.105 366.221 143.253 366.102 142.45 365.82L142.1 366.88C146.1 368.24 150.41 366.12 151.7 362.13L150.64 361.78H150.65ZM146.43 353.54C148.07 354.089 149.43 355.26 150.217 356.8C151.004 358.341 151.156 360.129 150.64 361.78L151.71 362.13C152.318 360.198 152.143 358.104 151.223 356.299C150.303 354.494 148.711 353.123 146.79 352.48L146.43 353.54ZM141.79 353.7C143.19 353.1 144.84 353 146.43 353.54L146.79 352.48C145.015 351.87 143.078 351.937 141.35 352.67L141.79 353.7ZM143.68 344.87L141.04 353.01L142.1 353.36L144.74 345.21L143.68 344.87ZM159.38 335.17L143.92 344.57L144.5 345.52L159.97 336.12L159.38 335.16V335.17ZM157.98 335.87L159.56 336.19L159.79 335.09L158.2 334.77L157.98 335.87ZM154.98 336.37C155.88 335.829 156.953 335.65 157.98 335.87L158.2 334.77C156.897 334.498 155.539 334.73 154.4 335.42L154.99 336.37H154.98ZM145.62 342.07L154.99 336.37L154.41 335.42L145.04 341.11L145.62 342.07ZM148.18 330.99L144.8 341.42L145.86 341.76L149.25 331.33L148.18 330.99ZM147.98 327.96C148.43 328.92 148.5 330 148.18 330.99L149.25 331.33C149.65 330.08 149.57 328.7 149 327.49L147.99 327.96H147.98ZM147.31 326.5L147.99 327.96L149 327.49L148.32 326.02L147.31 326.5ZM142.76 343.65L148.35 326.43L147.28 326.09L141.7 343.3L142.76 343.65ZM135.2 348.4L142.52 343.95L141.94 343L134.62 347.44L135.2 348.4ZM133.45 343.27C134.305 344.626 134.629 346.25 134.36 347.83L135.46 348.02C135.778 346.17 135.401 344.268 134.4 342.68L133.45 343.28V343.27ZM124.45 341.07C125.939 340.184 127.717 339.918 129.4 340.329C131.083 340.741 132.538 341.797 133.45 343.27L134.4 342.67C133.329 340.95 131.626 339.718 129.657 339.242C127.687 338.765 125.609 339.08 123.87 340.12L124.45 341.07ZM122.41 349.97C121.953 349.253 121.642 348.453 121.498 347.615C121.353 346.777 121.377 345.919 121.568 345.09C121.759 344.261 122.113 343.479 122.609 342.789C123.106 342.099 123.735 341.514 124.46 341.07L123.87 340.12C123.02 340.642 122.283 341.328 121.701 342.138C121.119 342.947 120.705 343.865 120.481 344.837C120.258 345.809 120.23 346.815 120.4 347.798C120.57 348.78 120.933 349.719 121.47 350.56L122.41 349.96V349.97ZM131.41 352.17C129.921 353.056 128.143 353.322 126.46 352.911C124.777 352.499 123.322 351.443 122.41 349.97L121.46 350.57C122.529 352.292 124.232 353.525 126.201 354.004C128.171 354.483 130.25 354.169 131.99 353.13L131.41 352.17ZM140.81 346.45L131.41 352.17L131.99 353.12L141.4 347.41L140.82 346.45H140.81ZM123.46 349.35C124.198 350.541 125.376 351.395 126.738 351.726C128.099 352.057 129.537 351.839 130.74 351.12L130.15 350.16C129.2 350.724 128.067 350.894 126.994 350.632C125.921 350.37 124.993 349.698 124.41 348.76L123.46 349.35ZM130.74 351.12C131.327 350.759 131.836 350.284 132.238 349.724C132.64 349.164 132.927 348.529 133.081 347.857C133.236 347.186 133.255 346.49 133.138 345.81C133.021 345.131 132.77 344.482 132.4 343.9L131.45 344.49C131.741 344.946 131.939 345.456 132.031 345.99C132.124 346.523 132.109 347.07 131.988 347.597C131.867 348.125 131.642 348.623 131.327 349.063C131.011 349.503 130.611 349.876 130.15 350.16L130.74 351.12ZM132.4 343.9C131.662 342.711 130.486 341.86 129.127 341.529C127.767 341.198 126.332 341.414 125.13 342.13L125.71 343.08C126.661 342.517 127.795 342.349 128.868 342.612C129.941 342.876 130.868 343.55 131.45 344.49L132.4 343.89V343.9ZM125.13 342.13C124.542 342.491 124.032 342.965 123.629 343.524C123.226 344.084 122.939 344.718 122.783 345.39C122.628 346.062 122.608 346.758 122.724 347.438C122.84 348.118 123.09 348.768 123.46 349.35L124.41 348.75C124.117 348.294 123.919 347.784 123.825 347.251C123.732 346.717 123.747 346.17 123.868 345.642C123.989 345.114 124.214 344.615 124.531 344.175C124.847 343.735 125.248 343.363 125.71 343.08L125.13 342.13ZM142.82 364.66C143.472 364.885 144.162 364.979 144.85 364.935C145.538 364.892 146.211 364.711 146.829 364.405C147.447 364.099 147.998 363.673 148.449 363.152C148.901 362.631 149.245 362.025 149.46 361.37L148.4 361.02C148.231 361.535 147.961 362.011 147.606 362.421C147.251 362.83 146.817 363.165 146.331 363.405C145.845 363.645 145.316 363.786 144.775 363.82C144.234 363.853 143.692 363.779 143.18 363.6L142.82 364.66ZM149.46 361.37C149.881 360.034 149.761 358.587 149.125 357.339C148.489 356.092 147.388 355.144 146.06 354.7L145.7 355.76C147.9 356.5 149.1 358.86 148.4 361.02L149.46 361.37ZM146.06 354.7C145.408 354.475 144.718 354.381 144.03 354.425C143.342 354.468 142.669 354.649 142.051 354.955C141.433 355.261 140.882 355.687 140.431 356.208C139.979 356.729 139.635 357.335 139.42 357.99L140.49 358.33C140.66 357.817 140.931 357.343 141.286 356.935C141.64 356.528 142.073 356.195 142.558 355.956C143.042 355.716 143.57 355.576 144.109 355.542C144.649 355.509 145.189 355.583 145.7 355.76L146.06 354.7ZM139.42 357.99C138.999 359.326 139.119 360.773 139.755 362.021C140.391 363.268 141.492 364.216 142.82 364.66L143.18 363.6C142.128 363.252 141.256 362.504 140.751 361.518C140.245 360.532 140.148 359.387 140.48 358.33L139.42 357.99Z" fill="#0055FF"/>
<path fill-rule="evenodd" clip-rule="evenodd" d="M460.66 489.7V495.22H459V486.97H467.26V488.61H461.9C463.13 490.157 464.693 491.407 466.473 492.265C468.253 493.124 470.204 493.57 472.18 493.57C479.46 493.57 485.35 487.66 485.35 480.37C485.355 478.196 484.822 476.054 483.8 474.135C482.778 472.216 481.297 470.579 479.49 469.37L480.4 468C484.38 470.66 487 475.2 487 480.36C487 488.56 480.37 495.22 472.18 495.22C467.53 495.22 463.38 493.07 460.66 489.7ZM437.87 490.38C437.788 490.462 437.69 490.527 437.583 490.572C437.476 490.616 437.361 490.639 437.245 490.639C437.129 490.639 437.014 490.616 436.907 490.572C436.8 490.527 436.702 490.462 436.62 490.38C436.538 490.298 436.473 490.2 436.428 490.093C436.384 489.986 436.361 489.871 436.361 489.755C436.361 489.639 436.384 489.524 436.428 489.417C436.473 489.31 436.538 489.212 436.62 489.13L438.49 487.26C438.656 487.094 438.881 487.001 439.115 487.001C439.349 487.001 439.574 487.094 439.74 487.26C439.906 487.426 439.999 487.651 439.999 487.885C439.999 488.119 439.906 488.344 439.74 488.51L437.87 490.38ZM432.26 488.51C432.094 488.344 432.001 488.119 432.001 487.885C432.001 487.651 432.094 487.426 432.26 487.26C432.426 487.094 432.651 487.001 432.885 487.001C433.119 487.001 433.344 487.094 433.51 487.26L435.38 489.13C435.546 489.296 435.639 489.521 435.639 489.755C435.639 489.989 435.546 490.214 435.38 490.38C435.214 490.546 434.989 490.639 434.755 490.639C434.521 490.639 434.296 490.546 434.13 490.38L432.26 488.51ZM436.62 492.87C436.538 492.788 436.473 492.69 436.428 492.583C436.384 492.476 436.361 492.361 436.361 492.245C436.361 492.129 436.384 492.014 436.428 491.907C436.473 491.8 436.538 491.702 436.62 491.62C436.702 491.538 436.8 491.473 436.907 491.428C437.014 491.384 437.129 491.361 437.245 491.361C437.361 491.361 437.476 491.384 437.583 491.428C437.69 491.473 437.788 491.538 437.87 491.62L439.74 493.49C439.906 493.656 439.999 493.881 439.999 494.115C439.999 494.349 439.906 494.574 439.74 494.74C439.574 494.906 439.349 494.999 439.115 494.999C438.881 494.999 438.656 494.906 438.49 494.74L436.62 492.87ZM432.26 494.74C432.6 495.09 433.16 495.09 433.51 494.74L435.38 492.87C435.546 492.704 435.639 492.479 435.639 492.245C435.639 492.011 435.546 491.786 435.38 491.62C435.214 491.454 434.989 491.361 434.755 491.361C434.521 491.361 434.296 491.454 434.13 491.62L432.26 493.49C432.177 493.572 432.112 493.669 432.067 493.776C432.023 493.884 431.999 493.999 431.999 494.115C431.999 494.231 432.023 494.346 432.067 494.454C432.112 494.561 432.177 494.658 432.26 494.74ZM452.87 456.38C452.788 456.462 452.69 456.527 452.583 456.572C452.476 456.616 452.361 456.639 452.245 456.639C452.129 456.639 452.014 456.616 451.907 456.572C451.8 456.527 451.702 456.462 451.62 456.38C451.538 456.298 451.473 456.2 451.428 456.093C451.384 455.986 451.361 455.871 451.361 455.755C451.361 455.639 451.384 455.524 451.428 455.417C451.473 455.31 451.538 455.212 451.62 455.13L453.49 453.26C453.656 453.094 453.881 453.001 454.115 453.001C454.349 453.001 454.574 453.094 454.74 453.26C454.906 453.426 454.999 453.651 454.999 453.885C454.999 454.119 454.906 454.344 454.74 454.51L452.87 456.38ZM447.26 454.51C447.094 454.344 447.001 454.119 447.001 453.885C447.001 453.651 447.094 453.426 447.26 453.26C447.426 453.094 447.651 453.001 447.885 453.001C448.119 453.001 448.344 453.094 448.51 453.26L450.38 455.13C450.546 455.296 450.639 455.521 450.639 455.755C450.639 455.989 450.546 456.214 450.38 456.38C450.214 456.546 449.989 456.639 449.755 456.639C449.521 456.639 449.296 456.546 449.13 456.38L447.26 454.51ZM451.62 458.87C451.538 458.788 451.473 458.69 451.428 458.583C451.384 458.476 451.361 458.361 451.361 458.245C451.361 458.129 451.384 458.014 451.428 457.907C451.473 457.8 451.538 457.702 451.62 457.62C451.702 457.538 451.8 457.473 451.907 457.428C452.014 457.384 452.129 457.361 452.245 457.361C452.361 457.361 452.476 457.384 452.583 457.428C452.69 457.473 452.788 457.538 452.87 457.62L454.74 459.49C454.906 459.656 454.999 459.881 454.999 460.115C454.999 460.349 454.906 460.574 454.74 460.74C454.574 460.906 454.349 460.999 454.115 460.999C453.881 460.999 453.656 460.906 453.49 460.74L451.62 458.87ZM447.26 460.74C447.6 461.09 448.16 461.09 448.51 460.74L450.38 458.87C450.546 458.704 450.639 458.479 450.639 458.245C450.639 458.011 450.546 457.786 450.38 457.62C450.214 457.454 449.989 457.361 449.755 457.361C449.521 457.361 449.296 457.454 449.13 457.62L447.26 459.49C447.177 459.572 447.112 459.669 447.067 459.776C447.023 459.884 446.999 459.999 446.999 460.115C446.999 460.231 447.023 460.346 447.067 460.454C447.112 460.561 447.177 460.658 447.26 460.74Z" fill="#FFB700"/>
<path d="M455.49 248.86C455.36 248.03 455.08 247.405 454.65 246.985C454.23 246.565 453.67 246.35 452.97 246.34C452.45 246.34 451.995 246.46 451.605 246.7C451.215 246.94 450.89 247.26 450.63 247.66C450.38 248.06 450.19 248.515 450.06 249.025C449.94 249.535 449.88 250.06 449.88 250.6C449.88 251.46 450 252.225 450.24 252.895C450.49 253.555 450.85 254.075 451.32 254.455C451.79 254.835 452.36 255.025 453.03 255.025C453.66 255.025 454.285 254.865 454.905 254.545C455.525 254.215 456.045 253.76 456.465 253.18L457.185 253.84C456.695 254.51 456.18 255.02 455.64 255.37C455.1 255.71 454.57 255.94 454.05 256.06C453.54 256.18 453.08 256.24 452.67 256.24C451.9 256.24 451.2 256.105 450.57 255.835C449.94 255.555 449.395 255.175 448.935 254.695C448.485 254.205 448.135 253.64 447.885 253C447.645 252.35 447.525 251.65 447.525 250.9C447.525 250.22 447.635 249.545 447.855 248.875C448.075 248.205 448.4 247.6 448.83 247.06C449.27 246.51 449.82 246.075 450.48 245.755C451.14 245.425 451.905 245.26 452.775 245.26C453.165 245.26 453.59 245.325 454.05 245.455C454.52 245.575 454.96 245.755 455.37 245.995L455.31 245.365H456.465V248.86H455.49ZM464.137 248.86C464.047 248.3 463.887 247.835 463.657 247.465C463.427 247.085 463.132 246.8 462.772 246.61C462.422 246.42 462.012 246.33 461.542 246.34C461.112 246.34 460.732 246.46 460.402 246.7C460.082 246.94 459.922 247.25 459.922 247.63C459.922 247.94 460.007 248.21 460.177 248.44C460.357 248.67 460.627 248.885 460.987 249.085C461.347 249.285 461.802 249.5 462.352 249.73C462.732 249.88 463.122 250.055 463.522 250.255C463.922 250.455 464.292 250.695 464.632 250.975C464.972 251.245 465.247 251.565 465.457 251.935C465.667 252.295 465.772 252.72 465.772 253.21C465.772 253.8 465.612 254.325 465.292 254.785C464.972 255.245 464.522 255.605 463.942 255.865C463.372 256.115 462.702 256.24 461.932 256.24C461.532 256.24 461.097 256.175 460.627 256.045C460.167 255.925 459.732 255.745 459.322 255.505L459.367 256.135H458.212V252.625H459.202C459.342 253.465 459.662 254.1 460.162 254.53C460.672 254.95 461.277 255.16 461.977 255.16C462.337 255.16 462.652 255.095 462.922 254.965C463.192 254.835 463.402 254.665 463.552 254.455C463.702 254.235 463.777 254 463.777 253.75C463.777 253.4 463.652 253.11 463.402 252.88C463.162 252.65 462.857 252.455 462.487 252.295C462.127 252.135 461.757 251.98 461.377 251.83C460.897 251.63 460.447 251.42 460.027 251.2C459.617 250.97 459.257 250.71 458.947 250.42C458.637 250.13 458.397 249.8 458.227 249.43C458.057 249.05 457.972 248.615 457.972 248.125C457.972 247.815 458.032 247.495 458.152 247.165C458.272 246.825 458.467 246.515 458.737 246.235C459.007 245.945 459.367 245.71 459.817 245.53C460.267 245.35 460.822 245.26 461.482 245.26C461.882 245.26 462.317 245.32 462.787 245.44C463.267 245.56 463.677 245.74 464.017 245.98L463.957 245.365H465.127V248.86H464.137ZM470.975 256.09L467.525 248.035C467.425 247.785 467.33 247.525 467.24 247.255C467.15 246.985 467.105 246.77 467.105 246.61C466.945 246.62 466.795 246.63 466.655 246.64C466.525 246.64 466.405 246.645 466.295 246.655V245.5H470.72V246.49C470.35 246.48 470.065 246.56 469.865 246.73C469.675 246.9 469.67 247.205 469.85 247.645C470.08 248.205 470.31 248.77 470.54 249.34C470.77 249.91 471 250.475 471.23 251.035C471.4 251.455 471.545 251.825 471.665 252.145C471.785 252.455 471.925 252.8 472.085 253.18H472.1C472.21 252.88 472.325 252.545 472.445 252.175C472.575 251.805 472.7 251.45 472.82 251.11C472.95 250.76 473.075 250.41 473.195 250.06C473.325 249.71 473.455 249.365 473.585 249.025C473.715 248.675 473.84 248.325 473.96 247.975C474.01 247.805 474.09 247.575 474.2 247.285C474.32 246.995 474.445 246.77 474.575 246.61C474.415 246.62 474.21 246.63 473.96 246.64C473.71 246.64 473.53 246.645 473.42 246.655V245.5H476.795V246.49C476.455 246.5 476.16 246.625 475.91 246.865C475.66 247.105 475.425 247.515 475.205 248.095C475.035 248.535 474.865 248.98 474.695 249.43C474.535 249.87 474.37 250.315 474.2 250.765C474.04 251.205 473.875 251.65 473.705 252.1C473.535 252.54 473.365 252.985 473.195 253.435C473.035 253.875 472.87 254.315 472.7 254.755C472.54 255.195 472.375 255.64 472.205 256.09H470.975Z" fill="white"/>
<path d="M524.804 237.312C524.804 236.88 524.744 236.524 524.624 236.244C524.504 235.956 524.332 235.744 524.108 235.608C523.892 235.464 523.632 235.396 523.328 235.404H522.752V241.032C522.752 241.248 522.748 241.456 522.74 241.656C522.732 241.856 522.72 242.008 522.704 242.112C522.84 242.096 523.012 242.088 523.22 242.088C523.436 242.08 523.584 242.076 523.664 242.076V243H520.16V242.208C520.344 242.2 520.496 242.176 520.616 242.136C520.744 242.096 520.84 242.004 520.904 241.86C520.976 241.716 521.012 241.484 521.012 241.164V235.416H520.46C520.004 235.424 519.644 235.58 519.38 235.884C519.116 236.188 518.984 236.664 518.984 237.312H518.192L518.252 234.6H525.524L525.596 237.312H524.804ZM526.225 243V242.208C526.457 242.152 526.689 242.024 526.921 241.824C527.153 241.616 527.417 241.316 527.713 240.924L529.105 239.064C528.785 238.656 528.465 238.248 528.145 237.84C527.825 237.432 527.501 237.024 527.173 236.616C527.045 236.448 526.929 236.264 526.825 236.064C526.721 235.856 526.637 235.664 526.573 235.488C526.445 235.496 526.333 235.504 526.237 235.512C526.149 235.512 526.061 235.516 525.973 235.524V234.6H529.621V235.392H529.501C529.253 235.392 529.081 235.428 528.985 235.5C528.889 235.572 528.853 235.672 528.877 235.8C528.909 235.92 528.985 236.056 529.105 236.208C529.289 236.432 529.469 236.656 529.645 236.88C529.821 237.104 529.997 237.332 530.173 237.564L531.085 236.304C531.253 236.072 531.385 235.904 531.481 235.8C531.585 235.688 531.689 235.584 531.793 235.488C531.665 235.496 531.505 235.504 531.313 235.512C531.121 235.512 530.981 235.516 530.893 235.524V234.6H533.617V235.392C533.433 235.416 533.249 235.48 533.065 235.584C532.889 235.688 532.709 235.836 532.525 236.028C532.341 236.212 532.141 236.452 531.925 236.748L530.773 238.32C531.029 238.64 531.281 238.96 531.529 239.28C531.777 239.6 532.025 239.92 532.273 240.24C532.529 240.56 532.781 240.88 533.029 241.2C533.165 241.368 533.289 241.528 533.401 241.68C533.513 241.832 533.597 241.976 533.653 242.112C533.789 242.096 533.885 242.088 533.941 242.088C533.997 242.08 534.065 242.076 534.145 242.076V243H530.557V242.208C530.853 242.208 531.045 242.172 531.133 242.1C531.221 242.028 531.241 241.932 531.193 241.812C531.153 241.684 531.073 241.544 530.953 241.392C530.753 241.136 530.549 240.88 530.341 240.624C530.141 240.36 529.937 240.1 529.729 239.844C529.553 240.084 529.377 240.328 529.201 240.576C529.025 240.816 528.849 241.056 528.673 241.296C528.505 241.52 528.377 241.688 528.289 241.8C528.201 241.912 528.109 242.016 528.013 242.112C528.149 242.104 528.305 242.096 528.481 242.088C528.657 242.08 528.785 242.076 528.865 242.076V243H526.225ZM540.999 237.312C540.999 236.88 540.939 236.524 540.819 236.244C540.699 235.956 540.527 235.744 540.303 235.608C540.087 235.464 539.827 235.396 539.523 235.404H538.947V241.032C538.947 241.248 538.943 241.456 538.935 241.656C538.927 241.856 538.915 242.008 538.899 242.112C539.035 242.096 539.207 242.088 539.415 242.088C539.631 242.08 539.779 242.076 539.859 242.076V243H536.355V242.208C536.539 242.2 536.691 242.176 536.811 242.136C536.939 242.096 537.035 242.004 537.099 241.86C537.171 241.716 537.207 241.484 537.207 241.164V235.416H536.655C536.199 235.424 535.839 235.58 535.575 235.884C535.311 236.188 535.179 236.664 535.179 237.312H534.387L534.447 234.6H541.719L541.791 237.312H540.999Z" fill="white"/>
<defs>
<filter id="filter0_d_1_2" x="166.94" y="93.94" width="305.12" height="384.12" filterUnits="userSpaceOnUse" color-interpolation-filters="sRGB">
<feFlood flood-opacity="0" result="BackgroundImageFix"/>
<feColorMatrix in="SourceAlpha" type="matrix" values="0 0 0 0 0 0 0 0 0 0 0 0 0 0 0 0 0 0 127 0" result="hardAlpha"/>
<feOffset/>
<feGaussianBlur stdDeviation="0.53"/>
<feColorMatrix type="matrix" values="0 0 0 0 0.101961 0 0 0 0 0.101961 0 0 0 0 0.101961 0 0 0 0.2 0"/>
<feBlend mode="normal" in2="BackgroundImageFix" result="effect1_dropShadow_1_2"/>
<feBlend mode="normal" in="SourceGraphic" in2="effect1_dropShadow_1_2" result="shape"/>
</filter>
</defs>
</svg>
