<svg xmlns="http://www.w3.org/2000/svg" fill="none" viewBox="0 0 600 520">
  <rect width="218.785" height="218.785" fill="#ECF5FE" rx="17.697" transform="scale(-1 1) rotate(-76.025 131.313 428.198)"/>
  <rect width="277.889" height="277.889" fill="#D8EBFD" rx="19.922" transform="scale(-1 1) rotate(-61.809 -50.81 572.522)"/>
  <path fill="#FFB700" fill-rule="evenodd" d="M480.828 403.381a6.638 6.638 0 0 1-6.636 6.64 6.638 6.638 0 0 1-6.635-6.64 6.638 6.638 0 0 1 6.635-6.64 6.638 6.638 0 0 1 6.636 6.64Zm-10.086 0a3.452 3.452 0 0 0 3.451 3.453 3.452 3.452 0 0 0 3.45-3.453 3.452 3.452 0 0 0-3.45-3.453 3.452 3.452 0 0 0-3.451 3.453Z" clip-rule="evenodd"/>
  <path fill="#FFB700" d="M137.729 363.006a1.939 1.939 0 0 0 0-2.767 2.004 2.004 0 0 0-2.804 0l-4.171 4.116a1.938 1.938 0 0 0 0 2.766c.774.764 2.03.764 2.804 0l4.171-4.115Zm-9.765 9.634a1.938 1.938 0 0 0 0-2.766 2.002 2.002 0 0 0-2.804 0l-4.171 4.115a1.938 1.938 0 0 0 0 2.766c.775.764 2.03.764 2.804 0l4.171-4.115Zm9.765 4.115a2.002 2.002 0 0 1-2.804 0l-4.171-4.115a1.938 1.938 0 0 1 0-2.766 2.002 2.002 0 0 1 2.804 0l4.171 4.115a1.938 1.938 0 0 1 0 2.766Zm-12.569-9.634c.774.764 2.03.764 2.804 0a1.938 1.938 0 0 0 0-2.766l-4.171-4.116a2.004 2.004 0 0 0-2.804 0 1.939 1.939 0 0 0 0 2.767l4.171 4.115Z"/>
  <path fill="#87AFFF" fill-rule="evenodd" d="M150.26 90.858a7.558 7.558 0 0 0 7.556 7.56 7.558 7.558 0 0 0 7.556-7.56 7.558 7.558 0 0 0-7.556-7.561 7.558 7.558 0 0 0-7.556 7.56Zm11.485 0a3.93 3.93 0 0 1-3.929 3.931 3.93 3.93 0 0 1-3.929-3.931 3.93 3.93 0 0 1 3.929-3.932 3.93 3.93 0 0 1 3.929 3.932Z" clip-rule="evenodd"/>
  <path fill="#fff" d="M252.424 115.075v7.126h7.121v3.563h-7.121v7.126h-3.56v-7.126h-7.121v-3.563h7.121v-7.126h3.56Z"/>
  <ellipse cx="297.256" cy="424.291" fill="#769EEB" rx="142.661" ry="20.725"/>
  <path fill="#51D4D8" d="m343.396 402.753-6.625-23.183-31.549-16.902-31.549 16.901-4.828 16.901 79.193 22.535h16.901c-9.295 0-18.991-7.312-21.543-16.252Z"/>
  <path fill="#B7F5F7" d="M348.038 419.007H245.504c9.296 0 18.991-7.312 21.544-16.253l1.797-6.282h55.852l1.797 6.282c2.552 8.941 12.248 16.253 21.544 16.253Z"/>
  <path fill="#51D4D8" d="M411.417 303.516v76.055h16.901c9.295 0 16.901-7.605 16.901-16.901v-33.802l-33.802-25.352Z"/>
  <path fill="#B7F5F7" d="M165.225 328.867v33.802c0 9.296 7.605 16.901 16.901 16.901h229.292c9.295 0 16.901-7.605 16.901-16.901v-59.153l-263.094 25.351Z"/>
  <path fill="#493A91" d="M428.319 159.855H182.126c-9.296 0-16.901 7.606-16.901 16.902v152.11H445.22v-152.11c0-9.296-7.605-16.902-16.901-16.902Z"/>
  <path fill="#BAE2FF" d="M428.316 311.966h-16.901l-22.535-67.605 22.535-67.604h16.901v135.209Z"/>
  <path fill="#FFBF80" d="M428.319 176.757H182.127v135.209h246.192V176.757Z"/>
  <path fill="#51D4D8" d="M400.996 423.231H209.45a4.224 4.224 0 1 1 0-8.45h191.546a4.224 4.224 0 1 1 0 8.45Z"/>
  <path fill="#FA952F" d="M187.83 347.125a5.85 5.85 0 1 0-.001-11.7 5.85 5.85 0 0 0 .001 11.7Z"/>
  <path fill="#FFE299" d="M205.224 347.658a5.85 5.85 0 1 0 0-11.699 5.85 5.85 0 0 0 0 11.699Z"/>
  <path fill="#0FC0C5" d="M222.621 347.658a5.85 5.85 0 1 0 0-11.7 5.85 5.85 0 0 0 0 11.7Z"/>
  <path fill="#FAFCFF" d="M205.042 197.335a8.145 8.145 0 0 1 8.145-8.145h183.817a8.145 8.145 0 0 1 8.145 8.145v114.61H205.042v-114.61Z"/>
  <path fill="#7961F2" d="M205.042 197.335a8.145 8.145 0 0 1 8.145-8.145h183.817a8.145 8.145 0 0 1 8.145 8.145v9.511H205.042v-9.511Z"/>
  <path fill="#FFB700" d="M215.813 201.068a3.204 3.204 0 1 0 .002-6.408 3.204 3.204 0 0 0-.002 6.408Z"/>
  <path fill="#FFE299" d="M224.361 201.068a3.204 3.204 0 1 0 0-6.408 3.204 3.204 0 0 0 0 6.408Z"/>
  <path fill="#49CFD3" d="M232.904 201.068a3.204 3.204 0 1 0 0-6.408 3.204 3.204 0 0 0 0 6.408Z"/>
  <path fill="#BEB2F8" fill-rule="evenodd" d="M233.172 306.705a3.464 3.464 0 0 1-2.445-1.009l.009-.023-.024.009a3.443 3.443 0 0 1-1.008-2.446v-3.461h1.39v3.461c0 .268.05.521.14.752l.332.855.854.332c.232.09.484.14.752.14h3.529v1.39h-3.529Zm12.604 0v-1.39h-7.057v1.39h7.057Zm9.076 0v-1.39h-7.057v1.39h7.057Zm9.076 0v-1.39h-7.057v1.39h7.057Zm9.075 0v-1.39h-7.057v1.39h7.057Zm9.076 0v-1.39h-7.057v1.39h7.057Zm9.076 0v-1.39h-7.057v1.39h7.057Zm9.075 0v-1.39h-7.056v1.39h7.056Zm9.076 0v-1.39h-7.057v1.39h7.057Zm9.076 0v-1.39h-7.057v1.39h7.057Zm9.076 0v-1.39h-7.057v1.39h7.057Zm9.075 0v-1.39h-7.057v1.39h7.057Zm9.076 0v-1.39h-7.057v1.39h7.057Zm9.076 0v-1.39h-7.057v1.39h7.057Zm9.075 0v-1.39h-7.057v1.39h7.057Zm9.076 0v-1.39h-7.057v1.39h7.057Zm9.016-15.722h-1.391v6.923h1.391v-6.923Zm0-8.791h-1.391v6.923h1.391v-6.923Zm0-8.792h-1.391v6.923h1.391V273.4Zm0-8.791h-1.391v6.923h1.391v-6.923Zm0-8.792h-1.391v6.923h1.391v-6.923Zm0-8.791h-1.391v6.923h1.391v-6.923Zm0-8.791h-1.391v6.922h1.391v-6.922Zm0-8.792h-1.391v6.923h1.391v-6.923Zm0-8.791h-1.391v6.922h1.391v-6.922Zm-16.073-8.799v1.39h7.057v-1.39h-7.057Zm-9.076 0v1.39h7.057v-1.39h-7.057Zm-9.075 0v1.39h7.057v-1.39h-7.057Zm-9.076 0v1.39h7.057v-1.39h-7.057Zm-9.076 0v1.39h7.057v-1.39h-7.057Zm-9.075 0v1.39h7.056v-1.39h-7.056Zm-9.076 0v1.39h7.057v-1.39h-7.057Zm-9.076 0v1.39h7.057v-1.39h-7.057Zm-9.075 0v1.39h7.056v-1.39h-7.056Zm-9.076 0v1.39h7.057v-1.39h-7.057Zm-9.076 0v1.39h7.057v-1.39h-7.057Zm-9.076 0v1.39h7.057v-1.39h-7.057Zm-9.075 0v1.39h7.057v-1.39h-7.057Zm-9.076 0v1.39h7.057v-1.39h-7.057Zm-9.076 0v1.39h7.057v-1.39h-7.057Zm-9.015 15.721h1.39v-6.922h-1.39v6.922Zm0 8.792h1.39v-6.923h-1.39v6.923Zm0 8.791h1.39v-6.922h-1.39v6.922Zm0 8.792h1.39v-6.923h-1.39v6.923Zm0 8.791h1.39v-6.923h-1.39v6.923Zm0 8.792h1.39v-6.923h-1.39v6.923Zm0 8.791h1.39V273.4h-1.39v6.923Zm0 8.792h1.39v-6.923h-1.39v6.923Zm0 8.791h1.39v-6.923h-1.39v6.923Zm0-79.123v-3.461a3.439 3.439 0 0 1 .551-1.878c.132-.205.286-.395.457-.568l.024.009-.009-.023a3.484 3.484 0 0 1 1.19-.775 3.464 3.464 0 0 1 1.255-.234h3.529v1.39h-3.529c-.268 0-.52.05-.752.14l-.854.332-.332.855c-.09.231-.14.484-.14.752v3.461h-1.39Zm145.151-6.93h3.528a3.46 3.46 0 0 1 2.446 1.009l-.009.023.023-.009a3.521 3.521 0 0 1 .775 1.191c.151.389.234.812.234 1.255v3.461h-1.391v-3.461c0-.268-.049-.521-.139-.752l-.332-.855-.855-.332a2.065 2.065 0 0 0-.752-.14h-3.528v-1.39Zm6.997 87.922v3.461a3.46 3.46 0 0 1-1.009 2.446l-.023-.009.009.023a3.468 3.468 0 0 1-2.446 1.009h-3.528v-1.39h3.528c.268 0 .521-.05.752-.14l.855-.332.332-.855c.09-.231.139-.484.139-.752v-3.461h1.391Z" clip-rule="evenodd"/>
  <rect width="36.417" height="36.417" x="242.226" y="219.076" fill="#F23030" rx="4.552"/>
  <path fill="#fff" fill-rule="evenodd" d="m260.437 229.605-10.243-2.561 2.561 10.242-2.561 10.243 10.243-2.561 10.242 2.561-2.56-10.243 2.56-10.242-10.242 2.561Zm8.678-.997-8.678 2.17-8.679-2.17 2.17 8.678-2.17 8.679 8.679-2.17 8.678 2.17-2.169-8.679 2.169-8.678Z" clip-rule="evenodd"/>
  <rect width="36.417" height="36.417" x="242.226" y="263.854" fill="#FF8000" rx="4.552"/>
  <path fill="#fff" d="M256.356 281.46v-6.14h3.904c.576 0 1.131.038 1.664.115a3.963 3.963 0 0 1 1.409.459c.405.21.725.516.96.918.256.402.384.928.384 1.578s-.128 1.176-.384 1.578a2.552 2.552 0 0 1-.96.947c-.406.21-.875.353-1.409.43-.533.076-1.088.115-1.664.115h-3.904Zm-5.024-9.64v20.485h5.024v-7.345h5.28c1.43 0 2.646-.182 3.649-.545 1.002-.383 1.813-.88 2.432-1.492a5.345 5.345 0 0 0 1.376-2.094 6.972 6.972 0 0 0 .448-2.439 6.81 6.81 0 0 0-.448-2.439 5.345 5.345 0 0 0-1.376-2.094c-.619-.612-1.43-1.1-2.432-1.463-1.003-.383-2.219-.574-3.649-.574h-10.304Z"/>
  <rect width="36.417" height="36.417" x="287.003" y="263.854" fill="#FFB700" rx="4.552"/>
  <path fill="#fff" fill-rule="evenodd" d="m297.625 275.233 10.622 10.581 4.483-4.466 10.691 9.302v3.93l-10.553-9.095-4.621 4.604-10.622-10.581-10.622 10.538v-4.232l10.622-10.581Z" clip-rule="evenodd"/>
  <path fill="#fff" d="M320.007 271.819a4.552 4.552 0 1 1-9.104 0 4.552 4.552 0 0 1 9.104 0Z"/>
  <rect width="36.417" height="36.417" x="331.782" y="263.854" fill="#E667E6" rx="4.552"/>
  <path fill="#fff" fill-rule="evenodd" d="m349.99 294.581 9.104-14.46-1.138-6.025h-15.849l-1.221 6.025 9.104 14.46Zm0-2.136 7.903-12.552-.88-4.659h-13.975l-.946 4.666 7.898 12.545Z" clip-rule="evenodd"/>
  <path fill="#fff" fill-rule="evenodd" d="M349.422 292.873v-8.955h1.138v8.955h-1.138Zm-9.674-23.33 2.276 5.69h15.933l2.276-5.69h-20.485Zm1.674 1.133 1.369 3.424h14.398l1.37-3.424h-17.137Z" clip-rule="evenodd"/>
  <path fill="#fff" fill-rule="evenodd" d="M349.991 278.078a2.845 2.845 0 1 0 0 5.69 2.845 2.845 0 0 0 0-5.69Zm-3.983 2.845a3.983 3.983 0 1 1 7.965 0 3.983 3.983 0 0 1-7.965 0Z" clip-rule="evenodd"/>
  <rect width="36.417" height="36.417" x="331.782" y="219.076" fill="#0C4" rx="4.552"/>
  <path fill="#fff" d="m347.271 236.799-7.523 10.73h5.318l4.804-7.087 4.713 7.087h5.65l-7.523-10.702 6.919-9.783h-5.197l-4.381 6.541-4.23-6.541h-5.499l6.949 9.755Z"/>
  <rect width="36.417" height="36.417" x="287.003" y="219.076" fill="#3D99F5" rx="4.552"/>
  <path fill="#fff" d="m313.278 247.529 5.59-20.485h-4.484l-3.407 14.116h-.058l-3.552-14.116h-4.281l-3.611 13.943h-.058l-3.29-13.943h-4.572l5.504 20.485h4.629l3.466-13.944h.058l3.523 13.944h4.543Z"/>
  <mask id="a" width="114.756" height="138.752" x="372.368" y="87.857" fill="#000" maskUnits="userSpaceOnUse">
    <path fill="#fff" d="M372.368 87.857h114.756v138.752H372.368z"/>
    <path fill-rule="evenodd" d="M460.315 159.002a38.294 38.294 0 0 0 3.107-26.823c-2.812-11.23-10.479-20.519-21.014-25.464-7.99-3.736-17.035-4.57-25.535-2.441a40.056 40.056 0 0 0-7.801 2.811c-13.277 6.489-21.788 20.687-21.271 35.393.439 12.549 6.54 23.747 16.719 30.693 4.128 2.791 7.216 6.699 8.971 11.073.45 1.008.875 2.176 1.139 3.231l.777 3.103v-.001l-.002.006.776 3.102a9.583 9.583 0 0 0 8.655 7.246c3.098 7.017 10.897 11.145 18.554 9.228 7.658-1.918 12.592-9.236 12.015-16.886a9.583 9.583 0 0 0 4.208-10.464l-.777-3.102-.005-.003.007-.002-.776-3.102c-.21-.836-.325-1.791-.433-2.692-.029-.236-.057-.469-.086-.695-.452-4.701.431-9.603 2.772-14.211Z" clip-rule="evenodd"/>
  </mask>
  <path fill="#FFE484" fill-rule="evenodd" d="M460.315 159.002a38.294 38.294 0 0 0 3.107-26.823c-2.812-11.23-10.479-20.519-21.014-25.464-7.99-3.736-17.035-4.57-25.535-2.441a40.056 40.056 0 0 0-7.801 2.811c-13.277 6.489-21.788 20.687-21.271 35.393.439 12.549 6.54 23.747 16.719 30.693 4.128 2.791 7.216 6.699 8.971 11.073.45 1.008.875 2.176 1.139 3.231l.777 3.103v-.001l-.002.006.776 3.102a9.583 9.583 0 0 0 8.655 7.246c3.098 7.017 10.897 11.145 18.554 9.228 7.658-1.918 12.592-9.236 12.015-16.886a9.583 9.583 0 0 0 4.208-10.464l-.777-3.102-.005-.003.007-.002-.776-3.102c-.21-.836-.325-1.791-.433-2.692-.029-.236-.057-.469-.086-.695-.452-4.701.431-9.603 2.772-14.211Z" clip-rule="evenodd"/>
  <path fill="#fff" d="m460.315 159.002-4.474-2.31-.007.015-.008.015 4.489 2.28Zm-17.907-52.287 2.14-4.558-.007-.003-2.133 4.561Zm-25.535-2.441 1.223 4.884-1.223-4.884Zm-7.801 2.811-2.198-4.53-.007.004-.006.003 2.211 4.523Zm-21.271 35.393 5.032-.176v-.001l-5.032.177Zm16.719 30.693-2.837 4.159.009.006.009.006 2.819-4.171Zm8.971 11.073-4.672 1.875.036.089.039.088 4.597-2.052Zm1.139 3.231-4.884 1.223 4.884-1.223Zm.777 3.103-4.884 1.223 1.223 4.883 4.884-1.223-1.223-4.883Zm0-.001 4.423 2.405 5.478-10.074-11.124 2.786 1.223 4.883Zm-.002.006-4.423-2.405-.938 1.724.477 1.904 4.884-1.223Zm9.431 10.348 4.606-2.033-1.23-2.787-3.04-.203-.336 5.023Zm30.569-7.658-2.669-4.269-2.58 1.613.229 3.034 5.02-.378Zm3.431-13.566 4.884-1.223-.477-1.904-1.639-1.078-2.768 4.205Zm-.005-.003-1.223-4.884-11.123 2.785 9.579 6.304 2.767-4.205Zm.007-.002 1.223 4.884 4.884-1.223-1.223-4.884-4.884 1.223Zm-1.209-5.794 4.998-.602-4.998.602Zm-.086-.695-5.011.482.008.081.01.082 4.993-.645Zm.996-39.811a33.257 33.257 0 0 1-2.698 23.29l8.947 4.62a43.328 43.328 0 0 0 3.518-30.356l-9.767 2.446Zm-18.27-22.13c9.175 4.307 15.827 12.377 18.27 22.13l9.767-2.446c-3.182-12.707-11.863-23.215-23.758-28.799l-4.279 9.115Zm-22.173-2.114c7.389-1.85 15.248-1.123 22.18 2.118l4.265-9.122c-9.049-4.23-19.279-5.17-28.891-2.764l2.446 9.768Zm-6.827 2.456a35.018 35.018 0 0 1 6.827-2.456l-2.446-9.768a45.193 45.193 0 0 0-8.776 3.165l4.395 9.059Zm-18.436 30.687c-.448-12.718 6.956-25.075 18.449-30.693l-4.421-9.046c-15.06 7.361-24.679 23.398-24.091 40.093l10.063-.354Zm14.525 26.711c-8.827-6.023-14.141-15.726-14.525-26.71l-10.063.352c.494 14.115 7.381 26.807 18.913 34.676l5.675-8.318Zm10.806 13.357c-2.127-5.299-5.856-10.01-10.824-13.369l-5.639 8.342c3.288 2.223 5.734 5.328 7.118 8.777l9.345-3.75Zm1.35 3.883c-.349-1.394-.882-2.842-1.426-4.06l-9.194 4.104c.356.798.673 1.686.852 2.402l9.768-2.446Zm.777 3.103-.777-3.103-9.768 2.446.777 3.103 9.768-2.446Zm-6.107-3.661 2.446 9.767-2.446-9.767Zm-3.2 2.478-.002.006 8.845 4.81.003-.006-8.846-4.81Zm-.463 3.634.777 3.102 9.767-2.446-.777-3.102-9.767 2.446Zm.777 3.102c1.583 6.323 7.038 10.635 13.203 11.046l.671-10.046a4.55 4.55 0 0 1-4.107-3.446l-9.767 2.446Zm8.932 8.056c4.037 9.145 14.228 14.622 24.383 12.079l-2.446-9.768c-5.159 1.292-10.567-1.487-12.725-6.377l-9.212 4.066Zm24.383 12.079c10.156-2.543 16.564-12.179 15.812-22.149l-10.04.757c.402 5.331-3.058 10.332-8.218 11.624l2.446 9.768Zm13.46-17.501c5.233-3.272 8.005-9.639 6.424-15.956l-9.768 2.446a4.548 4.548 0 0 1-1.993 4.972l5.337 8.538Zm6.424-15.956-.777-3.102-9.767 2.446.776 3.102 9.768-2.446Zm-2.893-6.084-.005-.004-5.535 8.411.004.003 5.536-8.41Zm-3.989-.684-.007.002 2.446 9.767.007-.001-2.446-9.768Zm-4.437 3.005.777 3.102 9.767-2.446-.777-3.102-9.767 2.446Zm-.548-3.313c.1.826.247 2.112.548 3.313l9.767-2.446c-.118-.471-.2-1.096-.318-2.071l-9.997 1.204Zm-.08-.652c.026.2.051.411.08.652l9.997-1.204c-.028-.232-.058-.487-.091-.738l-9.986 1.29Zm3.276-17.136c-2.768 5.449-3.839 11.308-3.294 16.973l10.023-.964c-.36-3.736.335-7.682 2.248-11.449l-8.977-4.56Z" mask="url(#a)"/>
  <path fill="#604DBF" d="M454.965 190.557c2.144 8.562-3.013 17.458-11.575 19.602-8.563 2.144-17.304-3.272-19.448-11.834a3.166 3.166 0 0 1 2.326-3.879l24.818-6.215a3.167 3.167 0 0 1 3.879 2.326Z"/>
  <path fill="#B1A4F1" d="m458.836 179.707.777 3.102a9.581 9.581 0 0 1-6.976 11.638l-24.818 6.214a9.58 9.58 0 0 1-11.637-6.976l-.777-3.102 4.289-7.888 31.643-7.923 7.499 4.935Z"/>
  <path fill="#FFE484" d="M463.422 132.179a38.294 38.294 0 0 1-3.107 26.823c-2.341 4.608-3.224 9.51-2.772 14.211.14 1.085.254 2.332.519 3.387l.776 3.102-43.431 10.876-.777-3.103c-.264-1.055-.689-2.223-1.139-3.231-1.755-4.374-4.843-8.282-8.971-11.073-10.179-6.946-16.28-18.144-16.719-30.693-.517-14.706 7.994-28.904 21.271-35.393a40.056 40.056 0 0 1 7.801-2.811c8.5-2.129 17.545-1.295 25.535 2.441 10.535 4.945 18.202 14.234 21.014 25.464Z"/>
  <path fill="#FFB700" d="m426.297 156.829 2.442-.611a2.517 2.517 0 0 0-1.68-1.788l-.762 2.399Zm-12.444-12.923a2.518 2.518 0 0 0-4.372 2.497l4.372-2.497Zm21.97 40.601-7.084-28.289-4.883 1.223 7.083 28.289 4.884-1.223Zm-8.764-30.077c-2.899-.92-9.708-4.4-13.206-10.524l-4.372 2.497c4.351 7.617 12.47 11.688 16.055 12.825l1.523-4.798Zm6.51.575-2.442.612c-.2-.801.005-1.65.55-2.271l1.892 1.659Zm3.684-16.89a2.517 2.517 0 0 1 5.034-.002l-5.034.002Zm.958 45.791-7.084-28.289 4.884-1.223 7.084 28.289-4.884 1.223Zm-6.534-30.56c1.8-2.054 5.578-8.167 5.576-15.231l5.034-.002c.004 8.642-4.489 15.889-6.825 18.552l-3.785-3.319Z"/>
  <path stroke="#FFB700" stroke-linecap="round" stroke-linejoin="round" stroke-width="5.035" d="m411.418 144.375 6.41 1.562 3.427-4.026 6.409 1.563 3.129-3.951 6.708 1.488 2.83-3.877"/>
  <path stroke="#fff" stroke-linecap="round" stroke-width="5.035" d="M421.79 114.087c-8.973.697-25.932 10.68-21.489 33.067"/>
  <path fill="#FF8000" d="m400.798 87.353-3.204-11.14a5.792 5.792 0 0 1 3.967-7.172 5.792 5.792 0 0 1 7.172 3.968l3.205 11.14a5.794 5.794 0 0 1-3.968 7.172 5.792 5.792 0 0 1-7.172-3.968Zm34.172 4.424a5.773 5.773 0 0 1-.225-4.43l3.883-10.92a5.794 5.794 0 0 1 7.402-3.519 5.794 5.794 0 0 1 3.518 7.402l-3.883 10.92a5.794 5.794 0 0 1-10.695.547Zm-69.808 5.673a5.794 5.794 0 0 1 7.876-2.265l10.142 5.611a5.794 5.794 0 0 1 2.266 7.877 5.795 5.795 0 0 1-7.877 2.265l-10.141-5.611a5.793 5.793 0 0 1-2.266-7.876Z"/>
</svg>
