<?xml version="1.0" encoding="UTF-8"?>
<svg version="1.1" xmlns="http://www.w3.org/2000/svg" width="882" height="493">
<path d="M0 0 C0.91096862 -0.00297112 1.82193725 -0.00594224 2.76051098 -0.0090034 C5.80186232 -0.01764976 8.84317411 -0.01919518 11.88453674 -0.02069092 C14.06960636 -0.02532183 16.25467517 -0.03034685 18.43974304 -0.03573608 C24.36736228 -0.04883244 30.29497021 -0.05529919 36.22260165 -0.05974674 C39.92684566 -0.06268084 43.6310866 -0.0667862 47.33532906 -0.07125092 C58.92813936 -0.08491615 70.52094262 -0.09458859 82.11376041 -0.09845281 C84.09220143 -0.09911595 84.09220143 -0.09911595 86.11061096 -0.09979248 C87.10188611 -0.10012463 87.10188611 -0.10012463 88.11318702 -0.10046348 C98.1592313 -0.1041674 108.2052156 -0.11899596 118.25123596 -0.14080811 C129.92874504 -0.16607842 141.60620695 -0.1809846 153.28374439 -0.18249393 C159.46104773 -0.18354199 165.63825504 -0.18945088 171.81553459 -0.20731354 C177.62433394 -0.22378515 183.43296496 -0.22595406 189.24177933 -0.21717453 C191.37184284 -0.21640378 193.50191537 -0.22075187 195.6319561 -0.23063278 C198.54324916 -0.24334459 201.45394525 -0.23747954 204.36523438 -0.22705078 C205.20483828 -0.23510719 206.04444218 -0.24316359 206.90948862 -0.25146413 C212.4756482 -0.20493988 216.69888573 0.72364353 221.74610901 3.14044189 C222.07610901 4.13044189 222.40610901 5.12044189 222.74610901 6.14044189 C223.32360901 6.42919189 223.90110901 6.71794189 224.49610901 7.01544189 C227.53377038 8.53427258 229.40857251 10.68887922 231.74610901 13.14044189 C232.63298401 13.98606689 233.51985901 14.83169189 234.43360901 15.70294189 C236.74610901 18.14044189 236.74610901 18.14044189 237.80860901 20.32794189 C239.0436809 22.71574754 240.34986277 22.97655087 242.74610901 24.14044189 C247.33348765 28.29092733 247.33348765 28.29092733 248.80860901 31.32794189 C250.0436809 33.71574754 251.34986277 33.97655087 253.74610901 35.14044189 C258.33348765 39.29092733 258.33348765 39.29092733 259.80860901 42.32794189 C261.0436809 44.71574754 262.34986277 44.97655087 264.74610901 46.14044189 C269.33348765 50.29092733 269.33348765 50.29092733 270.80860901 53.32794189 C272.0436809 55.71574754 273.34986277 55.97655087 275.74610901 57.14044189 C277.45604334 58.76268729 279.11958585 60.43457614 280.74610901 62.14044189 C281.63298401 62.98606689 282.51985901 63.83169189 283.43360901 64.70294189 C285.74610901 67.14044189 285.74610901 67.14044189 286.80860901 69.32794189 C288.0436809 71.71574754 289.34986277 71.97655087 291.74610901 73.14044189 C296.33348765 77.29092733 296.33348765 77.29092733 297.80860901 80.32794189 C299.0436809 82.71574754 300.34986277 82.97655087 302.74610901 84.14044189 C307.33348765 88.29092733 307.33348765 88.29092733 308.80860901 91.32794189 C309.61313062 93.31936346 309.61313062 93.31936346 311.74610901 94.14044189 C313.74610901 95.14044189 313.74610901 95.14044189 314.99610901 96.89044189 C315.93862113 99.71797827 315.88065751 102.18037493 315.74610901 105.14044189 C316.40610901 105.14044189 317.06610901 105.14044189 317.74610901 105.14044189 C317.74610901 167.51044189 317.74610901 229.88044189 317.74610901 294.14044189 C319.06610901 294.80044189 320.38610901 295.46044189 321.74610901 296.14044189 C326.6737881 299.36238592 330.68189038 302.92319222 334.38282776 307.49200439 C335.86171102 309.34000053 335.86171102 309.34000053 338.24610901 311.57794189 C355.55735617 329.32197024 363.50959241 353.66782568 363.32252502 378.00079346 C363.30865556 380.50703041 363.34288379 383.00951683 363.38087463 385.51544189 C363.49335367 409.55735696 353.79881663 433.194898 337.74610901 451.14044189 C336.00320515 452.77839671 334.22021641 454.31045277 332.35939026 455.81231689 C330.53996136 457.26094326 330.53996136 457.26094326 328.30860901 459.64044189 C310.56458067 476.95168906 286.21872522 484.9039253 261.88575745 484.71685791 C259.37952049 484.70298844 256.87703407 484.73721668 254.37110901 484.77520752 C230.32919394 484.88768656 206.6916529 475.19314951 188.74610901 459.14044189 C187.1081542 457.39753803 185.57609813 455.6145493 184.07423401 453.75372314 C182.62560765 451.93429424 182.62560765 451.93429424 180.24610901 449.70294189 C174.99138608 444.31685089 171.11199768 438.25754423 167.37110901 431.76544189 C166.8339325 430.83647095 166.8339325 430.83647095 166.28590393 429.88873291 C163.74610901 425.39219918 163.74610901 425.39219918 163.74610901 423.14044189 C162.42115968 423.14320727 162.42115968 423.14320727 161.0694437 423.14602852 C139.56071231 423.19022843 118.05198875 423.22330864 96.54322147 423.24406624 C86.14167714 423.25437168 75.74016316 423.26841804 65.33863831 423.2913208 C56.2709609 423.31127706 47.20330547 423.32416365 38.13560671 423.32861888 C33.33590151 423.33122247 28.53625919 423.33732682 23.73657417 423.35190201 C19.21486875 423.36552123 14.69325185 423.36965577 10.17152786 423.36665726 C8.51598186 423.36720548 6.86043276 423.37115699 5.20490456 423.37885284 C-17.89213018 423.48091493 -17.89213018 423.48091493 -25.87889099 417.01544189 C-30.0954342 411.91120538 -31.7526566 406.79065005 -31.25389099 400.14044189 C-31.91389099 400.14044189 -32.57389099 400.14044189 -33.25389099 400.14044189 C-33.25389099 275.73044189 -33.25389099 151.32044189 -33.25389099 23.14044189 C-32.59389099 23.14044189 -31.93389099 23.14044189 -31.25389099 23.14044189 C-31.19781677 22.27032471 -31.19781677 22.27032471 -31.14060974 21.38262939 C-30.62500601 15.25604388 -29.42549533 10.85494732 -25.50389099 5.95294189 C-18.06480568 -0.03965461 -9.08482822 -0.00935082 0 0 Z " fill="#485678" transform="translate(519.2538909912109,8.85955810546875)"/>
<path d="M0 0 C0.91096862 -0.00297112 1.82193725 -0.00594224 2.76051098 -0.0090034 C5.80186232 -0.01764976 8.84317411 -0.01919518 11.88453674 -0.02069092 C14.06960636 -0.02532183 16.25467517 -0.03034685 18.43974304 -0.03573608 C24.36736228 -0.04883244 30.29497021 -0.05529919 36.22260165 -0.05974674 C39.92684566 -0.06268084 43.6310866 -0.0667862 47.33532906 -0.07125092 C58.92813936 -0.08491615 70.52094262 -0.09458859 82.11376041 -0.09845281 C84.09220143 -0.09911595 84.09220143 -0.09911595 86.11061096 -0.09979248 C87.10188611 -0.10012463 87.10188611 -0.10012463 88.11318702 -0.10046348 C98.1592313 -0.1041674 108.2052156 -0.11899596 118.25123596 -0.14080811 C129.92874504 -0.16607842 141.60620695 -0.1809846 153.28374439 -0.18249393 C159.46104773 -0.18354199 165.63825504 -0.18945088 171.81553459 -0.20731354 C177.62433394 -0.22378515 183.43296496 -0.22595406 189.24177933 -0.21717453 C191.37184284 -0.21640378 193.50191537 -0.22075187 195.6319561 -0.23063278 C198.54324916 -0.24334459 201.45394525 -0.23747954 204.36523438 -0.22705078 C205.20483828 -0.23510719 206.04444218 -0.24316359 206.90948862 -0.25146413 C212.4756482 -0.20493988 216.69888573 0.72364353 221.74610901 3.14044189 C222.07610901 4.13044189 222.40610901 5.12044189 222.74610901 6.14044189 C223.32360901 6.42919189 223.90110901 6.71794189 224.49610901 7.01544189 C227.53377038 8.53427258 229.40857251 10.68887922 231.74610901 13.14044189 C232.63298401 13.98606689 233.51985901 14.83169189 234.43360901 15.70294189 C236.74610901 18.14044189 236.74610901 18.14044189 237.80860901 20.32794189 C239.0436809 22.71574754 240.34986277 22.97655087 242.74610901 24.14044189 C247.33348765 28.29092733 247.33348765 28.29092733 248.80860901 31.32794189 C250.0436809 33.71574754 251.34986277 33.97655087 253.74610901 35.14044189 C258.33348765 39.29092733 258.33348765 39.29092733 259.80860901 42.32794189 C261.0436809 44.71574754 262.34986277 44.97655087 264.74610901 46.14044189 C269.33348765 50.29092733 269.33348765 50.29092733 270.80860901 53.32794189 C272.0436809 55.71574754 273.34986277 55.97655087 275.74610901 57.14044189 C277.45604334 58.76268729 279.11958585 60.43457614 280.74610901 62.14044189 C281.63298401 62.98606689 282.51985901 63.83169189 283.43360901 64.70294189 C285.74610901 67.14044189 285.74610901 67.14044189 286.80860901 69.32794189 C288.0436809 71.71574754 289.34986277 71.97655087 291.74610901 73.14044189 C296.33348765 77.29092733 296.33348765 77.29092733 297.80860901 80.32794189 C299.0436809 82.71574754 300.34986277 82.97655087 302.74610901 84.14044189 C307.33348765 88.29092733 307.33348765 88.29092733 308.80860901 91.32794189 C309.61313062 93.31936346 309.61313062 93.31936346 311.74610901 94.14044189 C313.74610901 95.14044189 313.74610901 95.14044189 314.99610901 96.89044189 C315.93862113 99.71797827 315.88065751 102.18037493 315.74610901 105.14044189 C316.40610901 105.14044189 317.06610901 105.14044189 317.74610901 105.14044189 C317.74610901 167.51044189 317.74610901 229.88044189 317.74610901 294.14044189 C319.06610901 294.80044189 320.38610901 295.46044189 321.74610901 296.14044189 C323.35581908 297.27043704 324.93874068 298.4393343 326.49610901 299.64044189 C327.29532776 300.24887939 328.09454651 300.85731689 328.91798401 301.48419189 C329.52126526 302.03075439 330.12454651 302.57731689 330.74610901 303.14044189 C330.74610901 303.80044189 330.74610901 304.46044189 330.74610901 305.14044189 C331.73610901 305.14044189 332.72610901 305.14044189 333.74610901 305.14044189 C333.82860901 305.75919189 333.91110901 306.37794189 333.99610901 307.01544189 C334.5586936 309.32481757 334.5586936 309.32481757 336.80860901 310.39044189 C337.44798401 310.63794189 338.08735901 310.88544189 338.74610901 311.14044189 C338.74610901 311.80044189 338.74610901 312.46044189 338.74610901 313.14044189 C339.40610901 313.14044189 340.06610901 313.14044189 340.74610901 313.14044189 C349.47329018 322.3144968 355.26513917 335.68944563 358.97731018 347.67437744 C359.46718272 349.24573424 359.980777 350.81002887 360.52516174 352.36334229 C363.36187733 361.23240952 363.29532873 369.98769962 363.24610901 379.20294189 C363.24496094 380.43725449 363.24496094 380.43725449 363.24378967 381.69650269 C363.20284407 393.86788124 362.37112259 404.75784363 357.74610901 416.14044189 C357.24530823 417.60610596 357.24530823 417.60610596 356.73439026 419.10137939 C354.89891098 424.25930852 352.33225585 428.56658393 349.19532776 433.03887939 C347.86639972 434.96600415 346.69429127 436.90784357 345.55860901 438.95294189 C344.08721421 441.54056723 342.7104455 443.90824133 340.74610901 446.14044189 C340.08610901 446.14044189 339.42610901 446.14044189 338.74610901 446.14044189 C338.08610901 447.46044189 337.42610901 448.78044189 336.74610901 450.14044189 C336.08610901 450.14044189 335.42610901 450.14044189 334.74610901 450.14044189 C334.41610901 451.46044189 334.08610901 452.78044189 333.74610901 454.14044189 C332.75610901 454.14044189 331.76610901 454.14044189 330.74610901 454.14044189 C330.40579651 455.01055908 330.40579651 455.01055908 330.05860901 455.89825439 C321.68935681 470.19572691 297.70029908 476.74407345 282.74610901 481.14044189 C282.17884094 481.32147461 281.61157288 481.50250732 281.02711487 481.68902588 C275.2477273 482.83277924 269.0764222 482.44917995 263.19776917 482.49053955 C261.50491905 482.50690024 259.81213201 482.53391746 258.11964417 482.5725708 C242.47361301 482.92697174 227.76528384 480.53392152 213.74610901 473.14044189 C212.68456604 472.60677002 212.68456604 472.60677002 211.60157776 472.06231689 C205.21325726 468.70593134 199.47641508 464.50762971 193.74610901 460.14044189 C192.34618713 459.09050049 192.34618713 459.09050049 190.91798401 458.01934814 C190.20126526 457.39930908 189.48454651 456.77927002 188.74610901 456.14044189 C188.74610901 455.48044189 188.74610901 454.82044189 188.74610901 454.14044189 C187.75610901 454.14044189 186.76610901 454.14044189 185.74610901 454.14044189 C185.66360901 453.52169189 185.58110901 452.90294189 185.49610901 452.26544189 C184.93352442 449.95606622 184.93352442 449.95606622 182.68360901 448.89044189 C181.72454651 448.51919189 181.72454651 448.51919189 180.74610901 448.14044189 C180.74610901 447.48044189 180.74610901 446.82044189 180.74610901 446.14044189 C180.08610901 446.14044189 179.42610901 446.14044189 178.74610901 446.14044189 C174.18122337 441.34181212 171.09499369 435.37527856 168.04298401 429.55841064 C166.71574287 426.99137541 166.71574287 426.99137541 164.74610901 424.14044189 C161.66557895 423.67998677 161.66557895 423.67998677 157.96044922 423.75517273 C157.25455235 423.74993703 156.54865548 423.74470134 155.8213678 423.73930699 C153.44381529 423.72528111 151.06680056 423.73266313 148.68922424 423.73980713 C146.98926306 423.73406781 145.28930594 423.72698637 143.58935547 423.71865845 C139.92141381 423.70351193 136.25361801 423.69777398 132.58564568 423.69918633 C126.78187821 423.7012161 120.97830722 423.68167694 115.17459106 423.65901184 C103.8926305 423.61796838 92.61068512 423.5994259 81.32866669 423.58283997 C66.99350445 423.56051457 52.65838754 423.52685731 38.32329899 423.47564083 C32.55872903 423.45575538 26.79426111 423.44614148 21.0296582 423.44468868 C17.43352656 423.44192908 13.83745071 423.43107783 10.24134254 423.41817856 C8.5793548 423.41391533 6.91735427 423.41302771 5.25536346 423.4158535 C-17.92941082 423.45073536 -17.92941082 423.45073536 -25.87889099 417.01544189 C-30.0954342 411.91120538 -31.7526566 406.79065005 -31.25389099 400.14044189 C-31.91389099 400.14044189 -32.57389099 400.14044189 -33.25389099 400.14044189 C-33.25389099 275.73044189 -33.25389099 151.32044189 -33.25389099 23.14044189 C-32.59389099 23.14044189 -31.93389099 23.14044189 -31.25389099 23.14044189 C-31.19781677 22.27032471 -31.19781677 22.27032471 -31.14060974 21.38262939 C-30.62500601 15.25604388 -29.42549533 10.85494732 -25.50389099 5.95294189 C-18.06480568 -0.03965461 -9.08482822 -0.00935082 0 0 Z " fill="#485678" transform="translate(78.25389099121094,8.85955810546875)"/>
<path d="M0 0 C1.72773634 1.13758219 3.48901343 2.14559089 5.30004883 3.14404297 C11.28759622 6.62770691 15.95393314 10.06598399 20.33911133 15.46044922 C21.84820299 17.33704687 21.84820299 17.33704687 24.23754883 19.58154297 C41.54879599 37.32557131 49.50103223 61.67142675 49.31396484 86.00439453 C49.30009538 88.51063149 49.33432361 91.01311791 49.37231445 93.51904297 C49.48479349 117.56095804 39.79025645 141.19849908 23.73754883 159.14404297 C21.99464497 160.78199778 20.21165623 162.31405385 18.35083008 163.81591797 C16.53140118 165.26454433 16.53140118 165.26454433 14.30004883 167.64404297 C-3.44397951 184.95529013 -27.78983496 192.90752637 -52.12280273 192.72045898 C-54.62903969 192.70658952 -57.13152611 192.74081775 -59.63745117 192.77880859 C-83.67936624 192.89128763 -107.31690728 183.19675059 -125.26245117 167.14404297 C-126.90040598 165.40113911 -128.43246205 163.61815037 -129.93432617 161.75732422 C-131.38295253 159.93789532 -131.38295253 159.93789532 -133.76245117 157.70654297 C-151.81863713 139.19895236 -157.89392112 113.7645824 -158.63745117 88.58154297 C-158.17325516 73.64990466 -155.25806856 59.79560256 -149.26245117 46.14404297 C-148.8834668 45.24685547 -148.50448242 44.34966797 -148.11401367 43.42529297 C-144.56627409 35.67562069 -139.39096829 28.90436099 -134.26245117 22.14404297 C-133.6978418 21.38994141 -133.13323242 20.63583984 -132.55151367 19.85888672 C-121.10715158 5.71319042 -104.06487795 -3.7648416 -87.26245117 -9.85595703 C-86.32143555 -10.20787109 -85.38041992 -10.55978516 -84.41088867 -10.92236328 C-57.31152056 -18.95803199 -23.82567511 -15.79968661 0 0 Z " fill="#576791" transform="translate(833.262451171875,300.85595703125)"/>
<path d="M0 0 C0.969375 0.2784375 1.93875 0.556875 2.9375 0.84375 C16.12295498 4.91160313 28.24612184 10.26359982 39 19 C39.92425781 19.69738281 40.84851563 20.39476562 41.80078125 21.11328125 C42.88939453 22.04720703 42.88939453 22.04720703 44 23 C44 23.66 44 24.32 44 25 C44.99 25 45.98 25 47 25 C47.0825 25.61875 47.165 26.2375 47.25 26.875 C47.81258459 29.18437567 47.81258459 29.18437567 50.0625 30.25 C50.701875 30.4975 51.34125 30.745 52 31 C52 31.66 52 32.32 52 33 C52.66 33 53.32 33 54 33 C62.72718117 42.17405491 68.51903016 55.54900374 72.23120117 67.53393555 C72.72107372 69.10529235 73.23466799 70.66958698 73.77905273 72.22290039 C76.61576832 81.09196762 76.54921972 89.84725773 76.5 99.0625 C76.49885193 100.29681259 76.49885193 100.29681259 76.49768066 101.55606079 C76.45673506 113.72743935 75.62501358 124.61740173 71 136 C70.49919922 137.46566406 70.49919922 137.46566406 69.98828125 138.9609375 C68.15280197 144.11886662 65.58614684 148.42614203 62.44921875 152.8984375 C61.12029071 154.82556225 59.94818226 156.76740168 58.8125 158.8125 C57.3411052 161.40012534 55.96433649 163.76779944 54 166 C53.34 166 52.68 166 52 166 C51.34 167.32 50.68 168.64 50 170 C49.34 170 48.68 170 48 170 C47.67 171.32 47.34 172.64 47 174 C46.01 174 45.02 174 44 174 C43.6596875 174.87011719 43.6596875 174.87011719 43.3125 175.7578125 C34.9432478 190.05528501 10.95419007 196.60363155 -4 201 C-4.8509021 201.27154907 -4.8509021 201.27154907 -5.71899414 201.54858398 C-11.49838171 202.69233734 -17.66968681 202.30873805 -23.54833984 202.35009766 C-25.24118996 202.36645835 -26.933977 202.39347556 -28.62646484 202.43212891 C-44.272496 202.78652985 -58.98082517 200.39347963 -73 193 C-74.06154297 192.46632813 -74.06154297 192.46632813 -75.14453125 191.921875 C-81.53285175 188.56548945 -87.26969393 184.36718781 -93 180 C-93.93328125 179.30003906 -94.8665625 178.60007812 -95.828125 177.87890625 C-96.54484375 177.25886719 -97.2615625 176.63882813 -98 176 C-98 175.34 -98 174.68 -98 174 C-98.99 174 -99.98 174 -101 174 C-101.12375 173.071875 -101.12375 173.071875 -101.25 172.125 C-101.81258459 169.81562433 -101.81258459 169.81562433 -104.0625 168.75 C-105.0215625 168.37875 -105.0215625 168.37875 -106 168 C-106 167.34 -106 166.68 -106 166 C-106.66 166 -107.32 166 -108 166 C-113.17380758 160.56126853 -116.63126543 153.63219619 -120 147 C-120.37125 146.28199219 -120.7425 145.56398438 -121.125 144.82421875 C-124.4695227 137.88694706 -126.23260405 130.46060062 -128 123 C-128.22945312 122.07960938 -128.45890625 121.15921875 -128.6953125 120.2109375 C-133.99205905 94.92083776 -129.08041785 66.69533771 -115 45 C-112.96422043 42.06816575 -110.87256475 39.18202127 -108.75 36.3125 C-108.21810059 35.59191406 -107.68620117 34.87132812 -107.13818359 34.12890625 C-106.63367676 33.46375 -106.12916992 32.79859375 -105.609375 32.11328125 C-105.15530273 31.51298096 -104.70123047 30.91268066 -104.23339844 30.29418945 C-103.82637695 29.86710693 -103.41935547 29.44002441 -103 29 C-102.34 29 -101.68 29 -101 29 C-100.79890625 28.44828125 -100.5978125 27.8965625 -100.390625 27.328125 C-98.44638615 24.07316333 -95.7111653 22.03061678 -92.75 19.75 C-92.12593262 19.26764893 -91.50186523 18.78529785 -90.85888672 18.28833008 C-65.39176184 -0.98624887 -31.13571934 -9.60570065 0 0 Z " fill="#56668F" transform="translate(365,289)"/>
<path d="M0 0 C0.91096862 -0.00297112 1.82193725 -0.00594224 2.76051098 -0.0090034 C5.80186232 -0.01764976 8.84317411 -0.01919518 11.88453674 -0.02069092 C14.06960636 -0.02532183 16.25467517 -0.03034685 18.43974304 -0.03573608 C24.36736228 -0.04883244 30.29497021 -0.05529919 36.22260165 -0.05974674 C39.92684566 -0.06268084 43.6310866 -0.0667862 47.33532906 -0.07125092 C58.92813936 -0.08491615 70.52094262 -0.09458859 82.11376041 -0.09845281 C84.09220143 -0.09911595 84.09220143 -0.09911595 86.11061096 -0.09979248 C87.10188611 -0.10012463 87.10188611 -0.10012463 88.11318702 -0.10046348 C98.1592313 -0.1041674 108.2052156 -0.11899596 118.25123596 -0.14080811 C129.92874504 -0.16607842 141.60620695 -0.1809846 153.28374439 -0.18249393 C159.46104773 -0.18354199 165.63825504 -0.18945088 171.81553459 -0.20731354 C177.62433394 -0.22378515 183.43296496 -0.22595406 189.24177933 -0.21717453 C191.37184284 -0.21640378 193.50191537 -0.22075187 195.6319561 -0.23063278 C198.54324916 -0.24334459 201.45394525 -0.23747954 204.36523438 -0.22705078 C205.20483828 -0.23510719 206.04444218 -0.24316359 206.90948862 -0.25146413 C212.4756482 -0.20493988 216.69888573 0.72364353 221.74610901 3.14044189 C222.07610901 4.13044189 222.40610901 5.12044189 222.74610901 6.14044189 C223.32360901 6.42919189 223.90110901 6.71794189 224.49610901 7.01544189 C227.53377038 8.53427258 229.40857251 10.68887922 231.74610901 13.14044189 C232.63298401 13.98606689 233.51985901 14.83169189 234.43360901 15.70294189 C236.74610901 18.14044189 236.74610901 18.14044189 237.80860901 20.32794189 C239.0436809 22.71574754 240.34986277 22.97655087 242.74610901 24.14044189 C247.33348765 28.29092733 247.33348765 28.29092733 248.80860901 31.32794189 C250.0436809 33.71574754 251.34986277 33.97655087 253.74610901 35.14044189 C258.33348765 39.29092733 258.33348765 39.29092733 259.80860901 42.32794189 C261.0436809 44.71574754 262.34986277 44.97655087 264.74610901 46.14044189 C269.33348765 50.29092733 269.33348765 50.29092733 270.80860901 53.32794189 C272.0436809 55.71574754 273.34986277 55.97655087 275.74610901 57.14044189 C277.45604334 58.76268729 279.11958585 60.43457614 280.74610901 62.14044189 C281.63298401 62.98606689 282.51985901 63.83169189 283.43360901 64.70294189 C285.74610901 67.14044189 285.74610901 67.14044189 286.80860901 69.32794189 C288.0436809 71.71574754 289.34986277 71.97655087 291.74610901 73.14044189 C296.33348765 77.29092733 296.33348765 77.29092733 297.80860901 80.32794189 C299.0436809 82.71574754 300.34986277 82.97655087 302.74610901 84.14044189 C307.33348765 88.29092733 307.33348765 88.29092733 308.80860901 91.32794189 C309.61313062 93.31936346 309.61313062 93.31936346 311.74610901 94.14044189 C313.74610901 95.14044189 313.74610901 95.14044189 314.99610901 96.89044189 C315.93862113 99.71797827 315.88065751 102.18037493 315.74610901 105.14044189 C316.40610901 105.14044189 317.06610901 105.14044189 317.74610901 105.14044189 C317.74610901 167.18044189 317.74610901 229.22044189 317.74610901 293.14044189 C314.43528813 291.81611354 311.18355178 290.47064015 307.93360901 289.01544189 C307.1434137 288.66223877 306.35321838 288.30903564 305.53907776 287.94512939 C304.94739807 287.67958252 304.35571838 287.41403564 303.74610901 287.14044189 C303.74556424 286.18130292 303.74501947 285.22216394 303.7444582 284.23396015 C303.73006948 260.90727042 303.68708068 237.58076744 303.61401844 214.25418568 C303.57934987 202.97365464 303.55401046 191.69324603 303.55055237 180.41265869 C303.54751508 170.5816874 303.52705623 160.75093407 303.48558444 150.92004699 C303.46423146 145.7135193 303.45166567 140.50730164 303.45995522 135.30072975 C303.46748075 130.40125515 303.45173356 125.50240951 303.41804886 120.60305023 C303.4097975 118.80394278 303.41008688 117.004773 303.4195118 115.20567131 C303.43110366 112.75002244 303.41206424 110.29644522 303.38534546 107.84095764 C303.39601872 107.12791452 303.40669198 106.41487139 303.41768867 105.6802209 C303.33979146 101.84669754 302.86971206 100.28716985 300.36631298 97.31540966 C299.06931201 96.23880062 299.06931201 96.23880062 297.74610901 95.14044189 C295.30691645 92.76074184 293.0018928 90.47560686 290.93360901 87.76544189 C289.04261646 85.49625084 287.23653427 83.7858504 284.99610901 81.89044189 C281.97810192 79.31954697 279.33782495 76.64030208 276.74610901 73.64044189 C273.58286568 69.98624331 270.24151418 66.81696698 266.55860901 63.69512939 C264.15589967 61.63418475 261.95357121 59.40756523 259.74610901 57.14044189 C258.90048401 56.31544189 258.05485901 55.49044189 257.18360901 54.64044189 C254.74610901 52.14044189 254.74610901 52.14044189 252.93360901 49.76544189 C251.04261646 47.49625084 249.23653427 45.7858504 246.99610901 43.89044189 C243.97810192 41.31954697 241.33782495 38.64030208 238.74610901 35.64044189 C235.58286568 31.98624331 232.24151418 28.81696698 228.55860901 25.69512939 C226.15589967 23.63418475 223.95357121 21.40756523 221.74610901 19.14044189 C220.90048401 18.31544189 220.05485901 17.49044189 219.18360901 16.64044189 C216.74610901 14.14044189 216.74610901 14.14044189 214.62110901 11.45294189 C212.78049827 8.94890521 212.78049827 8.94890521 209.74610901 7.14044189 C209.74610901 6.48044189 209.74610901 5.82044189 209.74610901 5.14044189 C138.13610901 5.14044189 66.52610901 5.14044189 -7.25389099 5.14044189 C-7.25389099 5.80044189 -7.25389099 6.46044189 -7.25389099 7.14044189 C-8.33670349 7.44981689 -8.33670349 7.44981689 -9.44139099 7.76544189 C-13.23845099 9.62178234 -14.75202179 11.73511992 -17.25389099 15.14044189 C-18.34977354 18.42808955 -18.38148497 20.84036729 -18.38531876 24.30248737 C-18.3891599 25.60058348 -18.39300105 26.89867959 -18.39695859 28.23611194 C-18.3961783 29.68520444 -18.3952995 31.13429689 -18.39433289 32.58338928 C-18.3969157 34.11612879 -18.39992862 35.64886762 -18.40333629 37.18160552 C-18.41141937 41.40463262 -18.41319658 45.62764274 -18.41393375 49.85067666 C-18.41578203 54.40088809 -18.42332819 58.95109067 -18.43006897 63.501297 C-18.44366187 73.45574899 -18.44967843 83.41019696 -18.45407963 93.36465669 C-18.4568403 99.57748834 -18.46107732 105.79031843 -18.4655838 112.00314903 C-18.47777747 129.19686314 -18.48807675 146.39057599 -18.49145889 163.58429432 C-18.49167846 164.68513097 -18.49189802 165.78596762 -18.49212424 166.92016296 C-18.49234252 168.02366655 -18.4925608 169.12717015 -18.49278569 170.26411325 C-18.49322916 172.50031459 -18.49367573 174.73651594 -18.49412537 176.97271729 C-18.4943468 178.08195561 -18.49456823 179.19119394 -18.49479637 180.33404555 C-18.49874554 198.31323023 -18.51620276 216.2923744 -18.53948489 234.27154342 C-18.56318268 252.72025144 -18.57566002 271.16893912 -18.57682681 289.61766261 C-18.57774443 299.98008885 -18.58351863 310.34246231 -18.60164642 320.70487404 C-18.61702617 329.52764729 -18.62218045 338.35035146 -18.61390832 347.17313556 C-18.60999433 351.67611929 -18.61096784 356.17896382 -18.62496567 360.68193054 C-18.63765971 364.80309828 -18.63654685 368.92402157 -18.62437496 373.04518875 C-18.62241013 374.5371229 -18.62553247 376.02907411 -18.63421932 377.52098427 C-18.64527361 379.54758563 -18.63605431 381.57426729 -18.62582779 383.60087299 C-18.62642488 384.72701616 -18.62702197 385.85315932 -18.62763715 387.01342803 C-18.11833503 391.27459499 -16.5207535 394.52807143 -13.87889099 397.89044189 C-11.81720256 399.47635608 -9.69682027 400.28211539 -7.25389099 401.14044189 C-7.25389099 401.80044189 -7.25389099 402.46044189 -7.25389099 403.14044189 C47.85610901 403.14044189 102.96610901 403.14044189 159.74610901 403.14044189 C163.74610901 418.14044189 163.74610901 418.14044189 164.74610901 423.14044189 C142.21477291 423.18719557 119.68344484 423.22244726 97.15207005 423.24406624 C86.68999165 423.25437182 76.22794343 423.26841845 65.7658844 423.2913208 C56.64546928 423.31127664 47.52507601 423.32416355 38.40463966 423.32861888 C33.57698895 423.33122254 28.74940075 423.33732736 23.9217701 423.35190201 C19.37379998 423.36552056 14.82591788 423.36965591 10.27792931 423.36665726 C8.61270799 423.36720551 6.94748359 423.37115742 5.28227997 423.37885284 C-17.89244748 423.48065807 -17.89244748 423.48065807 -25.87889099 417.01544189 C-30.0954342 411.91120538 -31.7526566 406.79065005 -31.25389099 400.14044189 C-31.91389099 400.14044189 -32.57389099 400.14044189 -33.25389099 400.14044189 C-33.25389099 275.73044189 -33.25389099 151.32044189 -33.25389099 23.14044189 C-32.59389099 23.14044189 -31.93389099 23.14044189 -31.25389099 23.14044189 C-31.19781677 22.27032471 -31.19781677 22.27032471 -31.14060974 21.38262939 C-30.62500601 15.25604388 -29.42549533 10.85494732 -25.50389099 5.95294189 C-18.06480568 -0.03965461 -9.08482822 -0.00935082 0 0 Z " fill="#000101" transform="translate(78.25389099121094,8.85955810546875)"/>
<path d="M0 0 C0.91096862 -0.00297112 1.82193725 -0.00594224 2.76051098 -0.0090034 C5.80186232 -0.01764976 8.84317411 -0.01919518 11.88453674 -0.02069092 C14.06960636 -0.02532183 16.25467517 -0.03034685 18.43974304 -0.03573608 C24.36736228 -0.04883244 30.29497021 -0.05529919 36.22260165 -0.05974674 C39.92684566 -0.06268084 43.6310866 -0.0667862 47.33532906 -0.07125092 C58.92813936 -0.08491615 70.52094262 -0.09458859 82.11376041 -0.09845281 C84.09220143 -0.09911595 84.09220143 -0.09911595 86.11061096 -0.09979248 C87.10188611 -0.10012463 87.10188611 -0.10012463 88.11318702 -0.10046348 C98.1592313 -0.1041674 108.2052156 -0.11899596 118.25123596 -0.14080811 C129.92874504 -0.16607842 141.60620695 -0.1809846 153.28374439 -0.18249393 C159.46104773 -0.18354199 165.63825504 -0.18945088 171.81553459 -0.20731354 C177.62433394 -0.22378515 183.43296496 -0.22595406 189.24177933 -0.21717453 C191.37184284 -0.21640378 193.50191537 -0.22075187 195.6319561 -0.23063278 C198.54324916 -0.24334459 201.45394525 -0.23747954 204.36523438 -0.22705078 C205.20483828 -0.23510719 206.04444218 -0.24316359 206.90948862 -0.25146413 C212.4756482 -0.20493988 216.69888573 0.72364353 221.74610901 3.14044189 C222.07610901 4.13044189 222.40610901 5.12044189 222.74610901 6.14044189 C223.32360901 6.42919189 223.90110901 6.71794189 224.49610901 7.01544189 C227.53377038 8.53427258 229.40857251 10.68887922 231.74610901 13.14044189 C232.63298401 13.98606689 233.51985901 14.83169189 234.43360901 15.70294189 C236.74610901 18.14044189 236.74610901 18.14044189 237.80860901 20.32794189 C239.0436809 22.71574754 240.34986277 22.97655087 242.74610901 24.14044189 C247.33348765 28.29092733 247.33348765 28.29092733 248.80860901 31.32794189 C250.0436809 33.71574754 251.34986277 33.97655087 253.74610901 35.14044189 C258.33348765 39.29092733 258.33348765 39.29092733 259.80860901 42.32794189 C261.0436809 44.71574754 262.34986277 44.97655087 264.74610901 46.14044189 C269.33348765 50.29092733 269.33348765 50.29092733 270.80860901 53.32794189 C272.0436809 55.71574754 273.34986277 55.97655087 275.74610901 57.14044189 C277.45604334 58.76268729 279.11958585 60.43457614 280.74610901 62.14044189 C281.63298401 62.98606689 282.51985901 63.83169189 283.43360901 64.70294189 C285.74610901 67.14044189 285.74610901 67.14044189 286.80860901 69.32794189 C288.0436809 71.71574754 289.34986277 71.97655087 291.74610901 73.14044189 C296.33348765 77.29092733 296.33348765 77.29092733 297.80860901 80.32794189 C299.0436809 82.71574754 300.34986277 82.97655087 302.74610901 84.14044189 C307.33348765 88.29092733 307.33348765 88.29092733 308.80860901 91.32794189 C309.61313062 93.31936346 309.61313062 93.31936346 311.74610901 94.14044189 C313.74610901 95.14044189 313.74610901 95.14044189 314.99610901 96.89044189 C315.93862113 99.71797827 315.88065751 102.18037493 315.74610901 105.14044189 C316.40610901 105.14044189 317.06610901 105.14044189 317.74610901 105.14044189 C317.74610901 167.51044189 317.74610901 229.88044189 317.74610901 294.14044189 C319.06610901 294.80044189 320.38610901 295.46044189 321.74610901 296.14044189 C318.10450251 296.14044189 316.74151201 294.82294937 313.95314026 292.62481689 C311.88364537 291.23294423 309.84115601 290.15039873 307.60816956 289.04766846 C306.88558456 288.68981262 306.16299957 288.33195679 305.41851807 287.96325684 C304.86662308 287.69172791 304.31472809 287.42019897 303.74610901 287.14044189 C303.74556424 286.18130292 303.74501947 285.22216394 303.7444582 284.23396015 C303.73006948 260.90727042 303.68708068 237.58076744 303.61401844 214.25418568 C303.57934987 202.97365464 303.55401046 191.69324603 303.55055237 180.41265869 C303.54751508 170.5816874 303.52705623 160.75093407 303.48558444 150.92004699 C303.46423146 145.7135193 303.45166567 140.50730164 303.45995522 135.30072975 C303.46748075 130.40125515 303.45173356 125.50240951 303.41804886 120.60305023 C303.4097975 118.80394278 303.41008688 117.004773 303.4195118 115.20567131 C303.43110366 112.75002244 303.41206424 110.29644522 303.38534546 107.84095764 C303.39601872 107.12791452 303.40669198 106.41487139 303.41768867 105.6802209 C303.33979146 101.84669754 302.86971206 100.28716985 300.36631298 97.31540966 C299.06931201 96.23880062 299.06931201 96.23880062 297.74610901 95.14044189 C295.30691645 92.76074184 293.0018928 90.47560686 290.93360901 87.76544189 C289.04261646 85.49625084 287.23653427 83.7858504 284.99610901 81.89044189 C281.97810192 79.31954697 279.33782495 76.64030208 276.74610901 73.64044189 C273.58286568 69.98624331 270.24151418 66.81696698 266.55860901 63.69512939 C264.15589967 61.63418475 261.95357121 59.40756523 259.74610901 57.14044189 C258.90048401 56.31544189 258.05485901 55.49044189 257.18360901 54.64044189 C254.74610901 52.14044189 254.74610901 52.14044189 252.93360901 49.76544189 C251.04261646 47.49625084 249.23653427 45.7858504 246.99610901 43.89044189 C243.97810192 41.31954697 241.33782495 38.64030208 238.74610901 35.64044189 C235.58286568 31.98624331 232.24151418 28.81696698 228.55860901 25.69512939 C226.15589967 23.63418475 223.95357121 21.40756523 221.74610901 19.14044189 C220.90048401 18.31544189 220.05485901 17.49044189 219.18360901 16.64044189 C216.74610901 14.14044189 216.74610901 14.14044189 214.62110901 11.45294189 C212.78049827 8.94890521 212.78049827 8.94890521 209.74610901 7.14044189 C209.74610901 6.48044189 209.74610901 5.82044189 209.74610901 5.14044189 C138.13610901 5.14044189 66.52610901 5.14044189 -7.25389099 5.14044189 C-7.25389099 5.80044189 -7.25389099 6.46044189 -7.25389099 7.14044189 C-8.33670349 7.44981689 -8.33670349 7.44981689 -9.44139099 7.76544189 C-13.23845099 9.62178234 -14.75202179 11.73511992 -17.25389099 15.14044189 C-18.34977354 18.42808955 -18.38148497 20.84036729 -18.38531876 24.30248737 C-18.3891599 25.60058348 -18.39300105 26.89867959 -18.39695859 28.23611194 C-18.3961783 29.68520444 -18.3952995 31.13429689 -18.39433289 32.58338928 C-18.3969157 34.11612879 -18.39992862 35.64886762 -18.40333629 37.18160552 C-18.41141937 41.40463262 -18.41319658 45.62764274 -18.41393375 49.85067666 C-18.41578203 54.40088809 -18.42332819 58.95109067 -18.43006897 63.501297 C-18.44366187 73.45574899 -18.44967843 83.41019696 -18.45407963 93.36465669 C-18.4568403 99.57748834 -18.46107732 105.79031843 -18.4655838 112.00314903 C-18.47777747 129.19686314 -18.48807675 146.39057599 -18.49145889 163.58429432 C-18.49167846 164.68513097 -18.49189802 165.78596762 -18.49212424 166.92016296 C-18.49234252 168.02366655 -18.4925608 169.12717015 -18.49278569 170.26411325 C-18.49322916 172.50031459 -18.49367573 174.73651594 -18.49412537 176.97271729 C-18.4943468 178.08195561 -18.49456823 179.19119394 -18.49479637 180.33404555 C-18.49874554 198.31323023 -18.51620276 216.2923744 -18.53948489 234.27154342 C-18.56318268 252.72025144 -18.57566002 271.16893912 -18.57682681 289.61766261 C-18.57774443 299.98008885 -18.58351863 310.34246231 -18.60164642 320.70487404 C-18.61702617 329.52764729 -18.62218045 338.35035146 -18.61390832 347.17313556 C-18.60999433 351.67611929 -18.61096784 356.17896382 -18.62496567 360.68193054 C-18.63765971 364.80309828 -18.63654685 368.92402157 -18.62437496 373.04518875 C-18.62241013 374.5371229 -18.62553247 376.02907411 -18.63421932 377.52098427 C-18.64527361 379.54758563 -18.63605431 381.57426729 -18.62582779 383.60087299 C-18.62642488 384.72701616 -18.62702197 385.85315932 -18.62763715 387.01342803 C-18.11833503 391.27459499 -16.5207535 394.52807143 -13.87889099 397.89044189 C-11.81720256 399.47635608 -9.69682027 400.28211539 -7.25389099 401.14044189 C-7.25389099 401.80044189 -7.25389099 402.46044189 -7.25389099 403.14044189 C47.19610901 403.14044189 101.64610901 403.14044189 157.74610901 403.14044189 C161.27552077 412.5522066 161.27552077 412.5522066 162.43360901 415.95294189 C162.81065979 417.04542236 162.81065979 417.04542236 163.19532776 418.15997314 C163.74610901 420.14044189 163.74610901 420.14044189 163.74610901 423.14044189 C141.34515678 423.18719623 118.94421262 423.22244758 96.54322147 423.24406624 C86.14167714 423.25437168 75.74016316 423.26841804 65.33863831 423.2913208 C56.2709609 423.31127706 47.20330547 423.32416365 38.13560671 423.32861888 C33.33590151 423.33122247 28.53625919 423.33732682 23.73657417 423.35190201 C19.21486875 423.36552123 14.69325185 423.36965577 10.17152786 423.36665726 C8.51598186 423.36720548 6.86043276 423.37115699 5.20490456 423.37885284 C-17.89213018 423.48091493 -17.89213018 423.48091493 -25.87889099 417.01544189 C-30.0954342 411.91120538 -31.7526566 406.79065005 -31.25389099 400.14044189 C-31.91389099 400.14044189 -32.57389099 400.14044189 -33.25389099 400.14044189 C-33.25389099 275.73044189 -33.25389099 151.32044189 -33.25389099 23.14044189 C-32.59389099 23.14044189 -31.93389099 23.14044189 -31.25389099 23.14044189 C-31.19781677 22.27032471 -31.19781677 22.27032471 -31.14060974 21.38262939 C-30.62500601 15.25604388 -29.42549533 10.85494732 -25.50389099 5.95294189 C-18.06480568 -0.03965461 -9.08482822 -0.00935082 0 0 Z " fill="#010101" transform="translate(519.2538909912109,8.85955810546875)"/>
<path d="M0 0 C5.75127235 4.82659782 9.11156596 9.51432843 11.1875 16.75 C11.41455078 20.09326172 11.41455078 20.09326172 11.3828125 23.6796875 C11.37636719 24.96875 11.36992187 26.2578125 11.36328125 27.5859375 C11.34657463 28.93229442 11.32964479 30.27864859 11.3125 31.625 C11.30245664 32.99478517 11.29333317 34.36457742 11.28515625 35.734375 C11.26164412 39.07309756 11.2287793 42.41145761 11.1875 45.75 C13.4975 45.75 15.8075 45.75 18.1875 45.75 C18.1875 69.18 18.1875 92.61 18.1875 116.75 C-8.2125 116.75 -34.6125 116.75 -61.8125 116.75 C-61.8125 93.32 -61.8125 69.89 -61.8125 45.75 C-59.5025 45.75 -57.1925 45.75 -54.8125 45.75 C-54.83344727 44.91863525 -54.85439453 44.08727051 -54.87597656 43.23071289 C-54.9447107 40.10526734 -54.9945689 36.98021079 -55.03222656 33.85424805 C-55.06190781 31.85243949 -55.11277058 29.85098081 -55.1640625 27.84960938 C-55.2743666 16.90192774 -53.30348801 9.60498389 -45.8046875 1.54296875 C-33.59936773 -9.44181905 -13.06045531 -9.55905035 0 0 Z " fill="#97B5FD" transform="translate(359.8125,333.25)"/>
<path d="M0 0 C2.75187312 1.27604159 4.94516965 2.64472937 7.21484375 4.65234375 C8.11033936 5.43762451 8.11033936 5.43762451 9.02392578 6.23876953 C9.65540527 6.79935059 10.28688477 7.35993164 10.9375 7.9375 C12.28720157 9.12173098 13.63747171 10.30531424 14.98828125 11.48828125 C16.00075928 12.37700928 16.00075928 12.37700928 17.03369141 13.28369141 C19.87202917 15.76115782 22.74407607 18.19730484 25.625 20.625 C26.15134033 21.06884033 26.67768066 21.51268066 27.2199707 21.9699707 C28.27928967 22.86299462 29.33877788 23.75581782 30.3984375 24.6484375 C32.03928736 26.0331547 33.67638805 27.42218891 35.3125 28.8125 C40.31946389 33.06514124 45.33897129 37.29447886 50.4375 41.4375 C55.47972014 45.53662447 60.41079406 49.75648241 65.31811523 54.01538086 C67.81145851 56.17045097 70.25388434 58.16925623 73 60 C72.02862737 74.08490309 67.57227875 88.3174502 59.44921875 99.8984375 C58.12029071 101.82556225 56.94818226 103.76740168 55.8125 105.8125 C54.3411052 108.40012534 52.96433649 110.76779944 51 113 C50.34 113 49.68 113 49 113 C48.01 114.98 48.01 114.98 47 117 C46.34 117 45.68 117 45 117 C44.505 118.98 44.505 118.98 44 121 C43.01 121 42.02 121 41 121 C40.773125 121.58007812 40.54625 122.16015625 40.3125 122.7578125 C31.63717246 137.57816371 6.39978926 144.22820747 -9.109375 148.59375 C-14.57344692 149.7678481 -20.65326665 151.04560047 -25.69677734 147.96289062 C-29.24855216 145.13150817 -32.34291782 141.84433794 -35.46533203 138.55566406 C-37.67627831 136.31446939 -40.09314773 134.38605631 -42.5625 132.4375 C-47.63970598 128.35945263 -52.41432934 124.02139686 -57.18359375 119.59375 C-60.28630473 116.73632963 -63.45768319 113.97294396 -66.671875 111.2421875 C-67.11015625 110.83226562 -67.5484375 110.42234375 -68 110 C-68 109.67 -68 109.34 -68 109 C-42.26 109 -16.52 109 10 109 C10 85.24 10 61.48 10 37 C7.69 37 5.38 37 3 37 C2.970271 35.74509766 2.970271 35.74509766 2.93994141 34.46484375 C2.86129893 31.32609654 2.77458997 28.18769914 2.68261719 25.04931641 C2.62603877 23.03694667 2.57855912 21.02432773 2.53125 19.01171875 C2.33132519 12.38087924 1.99068784 6.34430597 0 0 Z " fill="#414E6D" transform="translate(368,342)"/>
<path d="M0 0 C4.56707278 3.81860698 8.90593953 7.7693498 13.0871582 12.00537109 C13.93243324 12.85524597 13.93243324 12.85524597 14.79478455 13.72229004 C16.00440994 14.93900965 17.21290114 16.15685774 18.4203434 17.37574387 C20.32996081 19.30288483 22.24321594 21.22634575 24.15751648 23.14883423 C29.59474916 28.61042037 35.02616265 34.07776764 40.45336914 39.54931641 C43.78345816 42.90610627 47.11833618 46.2580752 50.45625877 49.60707474 C51.72645885 50.88349604 52.99475661 52.16181325 54.26113319 53.44202805 C56.02287715 55.22287605 57.79059197 56.99758225 59.55981445 58.77099609 C60.08396942 59.30391266 60.60812439 59.83682922 61.14816284 60.38589478 C63.60533717 63.16765689 63.60533717 63.16765689 67 64 C66.36855629 67.01150079 65.70487779 70.00539182 65 73 C64.82855469 73.74636719 64.65710938 74.49273437 64.48046875 75.26171875 C60.58358317 90.06988396 52.07597052 104.50697529 41 115 C40.14256778 116.08075057 39.28873761 117.16436363 38.4375 118.25 C28.83283083 129.51654577 12.95766682 138.40893191 -1 143 C-2.09441406 143.37125 -3.18882812 143.7425 -4.31640625 144.125 C-8.17980928 145.30491524 -12.03788133 146.23591681 -16 147 C-16.7125293 147.14711426 -17.42505859 147.29422852 -18.15917969 147.44580078 C-24.61433774 148.62063384 -30.73906645 149.22692995 -36.37451172 145.37841797 C-41.13464225 141.28668543 -45.24082853 136.67562896 -49.30322266 131.90429688 C-51.33177041 129.62765335 -53.57261174 127.8378216 -56 126 C-57.6875236 124.3544546 -59.35169378 122.68482704 -61 121 C-62.18197114 119.82648843 -63.36568575 118.65473129 -64.55078125 117.484375 C-65.80472568 116.23962179 -67.0586313 114.99482949 -68.3125 113.75 C-69.28026367 112.79480469 -69.28026367 112.79480469 -70.26757812 111.8203125 C-70.87666016 111.21445312 -71.48574219 110.60859375 -72.11328125 109.984375 C-72.66798096 109.43491211 -73.22268066 108.88544922 -73.79418945 108.31933594 C-75 107 -75 107 -75 106 C-48.93 106 -22.86 106 4 106 C4 82.57 4 59.14 4 35 C2.02 35 0.04 35 -2 35 C-1.23909091 27.64454545 -1.23909091 27.64454545 0.02734375 24.23046875 C1.17731973 20.41107062 1.25748948 16.88269657 1.1875 12.9375 C1.18685547 12.24333984 1.18621094 11.54917969 1.18554688 10.83398438 C1.15367563 7.10504911 0.88337649 3.62537712 0 0 Z " fill="#39445F" transform="translate(814,346)"/>
<path d="M0 0 C6.43921854 5.54618823 10.52746581 12.5417179 11.7578125 20.96875 C12.23887358 30.14909203 10.20434378 38.44294634 7.1875 47.0625 C9.1675 47.0625 11.1475 47.0625 13.1875 47.0625 C13.1875 70.4925 13.1875 93.9225 13.1875 118.0625 C-13.2125 118.0625 -39.6125 118.0625 -66.8125 118.0625 C-66.8125 94.6325 -66.8125 71.2025 -66.8125 47.0625 C-47.3425 47.0625 -27.8725 47.0625 -7.8125 47.0625 C-7.1525 44.0925 -6.4925 41.1225 -5.8125 38.0625 C-5.44125 36.7425 -5.07 35.4225 -4.6875 34.0625 C-3.29687649 28.477756 -3.11335011 23.33473714 -4.8125 17.8125 C-8.09487759 13.29923081 -12.56569164 10.81143612 -17.8125 9.0625 C-27.31789343 8.3437802 -27.31789343 8.3437802 -35.8125 12.0625 C-42.08450684 18.15530664 -43.22387611 27.43041596 -44.96875 35.65625 C-45.2471875 36.4503125 -45.525625 37.244375 -45.8125 38.0625 C-49.44445496 39.27315165 -50.87781629 38.69034815 -54.5 37.625 C-55.99080078 37.19380859 -55.99080078 37.19380859 -57.51171875 36.75390625 C-58.27097656 36.52574219 -59.03023437 36.29757812 -59.8125 36.0625 C-58.27994343 21.13673171 -53.90444241 7.58447003 -42.11328125 -2.23828125 C-29.91781527 -11.24511945 -11.94254611 -8.09595874 0 0 Z " fill="#88A3E3" transform="translate(804.8125,333.9375)"/>
<path d="M0 0 C72.93 0 145.86 0 221 0 C221 7.26 221 14.52 221 22 C148.07 22 75.14 22 0 22 C0 14.74 0 7.48 0 0 Z " fill="#98B6FE" transform="translate(551,246)"/>
<path d="M0 0 C72.93 0 145.86 0 221 0 C221 7.26 221 14.52 221 22 C148.07 22 75.14 22 0 22 C0 14.74 0 7.48 0 0 Z " fill="#98B6FE" transform="translate(110,246)"/>
<path d="M0 0 C72.93 0 145.86 0 221 0 C221 7.26 221 14.52 221 22 C148.07 22 75.14 22 0 22 C0 14.74 0 7.48 0 0 Z " fill="#98B6FE" transform="translate(551,195)"/>
<path d="M0 0 C72.93 0 145.86 0 221 0 C221 7.26 221 14.52 221 22 C148.07 22 75.14 22 0 22 C0 14.74 0 7.48 0 0 Z " fill="#98B6FE" transform="translate(110,195)"/>
<path d="M0 0 C27.32875869 -0.09250174 54.65747982 -0.16393011 81.98636341 -0.20724869 C94.67496372 -0.22789474 107.36346512 -0.25605437 120.05200195 -0.30175781 C131.10827326 -0.34156301 142.16447296 -0.36741794 153.22081393 -0.37635398 C159.07785478 -0.38157943 164.93469071 -0.39390355 170.79166603 -0.42292023 C176.2999786 -0.44998949 181.80800106 -0.45846219 187.31637383 -0.45243073 C189.34211425 -0.45353477 191.36786398 -0.46153892 193.39354706 -0.4768219 C196.15166715 -0.49661704 198.90868059 -0.49197773 201.66682434 -0.48101807 C202.47518496 -0.49266943 203.28354558 -0.5043208 204.11640197 -0.51632524 C206.35120869 -0.49219131 206.35120869 -0.49219131 210 0 C211.83332348 1.96756363 211.83332348 1.96756363 213 4 C213.99 4.33 214.98 4.66 216 5 C218.6875 6.8125 218.6875 6.8125 221 10 C221 13.96 221 17.92 221 22 C148.07 22 75.14 22 0 22 C0 14.74 0 7.48 0 0 Z " fill="#97B5FD" transform="translate(551,143)"/>
<path d="M0 0 C27.32875869 -0.09250174 54.65747982 -0.16393011 81.98636341 -0.20724869 C94.67496372 -0.22789474 107.36346512 -0.25605437 120.05200195 -0.30175781 C131.10827326 -0.34156301 142.16447296 -0.36741794 153.22081393 -0.37635398 C159.07785478 -0.38157943 164.93469071 -0.39390355 170.79166603 -0.42292023 C176.2999786 -0.44998949 181.80800106 -0.45846219 187.31637383 -0.45243073 C189.34211425 -0.45353477 191.36786398 -0.46153892 193.39354706 -0.4768219 C196.15166715 -0.49661704 198.90868059 -0.49197773 201.66682434 -0.48101807 C202.47518496 -0.49266943 203.28354558 -0.5043208 204.11640197 -0.51632524 C206.35120869 -0.49219131 206.35120869 -0.49219131 210 0 C211.83332348 1.96756363 211.83332348 1.96756363 213 4 C213.99 4.33 214.98 4.66 216 5 C218.6875 6.8125 218.6875 6.8125 221 10 C221 13.96 221 17.92 221 22 C148.07 22 75.14 22 0 22 C0 14.74 0 7.48 0 0 Z " fill="#97B5FD" transform="translate(110,143)"/>
<path d="M0 0 C4.47839825 2.98559883 7.41456748 5.23069915 11 9 C11.825 9.825 12.65 10.65 13.5 11.5 C17.66666667 15.66666667 21.83333333 19.83333333 26 24 C26.598125 24.556875 27.19625 25.11375 27.8125 25.6875 C29 27 29 27 29 29 C29.556875 29.226875 30.11375 29.45375 30.6875 29.6875 C33.65855185 31.37377267 35.64522125 33.530354 38 36 C38.825 36.825 39.65 37.65 40.5 38.5 C43 41 45.5 43.5 48 46 C48.845625 46.825 49.69125 47.65 50.5625 48.5 C53 51 53 51 54.8125 53.375 C57.31243329 56.37491995 60.0858864 58.77139726 63.046875 61.3046875 C65.48745323 63.4231094 67.74607716 65.68516033 70 68 C70.86625 68.86625 71.7325 69.7325 72.625 70.625 C73.40875 71.40875 74.1925 72.1925 75 73 C75.598125 73.556875 76.19625 74.11375 76.8125 74.6875 C78 76 78 76 78 78 C78.556875 78.226875 79.11375 78.45375 79.6875 78.6875 C82.65855185 80.37377267 84.64522125 82.530354 87 85 C87.86625 85.825 88.7325 86.65 89.625 87.5 C92 90 92 90 95 95 C63.65 95 32.3 95 0 95 C0 63.65 0 32.3 0 0 Z " fill="#7289BF" transform="translate(728,15)"/>
<path d="M0 0 C4.47839825 2.98559883 7.41456748 5.23069915 11 9 C11.825 9.825 12.65 10.65 13.5 11.5 C17.66666667 15.66666667 21.83333333 19.83333333 26 24 C26.598125 24.556875 27.19625 25.11375 27.8125 25.6875 C29 27 29 27 29 29 C29.556875 29.226875 30.11375 29.45375 30.6875 29.6875 C33.65855185 31.37377267 35.64522125 33.530354 38 36 C38.825 36.825 39.65 37.65 40.5 38.5 C43 41 45.5 43.5 48 46 C48.845625 46.825 49.69125 47.65 50.5625 48.5 C53 51 53 51 54.8125 53.375 C57.31243329 56.37491995 60.0858864 58.77139726 63.046875 61.3046875 C65.48745323 63.4231094 67.74607716 65.68516033 70 68 C70.86625 68.86625 71.7325 69.7325 72.625 70.625 C73.40875 71.40875 74.1925 72.1925 75 73 C75.598125 73.556875 76.19625 74.11375 76.8125 74.6875 C78 76 78 76 78 78 C78.556875 78.226875 79.11375 78.45375 79.6875 78.6875 C82.65855185 80.37377267 84.64522125 82.530354 87 85 C87.86625 85.825 88.7325 86.65 89.625 87.5 C92 90 92 90 95 95 C63.65 95 32.3 95 0 95 C0 63.65 0 32.3 0 0 Z " fill="#7289BF" transform="translate(287,15)"/>
<path d="M0 0 C31.02 0 62.04 0 94 0 C94 31.35 94 62.7 94 95 C93.34 94.67 92.68 94.34 92 94 C92 93.34 92 92.68 92 92 C90.7934375 91.5978125 90.7934375 91.5978125 89.5625 91.1875 C88.716875 90.795625 87.87125 90.40375 87 90 C86.67 89.01 86.34 88.02 86 87 C85.34 87 84.68 87 84 87 C82.59765625 85.5390625 82.59765625 85.5390625 81.0625 83.625 C79.08013383 81.16098476 77.69300345 79.79533563 75 78 C75 77.34 75 76.68 75 76 C74.34 76 73.68 76 73 76 C71.64613064 74.34997172 70.31321858 72.6825613 69 71 C68.34 70.67 67.68 70.34 67 70 C67 69.34 67 68.68 67 68 C66.34 68 65.68 68 65 68 C65 67.01 65 66.02 65 65 C64.443125 64.7525 63.88625 64.505 63.3125 64.25 C60.57589087 62.77075182 58.32349131 61.06532561 56 59 C56 58.34 56 57.68 56 57 C55.34 57 54.68 57 54 57 C54 56.01 54 55.02 54 54 C53.195625 53.731875 52.39125 53.46375 51.5625 53.1875 C50.716875 52.795625 49.87125 52.40375 49 52 C48.67 51.01 48.34 50.02 48 49 C47.01 48.67 46.02 48.34 45 48 C43.64721885 46.01310269 42.31431695 44.01254782 41 42 C40.01 41.34 39.02 40.68 38 40 C38 39.34 38 38.68 38 38 C37.443125 37.95875 36.88625 37.9175 36.3125 37.875 C32.82653414 36.55598589 31.28404524 33.86969787 29 31 C28.01 30.34 27.02 29.68 26 29 C26 28.34 26 27.68 26 27 C25.34 27 24.68 27 24 27 C22.64613064 25.34997172 21.31321858 23.6825613 20 22 C19.34 21.67 18.68 21.34 18 21 C18 20.34 18 19.68 18 19 C17.34 19 16.68 19 16 19 C16 18.01 16 17.02 16 16 C15.443125 15.7525 14.88625 15.505 14.3125 15.25 C11.57589087 13.77075182 9.32349131 12.06532561 7 10 C7 9.34 7 8.68 7 8 C6.34 8 5.68 8 5 8 C5 7.01 5 6.02 5 5 C2.525 4.01 2.525 4.01 0 3 C0 2.01 0 1.02 0 0 Z " fill="#36415A" transform="translate(729,110)"/>
<path d="M0 0 C31.02 0 62.04 0 94 0 C94 31.35 94 62.7 94 95 C93.34 94.67 92.68 94.34 92 94 C92 93.34 92 92.68 92 92 C90.7934375 91.5978125 90.7934375 91.5978125 89.5625 91.1875 C88.716875 90.795625 87.87125 90.40375 87 90 C86.67 89.01 86.34 88.02 86 87 C85.34 87 84.68 87 84 87 C82.59765625 85.5390625 82.59765625 85.5390625 81.0625 83.625 C79.08013383 81.16098476 77.69300345 79.79533563 75 78 C75 77.34 75 76.68 75 76 C74.34 76 73.68 76 73 76 C71.64613064 74.34997172 70.31321858 72.6825613 69 71 C68.34 70.67 67.68 70.34 67 70 C67 69.34 67 68.68 67 68 C66.34 68 65.68 68 65 68 C65 67.01 65 66.02 65 65 C64.443125 64.7525 63.88625 64.505 63.3125 64.25 C60.57589087 62.77075182 58.32349131 61.06532561 56 59 C56 58.34 56 57.68 56 57 C55.34 57 54.68 57 54 57 C54 56.01 54 55.02 54 54 C53.195625 53.731875 52.39125 53.46375 51.5625 53.1875 C50.716875 52.795625 49.87125 52.40375 49 52 C48.67 51.01 48.34 50.02 48 49 C47.01 48.67 46.02 48.34 45 48 C43.64721885 46.01310269 42.31431695 44.01254782 41 42 C40.01 41.34 39.02 40.68 38 40 C38 39.34 38 38.68 38 38 C37.443125 37.95875 36.88625 37.9175 36.3125 37.875 C32.82653414 36.55598589 31.28404524 33.86969787 29 31 C28.01 30.34 27.02 29.68 26 29 C26 28.34 26 27.68 26 27 C25.34 27 24.68 27 24 27 C22.64613064 25.34997172 21.31321858 23.6825613 20 22 C19.34 21.67 18.68 21.34 18 21 C18 20.34 18 19.68 18 19 C17.34 19 16.68 19 16 19 C16 18.01 16 17.02 16 16 C15.443125 15.7525 14.88625 15.505 14.3125 15.25 C11.57589087 13.77075182 9.32349131 12.06532561 7 10 C7 9.34 7 8.68 7 8 C6.34 8 5.68 8 5 8 C5 7.01 5 6.02 5 5 C2.525 4.01 2.525 4.01 0 3 C0 2.01 0 1.02 0 0 Z " fill="#36415A" transform="translate(288,110)"/>
<path d="M0 0 C41.25 0 82.5 0 125 0 C125 7.26 125 14.52 125 22 C83.75 22 42.5 22 0 22 C0 14.74 0 7.48 0 0 Z " fill="#98B5FD" transform="translate(551,298)"/>
<path d="M0 0 C41.25 0 82.5 0 125 0 C125 7.26 125 14.52 125 22 C83.75 22 42.5 22 0 22 C0 14.74 0 7.48 0 0 Z " fill="#98B5FD" transform="translate(110,298)"/>
<path d="M0 0 C72.93 0 145.86 0 221 0 C221 2.64 221 5.28 221 8 C148.07 8 75.14 8 0 8 C0 5.36 0 2.72 0 0 Z " fill="#516289" transform="translate(551,268)"/>
<path d="M0 0 C72.93 0 145.86 0 221 0 C221 2.64 221 5.28 221 8 C148.07 8 75.14 8 0 8 C0 5.36 0 2.72 0 0 Z " fill="#516289" transform="translate(110,268)"/>
<path d="M0 0 C72.93 0 145.86 0 221 0 C221 2.64 221 5.28 221 8 C148.07 8 75.14 8 0 8 C0 5.36 0 2.72 0 0 Z " fill="#516289" transform="translate(551,165)"/>
<path d="M0 0 C72.93 0 145.86 0 221 0 C221 2.64 221 5.28 221 8 C148.07 8 75.14 8 0 8 C0 5.36 0 2.72 0 0 Z " fill="#516289" transform="translate(110,165)"/>
<path d="M0 0 C72.93 0 145.86 0 221 0 C221 2.31 221 4.62 221 7 C148.07 7 75.14 7 0 7 C0 4.69 0 2.38 0 0 Z " fill="#4F5F85" transform="translate(551,217)"/>
<path d="M0 0 C72.93 0 145.86 0 221 0 C221 2.31 221 4.62 221 7 C148.07 7 75.14 7 0 7 C0 4.69 0 2.38 0 0 Z " fill="#4F5F85" transform="translate(110,217)"/>
<path d="M0 0 C3.94071085 2.82524281 6.76930851 5.75987078 8.68359375 10.20703125 C9.4280855 16.58838913 8.11716623 21.52961901 6.15625 27.53515625 C5.91974731 28.27459473 5.68324463 29.0140332 5.4395752 29.77587891 C4.85924054 31.58786958 4.27209987 33.39767804 3.68359375 35.20703125 C-1.82970523 35.40626096 -7.34086685 35.55063613 -12.85693359 35.64648438 C-14.72905006 35.68647446 -16.60092052 35.7408885 -18.47216797 35.81054688 C-36.01666135 36.44682717 -36.01666135 36.44682717 -42.60546875 31.17578125 C-44.85400391 28.93945312 -44.85400391 28.93945312 -46.31640625 27.20703125 C-42.39904044 26.03702155 -39.3368161 26.51119108 -35.31640625 27.20703125 C-35.16606934 26.60753662 -35.01573242 26.00804199 -34.86083984 25.39038086 C-34.15787275 22.63616323 -33.42494946 19.89075645 -32.69140625 17.14453125 C-32.45550781 16.20158203 -32.21960938 15.25863281 -31.9765625 14.28710938 C-30.29317489 8.09310626 -28.26601681 3.4394905 -23.31640625 -0.79296875 C-16.31308525 -4.73574045 -6.81092793 -4.00726113 0 0 Z " fill="#3A4560" transform="translate(793.31640625,344.79296875)"/>
<path d="M0 0 C5.69744453 2.29748102 9.23249126 5.5291983 12 11 C12.34057617 14.04614258 12.34057617 14.04614258 12.29296875 17.39453125 C12.28172974 19.02032104 12.28172974 19.02032104 12.27026367 20.67895508 C12.24295166 22.0430249 12.21563965 23.40709473 12.1875 24.8125 C12.125625 29.164375 12.06375 33.51625 12 38 C-0.54 38 -13.08 38 -26 38 C-26.0825 33.66875 -26.165 29.3375 -26.25 24.875 C-26.28641602 23.52003418 -26.32283203 22.16506836 -26.36035156 20.76904297 C-26.46233576 9.73007591 -26.46233576 9.73007591 -22 5 C-15.21983668 -0.97300102 -8.70867366 -0.93527802 0 0 Z " fill="#424F6E" transform="translate(345,341)"/>
<path d="M0 0 C41.25 0 82.5 0 125 0 C125 2.31 125 4.62 125 7 C83.75 7 42.5 7 0 7 C0 4.69 0 2.38 0 0 Z " fill="#4F5F85" transform="translate(551,320)"/>
<path d="M0 0 C41.25 0 82.5 0 125 0 C125 2.31 125 4.62 125 7 C83.75 7 42.5 7 0 7 C0 4.69 0 2.38 0 0 Z " fill="#4F5F85" transform="translate(110,320)"/>
<path d="M0 0 C3.82838766 0.91791751 5.43621117 2.46342703 8.00390625 5.48046875 C8.62890625 9.04296875 8.62890625 9.04296875 8.00390625 12.48046875 C7.32328125 13.09921875 6.64265625 13.71796875 5.94140625 14.35546875 C3.78980623 16.25621003 3.78980623 16.25621003 3.92578125 18.546875 C4.37788084 22.58252866 5.20705292 26.49620212 6.00390625 30.48046875 C1.05390625 30.48046875 -3.89609375 30.48046875 -8.99609375 30.48046875 C-8.68671875 29.09859375 -8.37734375 27.71671875 -8.05859375 26.29296875 C-7.33268219 23.02894089 -6.63152955 19.76355372 -5.99609375 16.48046875 C-6.63546875 16.19171875 -7.27484375 15.90296875 -7.93359375 15.60546875 C-9.99609375 14.48046875 -9.99609375 14.48046875 -10.99609375 12.48046875 C-11.48211963 8.18724016 -11.45850983 6.15964236 -8.99609375 2.54296875 C-5.86285793 0.38886912 -3.81791565 -0.268051 0 0 Z " fill="#37415B" transform="translate(779.99609375,399.51953125)"/>
<path d="M0 0 C3.5060303 0.86943897 4.94966563 2.56083702 6.9375 5.48046875 C7.5 8.98046875 7.5 8.98046875 6.9375 12.48046875 C6.23625 13.26421875 5.535 14.04796875 4.8125 14.85546875 C2.68235284 17.23969363 2.68235284 17.23969363 3.1171875 19.6484375 C3.48878668 21.20864502 3.90120116 22.7598616 4.359375 24.296875 C4.9375 26.48046875 4.9375 26.48046875 4.9375 30.48046875 C0.3175 30.48046875 -4.3025 30.48046875 -9.0625 30.48046875 C-8.1744403 21.85360308 -8.1744403 21.85360308 -7.40625 19.29296875 C-7.2928125 18.69484375 -7.179375 18.09671875 -7.0625 17.48046875 C-7.701875 16.90296875 -8.34125 16.32546875 -9 15.73046875 C-11.0625 13.48046875 -11.0625 13.48046875 -11.625 9.54296875 C-11.43570664 6.27613172 -10.97683666 5.35197374 -9.0625 2.48046875 C-5.73305136 0.26083632 -3.92331066 -0.27492897 0 0 Z " fill="#435171" transform="translate(340.0625,397.51953125)"/>
<path d="M0 0 C0.495 0.99 0.495 0.99 1 2 C2.32303717 2.3721042 3.65737935 2.70630173 5 3 C6 4 6 4 6.12025452 6.89161682 C6.11803391 8.18623337 6.11581329 9.48084991 6.11352539 10.81469727 C6.11367142 11.52685394 6.11381744 12.23901062 6.1139679 12.9727478 C6.1132687 15.33733112 6.10547606 17.70183661 6.09765625 20.06640625 C6.09579209 21.70165463 6.09436818 23.33690357 6.09336853 24.97215271 C6.08954318 29.28434785 6.07971275 33.59650952 6.06866455 37.90869141 C6.0584508 42.30565946 6.05387099 46.70263289 6.04882812 51.09960938 C6.03809049 59.73308831 6.02101387 68.36654 6 77 C2.9949417 78.50252915 -0.09256933 78.12992759 -3.38720703 78.11352539 C-4.14827759 78.11367142 -4.90934814 78.11381744 -5.69348145 78.1139679 C-8.21495389 78.11326993 -10.73635292 78.10548294 -13.2578125 78.09765625 C-15.00373291 78.09579166 -16.74965384 78.09436795 -18.49557495 78.09336853 C-23.09545328 78.08954659 -27.69530014 78.07971905 -32.29516602 78.06866455 C-36.9871376 78.05844349 -41.67911425 78.05386942 -46.37109375 78.04882812 C-55.58074301 78.03809651 -64.79036889 78.02102394 -74 78 C-74.33 77.34 -74.66 76.68 -75 76 C-48.93 76 -22.86 76 4 76 C4 52.57 4 29.14 4 5 C2.02 5 0.04 5 -2 5 C-1.125 1.125 -1.125 1.125 0 0 Z " fill="#262E40" transform="translate(814,376)"/>
<path d="M0 0 C4.87773605 0.45374289 7.52177888 1.52177888 11 5 C14.39964285 10.04084974 14.58499664 14.00378442 14 20 C12.35 25.28 10.7 30.56 9 36 C-4.2 36 -17.4 36 -31 36 C-31 35.34 -31 34.68 -31 34 C-18.79 33.67 -6.58 33.34 6 33 C6.99 30.03 7.98 27.06 9 24 C9.66 22.68 10.32 21.36 11 20 C11.27675932 17.77472464 11.27675932 17.77472464 11.1875 15.5 C11.17783203 14.37078125 11.17783203 14.37078125 11.16796875 13.21875 C11.00112014 11.01479632 10.69759846 9.09738484 10 7 C8.26857146 5.84077872 8.26857146 5.84077872 6 5 C4 4 2 3 0 2 C0 1.34 0 0.68 0 0 Z " fill="#2B3449" transform="translate(788,344)"/>
<path d="M0 0 C1.21236328 0.01353516 1.21236328 0.01353516 2.44921875 0.02734375 C3.37154297 0.04474609 3.37154297 0.04474609 4.3125 0.0625 C4.3125 0.7225 4.3125 1.3825 4.3125 2.0625 C3.35150391 2.15724609 3.35150391 2.15724609 2.37109375 2.25390625 C1.50613281 2.37636719 0.64117188 2.49882812 -0.25 2.625 C-1.52037109 2.78162109 -1.52037109 2.78162109 -2.81640625 2.94140625 C-7.92803108 4.93737404 -11.52769987 8.46799767 -13.77416992 13.4934082 C-14.62575547 16.124478 -15.34122489 18.75187404 -16 21.4375 C-16.46871708 23.23869461 -16.94364781 25.03828762 -17.42578125 26.8359375 C-17.62212158 27.62403809 -17.81846191 28.41213867 -18.02075195 29.22412109 C-18.6875 31.0625 -18.6875 31.0625 -20.6875 32.0625 C-19.74220086 22.23138898 -18.48245613 10.06336906 -10.6875 3.25 C-6.93488163 0.51371577 -4.51976712 -0.06550387 0 0 Z " fill="#323B53" transform="translate(779.6875,341.9375)"/>
<path d="M0 0 C31.02 0 62.04 0 94 0 C94 1.98 94 3.96 94 6 C93.18876678 5.35125916 92.37753357 4.70251831 91.54171753 4.03411865 C87.56304521 1.4002864 83.99496772 1.42448601 79.33251953 1.45410156 C78.48308273 1.44376389 77.63364594 1.43342621 76.75846863 1.42277527 C73.96638834 1.39340884 71.17503491 1.39184941 68.3828125 1.390625 C66.4408124 1.37563919 64.49882503 1.35891119 62.55685425 1.34051514 C57.45726935 1.29687452 52.35785637 1.27684976 47.25811768 1.26177979 C42.04957935 1.24219691 36.84122636 1.20022818 31.6328125 1.16015625 C21.42193221 1.08488971 11.21109348 1.03457664 1 1 C0.67 1.66 0.34 2.32 0 3 C0 2.01 0 1.02 0 0 Z " fill="#3E4A68" transform="translate(729,110)"/>
<path d="M0 0 C31.02 0 62.04 0 94 0 C94 1.98 94 3.96 94 6 C93.18876678 5.35125916 92.37753357 4.70251831 91.54171753 4.03411865 C87.56304521 1.4002864 83.99496772 1.42448601 79.33251953 1.45410156 C78.48308273 1.44376389 77.63364594 1.43342621 76.75846863 1.42277527 C73.96638834 1.39340884 71.17503491 1.39184941 68.3828125 1.390625 C66.4408124 1.37563919 64.49882503 1.35891119 62.55685425 1.34051514 C57.45726935 1.29687452 52.35785637 1.27684976 47.25811768 1.26177979 C42.04957935 1.24219691 36.84122636 1.20022818 31.6328125 1.16015625 C21.42193221 1.08488971 11.21109348 1.03457664 1 1 C0.67 1.66 0.34 2.32 0 3 C0 2.01 0 1.02 0 0 Z " fill="#3E4A68" transform="translate(288,110)"/>
<path d="M0 0 C3.62343383 3.78813537 4.04524538 8.00589889 5 13 C0.05 13 -4.9 13 -10 13 C-8.25 4.25 -8.25 4.25 -6 2 C-5.67 4.64 -5.34 7.28 -5 10 C-2.69 10.33 -0.38 10.66 2 11 C1.67 10.113125 1.34 9.22625 1 8.3125 C0.08777857 5.29076653 -0.18330958 3.11626294 0 0 Z " fill="#252D3F" transform="translate(781,417)"/>
<path d="M0 0 C3.63 0 7.26 0 11 0 C11 3.3 11 6.6 11 10 C8.5 8.625 8.5 8.625 6 7 C6 6.34 6 5.68 6 5 C5.38125 4.9175 4.7625 4.835 4.125 4.75 C2 4 2 4 0 0 Z " fill="#4F6085" transform="translate(761,143)"/>
<path d="M0 0 C3.63 0 7.26 0 11 0 C11 3.3 11 6.6 11 10 C8.5 8.625 8.5 8.625 6 7 C6 6.34 6 5.68 6 5 C5.38125 4.9175 4.7625 4.835 4.125 4.75 C2 4 2 4 0 0 Z " fill="#4F6085" transform="translate(320,143)"/>
<path d="M0 0 C0.99 0.33 1.98 0.66 3 1 C1.91332031 1.85658203 1.91332031 1.85658203 0.8046875 2.73046875 C-6.76000205 9.07472172 -10.51165878 14.6094443 -14 24 C-14.33 24 -14.66 24 -15 24 C-14.14016175 13.68194094 -9.8490302 8.36217613 -2.046875 1.6875 C-1.37140625 1.130625 -0.6959375 0.57375 0 0 Z " fill="#506086" transform="translate(763,329)"/>
<path d="M0 0 C1.92392578 -0.00773437 1.92392578 -0.00773437 3.88671875 -0.015625 C7.01234783 0.22672708 8.71149683 0.59062582 11.3125 2.25 C11.3125 2.58 11.3125 2.91 11.3125 3.25 C10.73806152 3.24476318 10.16362305 3.23952637 9.57177734 3.23413086 C6.94369623 3.21321424 4.31563271 3.20029341 1.6875 3.1875 C0.78386719 3.17912109 -0.11976563 3.17074219 -1.05078125 3.16210938 C-5.71654289 3.14508105 -10.09763285 3.28170577 -14.6875 4.25 C-14.6875 3.59 -14.6875 2.93 -14.6875 2.25 C-9.63924368 0.60425538 -5.36627458 -0.02170384 0 0 Z " fill="#516187" transform="translate(781.6875,324.75)"/>
<path d="M0 0 C1.21236328 0.01353516 1.21236328 0.01353516 2.44921875 0.02734375 C3.37154297 0.04474609 3.37154297 0.04474609 4.3125 0.0625 C4.3125 0.7225 4.3125 1.3825 4.3125 2.0625 C3.31669922 2.22685547 3.31669922 2.22685547 2.30078125 2.39453125 C-2.71261098 3.2947462 -6.35089907 4.30284486 -10.6875 7.0625 C-11.6775 6.7325 -12.6675 6.4025 -13.6875 6.0625 C-9.04476089 2.03879277 -6.35106901 -0.09204448 0 0 Z " fill="#2C3449" transform="translate(779.6875,341.9375)"/>
<path d="M0 0 C2.51171875 1.578125 2.51171875 1.578125 5 4 C5.26953125 7.234375 5.26953125 7.234375 4.8125 10.75 C4.67457031 11.92046875 4.53664063 13.0909375 4.39453125 14.296875 C4.26433594 15.18890625 4.13414062 16.0809375 4 17 C3.67 17 3.34 17 3 17 C2.86722656 16.19175781 2.73445312 15.38351562 2.59765625 14.55078125 C2.42105469 13.48214844 2.24445312 12.41351563 2.0625 11.3125 C1.88847656 10.25675781 1.71445312 9.20101563 1.53515625 8.11328125 C1.06832879 5.39750396 0.55577384 2.69875765 0 0 Z " fill="#2A3246" transform="translate(814,346)"/>
<path d="M0 0 C0.33 0.66 0.66 1.32 1 2 C1.66 2.165 2.32 2.33 3 2.5 C3.66 2.665 4.32 2.83 5 3 C5.33 3.66 5.66 4.32 6 5 C3.36 5 0.72 5 -2 5 C-1.125 1.125 -1.125 1.125 0 0 Z " fill="#303950" transform="translate(814,376)"/>
<path d="M0 0 C0.33 0 0.66 0 1 0 C1.33 2.97 1.66 5.94 2 9 C0.35 9.33 -1.3 9.66 -3 10 C-2.01 6.7 -1.02 3.4 0 0 Z " fill="#2B3448" transform="translate(774,419)"/>
<path d="M0 0 C2.97 0.33 5.94 0.66 9 1 C9 1.99 9 2.98 9 4 C6.75 4.25 6.75 4.25 4 4 C1.6875 2 1.6875 2 0 0 Z " fill="#2F384E" transform="translate(747,371)"/>
<path d="M0 0 C2.64 0 5.28 0 8 0 C8.33 0.66 8.66 1.32 9 2 C2.375 3 2.375 3 -1 3 C-0.67 2.01 -0.34 1.02 0 0 Z " fill="#293145" transform="translate(774,400)"/>
</svg>
