<svg xmlns="http://www.w3.org/2000/svg" fill="none" viewBox="0 0 600 520">
  <rect width="218.785" height="218.785" x="315.923" y="65.185" fill="#ECF5FE" rx="17.697" transform="rotate(103.975 315.923 65.185)"/>
  <rect width="277.889" height="277.889" x="531.414" y="260.126" fill="#D8EBFD" rx="19.922" transform="rotate(118.191 531.414 260.126)"/>
  <path fill="#FFB700" d="M175.877 110.138a1.939 1.939 0 0 0 0 2.767 2.002 2.002 0 0 0 2.804 0l4.17-4.115a1.937 1.937 0 0 0 0-2.767 2 2 0 0 0-2.803 0l-4.171 4.115Zm9.765-9.634a1.937 1.937 0 0 0 0 2.767 2 2 0 0 0 2.803 0l4.171-4.115a1.938 1.938 0 0 0 0-2.767 2.002 2.002 0 0 0-2.804 0l-4.17 4.115Zm-9.765-4.114a2.002 2.002 0 0 1 2.804 0l4.17 4.114a1.937 1.937 0 0 1 0 2.767 2 2 0 0 1-2.803 0l-4.171-4.115a1.938 1.938 0 0 1 0-2.767Zm12.568 9.633a2 2 0 0 0-2.803 0 1.937 1.937 0 0 0 0 2.767l4.17 4.115c.774.764 2.03.764 2.804 0a1.939 1.939 0 0 0 0-2.767l-4.171-4.115Z"/>
  <path fill="#fff" fill-rule="evenodd" d="M121.852 150.081a7.558 7.558 0 0 1 7.556-7.561 7.558 7.558 0 0 1 7.555 7.561 7.558 7.558 0 0 1-7.555 7.561 7.56 7.56 0 0 1-7.556-7.561Zm11.484 0a3.93 3.93 0 1 0-7.858 0 3.93 3.93 0 1 0 7.858 0Z" clip-rule="evenodd"/>
  <path fill="#87AFFF" d="M128.211 427.435a1.938 1.938 0 0 0 0 2.766 2.002 2.002 0 0 0 2.804 0l4.17-4.115a1.936 1.936 0 0 0 0-2.766 2.002 2.002 0 0 0-2.804 0l-4.17 4.115Zm9.765-9.634a1.936 1.936 0 0 0 0 2.766 2 2 0 0 0 2.803 0l4.171-4.115a1.938 1.938 0 0 0 0-2.766 2.002 2.002 0 0 0-2.804 0l-4.17 4.115Zm-9.765-4.115a2.002 2.002 0 0 1 2.804 0l4.17 4.115a1.936 1.936 0 0 1 0 2.766 2.002 2.002 0 0 1-2.804 0l-4.17-4.115a1.938 1.938 0 0 1 0-2.766Zm12.568 9.634a2 2 0 0 0-2.803 0 1.936 1.936 0 0 0 0 2.766l4.17 4.115c.774.764 2.03.764 2.804 0a1.938 1.938 0 0 0 0-2.766l-4.171-4.115Z"/>
  <path fill="#fff" d="M366.534 430.926v7.126h7.121v3.563h-7.121v7.126h-3.561v-7.126h-7.121v-3.563h7.121v-7.126h3.561Z"/>
  <path fill="#769EEB" fill-rule="evenodd" d="m406.642 368.621.008 9.132a2.943 2.943 0 0 1-2.94 2.946l-11.151.011.012 12.883a2.943 2.943 0 0 1-2.94 2.946l-174.593.166a2.941 2.941 0 0 1-2.945-2.94l-.205-214.934a2.942 2.942 0 0 1 2.94-2.946l11.151-.011-.012-12.884a2.943 2.943 0 0 1 2.94-2.946l15.564-.014-.009-9.133a2.943 2.943 0 0 1 2.94-2.945l142.148-.136 34.559 34.493c.552.552.863 1.3.864 2.08l.127 133.752 58.522-33.428.016.012 5.931-3.387a7.605 7.605 0 0 1 10.375 2.835l2.67 4.68a7.604 7.604 0 0 1-2.834 10.372l-6.783 3.873-.017-.011-67.857 38.76.022 23.813a2.942 2.942 0 0 1-2.94 2.946l-15.563.015Z" clip-rule="evenodd"/>
  <path fill="#69CED0" d="m203.659 385.613-.205-214.935a2.943 2.943 0 0 1 2.94-2.946l142.148-.135 34.559 34.493c.552.551.863 1.299.864 2.08l.172 181.271a2.942 2.942 0 0 1-2.94 2.945l-174.592.167a2.943 2.943 0 0 1-2.946-2.94Z"/>
  <path fill="#9FE6E8" d="m217.737 369.773-.204-214.935a2.943 2.943 0 0 1 2.94-2.946l142.147-.135 34.559 34.493a2.94 2.94 0 0 1 .864 2.08l.173 181.271a2.944 2.944 0 0 1-2.94 2.946l-174.593.166a2.943 2.943 0 0 1-2.946-2.94Z"/>
  <path fill="#CFF2F3" d="m236.235 357.679-.205-214.934a2.943 2.943 0 0 1 2.94-2.946l142.147-.136 34.559 34.494c.553.551.864 1.299.864 2.08l.173 181.27a2.942 2.942 0 0 1-2.94 2.946l-174.593.167a2.943 2.943 0 0 1-2.945-2.941Z"/>
  <path fill="#4CCBCE" d="m381.157 175.054-.034-35.387 35.422 35.354-35.388.033Zm-114.405 25.711a2.944 2.944 0 0 1 2.941-2.946l105.593-.101a2.943 2.943 0 0 1 2.946 2.941l.003 3.365a2.943 2.943 0 0 1-2.94 2.946l-105.594.1a2.941 2.941 0 0 1-2.945-2.94l-.004-3.365Zm.017 24.397a2.943 2.943 0 0 1 2.94-2.946l105.594-.1a2.943 2.943 0 0 1 2.946 2.94l.003 3.365a2.942 2.942 0 0 1-2.94 2.946l-105.594.101a2.944 2.944 0 0 1-2.946-2.94l-.003-3.366Zm.029 102.926a2.943 2.943 0 0 1 2.94-2.946l95.342-.091a2.942 2.942 0 0 1 2.946 2.94l.003 3.365a2.942 2.942 0 0 1-2.94 2.946l-95.342.091a2.943 2.943 0 0 1-2.946-2.94l-.003-3.365Zm-.048-53.257a2.944 2.944 0 0 1 2.941-2.946l105.593-.1a2.942 2.942 0 0 1 2.946 2.94l.003 3.365a2.942 2.942 0 0 1-2.94 2.946l-105.594.101a2.943 2.943 0 0 1-2.945-2.94l-.004-3.366Zm0 25.304a2.944 2.944 0 0 1 2.941-2.946l105.593-.101a2.943 2.943 0 0 1 2.946 2.941l.003 3.365a2.943 2.943 0 0 1-2.94 2.946l-105.594.101a2.943 2.943 0 0 1-2.945-2.941l-.004-3.365Zm-.003-50.034a2.943 2.943 0 0 1 2.941-2.946l105.593-.101a2.943 2.943 0 0 1 2.946 2.941l.004 3.365a2.944 2.944 0 0 1-2.941 2.946l-105.593.1a2.942 2.942 0 0 1-2.946-2.94l-.004-3.365Z"/>
  <path fill="#FEB56C" d="m475.15 300.323-.749-4.597-6.18-10.831-3.278-2.461-87.606 50.02a22.211 22.211 0 0 0-5.625 4.573 17.376 17.376 0 0 1 9.034 15.832 22.204 22.204 0 0 0 6.798-2.516l87.606-50.02Z"/>
  <path fill="#F38D8D" d="m494.18 280.702-2.671-4.68a7.604 7.604 0 0 0-10.374-2.835l-6.78 3.871-.081 2.996 7.43 13.023 2.859 1.87 6.783-3.873a7.605 7.605 0 0 0 2.834-10.372Z"/>
  <path fill="#CFF2F3" d="m464.955 282.412 9.416-5.373 10.209 17.89-9.415 5.373-10.21-17.89Z"/>
  <path fill="#49CFD3" d="m367.955 355.306-6.579 1.282c-4.926.903-7.008.25-2.736-4.794l4.426-5.001s4.876 3.588 4.889 8.513Z"/>
  <path fill="#FFE299" d="m380.745 352.858-19.37 3.736c-2.733.527-4.58-2.71-2.736-4.794l13.072-14.775a17.38 17.38 0 0 1 9.034 15.833Z"/>
  <path fill="#0C9A9E" d="m367.955 355.306-6.579 1.282c-4.926.903-7.008.25-2.736-4.794l4.426-5.001s4.876 3.588 4.889 8.513Z"/>
  <path fill="#FC9" d="m379.673 346.275 91.805-52.382-2.842-4.982-91.805 52.382a17.373 17.373 0 0 1 2.842 4.982Z"/>
  <path fill="#FFB366" d="M92.416 193.838a6.06 6.06 0 0 1 6.06-6.06H317.23c1.87 0 3.634.863 4.782 2.338l3.325 4.272a6.061 6.061 0 0 1 1.278 3.722v47.639a6.06 6.06 0 0 1-6.06 6.059H100.529a6.06 6.06 0 0 1-5.23-2.997l-2.052-3.505a6.062 6.062 0 0 1-.83-3.062v-48.406Z"/>
  <rect width="231.174" height="59.872" x="92.001" y="187.778" fill="#FFD4A9" rx="6.06"/>
  <g clip-path="url(#a)">
    <rect width="41.578" height="41.578" x="101.148" y="196.926" fill="#FFB366" rx="4.158"/>
    <path fill="#1A1A1A" fill-rule="evenodd" d="m114.662 208.359 3.458 15.913 3.637-2.449 3.82 5.246 3.637-2.449-3.82-5.245 3.637-2.449-14.369-8.567Z" clip-rule="evenodd"/>
    <rect width="41.578" height="41.578" x="151.042" y="196.926" fill="#F4F4F4" rx="4.158"/>
    <path stroke="#1A1A1A" stroke-width="1.039" d="m176.974 208.897 3.675 3.675-11.76 11.76-3.675-3.675z"/>
    <path fill="#1A1A1A" stroke="#1A1A1A" stroke-width=".52" d="m174.77 210.734 4.043 4.043-.368.367-4.043-4.042z"/>
    <path fill="#1A1A1A" stroke="#1A1A1A" stroke-width="1.039" d="m179.179 208.161 2.205 2.205-.735.734-2.205-2.204zm-15.349 17.553.507-1.523 1.016 1.015-1.523.508Z"/>
    <path stroke="#1A1A1A" stroke-width="1.039" d="m164.478 221.391.735-.735 3.675 3.675-.735.735-5.145 1.47 1.47-5.145Z"/>
    <rect width="62.367" height="41.578" x="200.935" y="196.926" fill="#F4F4F4" rx="4.158"/>
    <path stroke="#1A1A1A" stroke-width="1.039" d="m216.095 216.917 12.476-9.293 3.247 3.247-9.293 12.476-6.43-6.43Zm-.793-.057c.233 1.074.28 3.64-1.4 5.32m-.07-.07 3.5 3.5m5.25-1.47c-1.074-.233-3.64-.28-5.32 1.4"/>
    <path fill="#1A1A1A" stroke="#1A1A1A" stroke-width="1.039" d="m214.182 223.195 2.065 2.065-1.063 1.063-2.779-1.351 1.777-1.777Z"/>
    <path fill="#1A1A1A" fill-rule="evenodd" d="M241.473 215.637h10.395l-5.198 5.197-5.197-5.197Z" clip-rule="evenodd"/>
    <rect width="41.578" height="41.578" x="271.618" y="196.926" fill="#F4F4F4" rx="4.158"/>
    <path fill="#1A1A1A" d="M291.131 224.473v-13.401h-4.528v-1.601h10.977v1.601h-4.528v13.401h-1.921Z"/>
  </g>
  <path fill="#FFD4A9" d="M366.925 219.29c0-.802.651-1.453 1.454-1.453h97.695c.803 0 1.454.651 1.454 1.453v52.846c0 .802-.651 1.453-1.454 1.453h-97.695a1.454 1.454 0 0 1-1.454-1.453V219.29Z"/>
  <path fill="#FF9B36" fill-rule="evenodd" d="m369.475 269.493.018-.042a2.906 2.906 0 0 0-1.114-.222h3.053v4.36h-3.053c-.197 0-.385-.039-.557-.11l.558-1.345-1.344.558a1.452 1.452 0 0 1-.111-.556v-2.643h2.55Zm-2.55-5.284h4.36v-5.285h-4.36v5.285Zm0-10.569h4.36v-5.285h-4.36v5.285Zm0-10.569h4.36v-5.285h-4.36v5.285Zm0-10.569h4.36v-5.285h-4.36v5.285Zm0-10.569h2.55l.018.042a2.925 2.925 0 0 1-1.114.222h3.053v-4.36h-3.053c-.197 0-.385.039-.557.11l.558 1.344-1.344-.557a1.448 1.448 0 0 0-.111.556v2.643Zm10.613-4.096v4.36h6.106v-4.36h-6.106Zm12.212 0v4.36h6.106v-4.36h-6.106Zm12.212 0v4.36h6.106v-4.36h-6.106Zm12.212 0v4.36h6.106v-4.36h-6.106Zm12.212 0v4.36h6.106v-4.36h-6.106Zm12.212 0v4.36h6.105v-4.36h-6.105Zm12.211 0v4.36h6.106v-4.36h-6.106Zm12.212 0v4.36h3.053c-.386 0-.765-.078-1.113-.222l.017-.042h2.55v-2.643c0-.197-.039-.385-.11-.556l-1.344.557h-.001l.001-.001v-.001l.557-1.342a1.452 1.452 0 0 0-.557-.11h-3.053Zm4.507 9.38h-4.36v5.285h4.36v-5.285Zm0 10.569h-4.36v5.285h4.36v-5.285Zm0 10.569h-4.36v5.285h4.36v-5.285Zm0 10.569h-4.36v5.285h4.36v-5.285Zm0 10.569h-2.55l-.017-.042a2.897 2.897 0 0 1 1.113-.222h-3.053v4.36h3.053c.198 0 .385-.039.557-.11l-.557-1.342v-.001l-.001-.002 1.345.558a1.45 1.45 0 0 0 .11-.556v-2.643Zm-10.613 4.096v-4.36h-6.106v4.36h6.106Zm-12.212 0v-4.36h-6.105v4.36h6.105Zm-12.211 0v-4.36h-6.106v4.36h6.106Zm-12.212 0v-4.36h-6.106v4.36h6.106Zm-12.212 0v-4.36h-6.106v4.36h6.106Zm-12.212 0v-4.36h-6.106v4.36h6.106Zm-12.212 0v-4.36h-6.106v4.36h6.106Z" clip-rule="evenodd"/>
  <path fill="#3C3C3C" d="M397.212 259.338c-1.644 0-2.973-.494-3.985-1.48-1.012-1.012-1.518-2.341-1.518-3.986 0-.986.202-1.859.607-2.618.43-.785 1.088-1.455 1.974-2.012.911-.557 2.049-1.025 3.416-1.404 1.391-.38 3.049-.671 4.972-.873a5.892 5.892 0 0 0-.228-1.367 2.695 2.695 0 0 0-.569-1.176 2.301 2.301 0 0 0-1.025-.797c-.43-.203-.961-.304-1.594-.304-.911 0-1.809.177-2.695.531a18.6 18.6 0 0 0-2.543 1.291l-1.594-2.923a18.68 18.68 0 0 1 3.492-1.708c1.29-.48 2.682-.721 4.175-.721 2.328 0 4.061.696 5.2 2.088 1.164 1.366 1.746 3.352 1.746 5.959v11.044h-3.606l-.304-2.049h-.151a13.5 13.5 0 0 1-2.695 1.784c-.936.48-1.961.721-3.075.721Zm1.405-3.416c.759 0 1.442-.177 2.049-.531.633-.355 1.303-.861 2.012-1.519v-4.175c-1.265.152-2.328.355-3.188.608-.861.253-1.556.544-2.088.873-.531.303-.911.657-1.138 1.062a2.59 2.59 0 0 0-.342 1.291c0 .835.253 1.442.759 1.822.506.379 1.151.569 1.936.569Zm22.682 3.416c-.86 0-1.733-.203-2.618-.607-.861-.431-1.683-1.038-2.468-1.822h-.113l-.38 1.973h-3.454v-26.796h4.365v6.908l-.114 3.112a11.057 11.057 0 0 1 2.543-1.67 6.76 6.76 0 0 1 2.847-.645c1.164 0 2.201.228 3.112.683a6.196 6.196 0 0 1 2.315 1.898c.633.81 1.113 1.797 1.442 2.961.329 1.164.494 2.467.494 3.909 0 1.594-.228 3.024-.683 4.289-.43 1.24-1.012 2.29-1.746 3.15a7.621 7.621 0 0 1-2.543 1.974 6.934 6.934 0 0 1-2.999.683Zm-.911-3.606c1.24 0 2.278-.531 3.113-1.594.835-1.088 1.252-2.695 1.252-4.82 0-1.873-.316-3.328-.949-4.365-.632-1.037-1.657-1.556-3.074-1.556-1.316 0-2.682.696-4.099 2.087v8.692c.658.582 1.303.987 1.936 1.215.658.227 1.265.341 1.821.341Zm21.045 3.606a9.811 9.811 0 0 1-3.567-.645 8.05 8.05 0 0 1-2.847-1.898c-.81-.835-1.442-1.86-1.898-3.074-.455-1.215-.683-2.594-.683-4.137 0-1.544.253-2.923.759-4.138.506-1.214 1.19-2.239 2.05-3.074a8.736 8.736 0 0 1 2.96-1.898 9.53 9.53 0 0 1 3.568-.683c1.215 0 2.252.203 3.112.607.886.405 1.67.899 2.353 1.481l-2.125 2.846a6.472 6.472 0 0 0-1.518-.987 3.37 3.37 0 0 0-1.594-.379c-1.518 0-2.746.569-3.682 1.708-.936 1.113-1.404 2.619-1.404 4.517 0 1.872.455 3.377 1.366 4.516.936 1.113 2.138 1.67 3.606 1.67.734 0 1.417-.152 2.049-.455a9.756 9.756 0 0 0 1.784-1.139l1.784 2.885a9.245 9.245 0 0 1-2.922 1.708 9.125 9.125 0 0 1-3.151.569Z"/>
  <mask id="b" width="24" height="39" x="454.075" y="196.889" fill="#000" maskUnits="userSpaceOnUse">
    <path fill="#fff" d="M454.075 196.889h24v39h-24z"/>
    <path fill-rule="evenodd" d="M459.921 197.889a6.55 6.55 0 0 1 3.352.938 6.885 6.885 0 0 1 2.462 2.546 6.9 6.9 0 0 1 2.462-2.546 6.554 6.554 0 0 1 3.353-.938h4.845v2.052h-4.845a4.732 4.732 0 0 0-1.868.405 4.911 4.911 0 0 0-1.577 1.118 5.123 5.123 0 0 0-1.046 1.661 5.268 5.268 0 0 0-.355 1.95v9.238h3.877v2.053h-3.877v11.292a5.212 5.212 0 0 0 1.291 3.488 4.83 4.83 0 0 0 3.232 1.635h5.168v2.063h-4.845a6.565 6.565 0 0 1-3.353-.939 6.905 6.905 0 0 1-2.462-2.545 6.89 6.89 0 0 1-2.462 2.545 6.561 6.561 0 0 1-3.352.939h-4.846v-2.053h5.169a4.833 4.833 0 0 0 3.235-1.638 5.213 5.213 0 0 0 1.287-3.495v-11.292h-3.876v-2.053h3.876v-9.238a5.216 5.216 0 0 0-1.29-3.489 4.835 4.835 0 0 0-3.232-1.635h-5.169v-2.062h4.846Z" clip-rule="evenodd"/>
  </mask>
  <path fill="#FF8000" fill-rule="evenodd" d="M459.921 197.889a6.55 6.55 0 0 1 3.352.938 6.885 6.885 0 0 1 2.462 2.546 6.9 6.9 0 0 1 2.462-2.546 6.554 6.554 0 0 1 3.353-.938h4.845v2.052h-4.845a4.732 4.732 0 0 0-1.868.405 4.911 4.911 0 0 0-1.577 1.118 5.123 5.123 0 0 0-1.046 1.661 5.268 5.268 0 0 0-.355 1.95v9.238h3.877v2.053h-3.877v11.292a5.212 5.212 0 0 0 1.291 3.488 4.83 4.83 0 0 0 3.232 1.635h5.168v2.063h-4.845a6.565 6.565 0 0 1-3.353-.939 6.905 6.905 0 0 1-2.462-2.545 6.89 6.89 0 0 1-2.462 2.545 6.561 6.561 0 0 1-3.352.939h-4.846v-2.053h5.169a4.833 4.833 0 0 0 3.235-1.638 5.213 5.213 0 0 0 1.287-3.495v-11.292h-3.876v-2.053h3.876v-9.238a5.216 5.216 0 0 0-1.29-3.489 4.835 4.835 0 0 0-3.232-1.635h-5.169v-2.062h4.846Z" clip-rule="evenodd"/>
  <path fill="#FF8000" d="m459.921 197.889.002-.727h-.002v.727Zm5.814 3.484-.633.355.633 1.129.634-1.129-.634-.355Zm5.815-3.484v-.727h-.002l.002.727Zm4.845 0h.727v-.727h-.727v.727Zm0 2.052v.727h.727v-.727h-.727Zm-4.845 0v-.726h-.007l.007.726Zm-4.846 5.134h.727v-.007l-.727.007Zm0 9.238h-.726v.727h.726v-.727Zm3.877 0h.726v-.726h-.726v.726Zm0 2.053v.727h.726v-.727h-.726Zm-3.877 0v-.727h-.726v.727h.726Zm0 11.292.727.005v-.005h-.727Zm4.523 5.123-.058.724.029.003h.029v-.727Zm5.168 0h.727v-.727h-.727v.727Zm0 2.063v.726h.727v-.726h-.727Zm-4.845 0-.002.726h.002v-.726Zm-5.815-3.484.634-.356-.634-1.128-.633 1.128.633.356Zm-5.814 3.484v.726h.002l-.002-.726Zm-4.846 0h-.726v.726h.726v-.726Zm0-2.053v-.727h-.726v.727h.726Zm5.169 0v.727h.029l.029-.003-.058-.724Zm4.522-5.133h-.727l.001.007.726-.007Zm0-11.292h.727v-.727h-.727v.727Zm-3.876 0h-.727v.727h.727v-.727Zm0-2.053v-.726h-.727v.726h.727Zm3.876 0v.727h.727v-.727h-.727Zm0-9.238-.727-.006v.006h.727Zm-4.522-5.124.058-.724-.029-.002h-.029v.726Zm-5.169 0h-.726v.727h.726v-.727Zm0-2.062v-.727h-.726v.727h.726Zm4.843.726a5.847 5.847 0 0 1 2.982.835l.747-1.246a7.282 7.282 0 0 0-3.724-1.042l-.005 1.453Zm2.982.835a6.174 6.174 0 0 1 2.202 2.278l1.267-.711a7.623 7.623 0 0 0-2.722-2.813l-.747 1.246Zm3.469 2.278a6.174 6.174 0 0 1 2.202-2.278l-.747-1.246a7.615 7.615 0 0 0-2.722 2.813l1.267.711Zm2.202-2.278a5.843 5.843 0 0 1 2.981-.835l-.004-1.453a7.28 7.28 0 0 0-3.724 1.042l.747 1.246Zm2.979-.835h4.845v-1.453h-4.845v1.453Zm4.119-.726v2.052h1.453v-2.052h-1.453Zm.726 1.326h-4.845v1.453h4.845v-1.453Zm-4.852 0a5.454 5.454 0 0 0-2.155.467l.587 1.329a4.015 4.015 0 0 1 1.582-.343l-.014-1.453Zm-2.155.467a5.62 5.62 0 0 0-1.812 1.283l1.057.998a4.18 4.18 0 0 1 1.342-.952l-.587-1.329Zm-1.812 1.283a5.845 5.845 0 0 0-1.194 1.897l1.355.525a4.401 4.401 0 0 1 .896-1.424l-1.057-.998Zm-1.194 1.897a5.984 5.984 0 0 0-.404 2.219l1.453-.013a4.544 4.544 0 0 1 .306-1.681l-1.355-.525Zm-.404 2.213v9.238h1.453v-9.238h-1.453Zm.726 9.965h3.877v-1.453h-3.877v1.453Zm3.15-.727v2.053h1.453v-2.053h-1.453Zm.727 1.326h-3.877v1.454h3.877v-1.454Zm-4.603.727v11.292h1.453v-11.292h-1.453Zm0 11.286a5.939 5.939 0 0 0 1.472 3.975l1.09-.962a4.482 4.482 0 0 1-1.109-3.002l-1.453-.011Zm1.472 3.975a5.556 5.556 0 0 0 3.719 1.878l.116-1.449a4.098 4.098 0 0 1-2.745-1.391l-1.09.962Zm8.219 1.154v2.063h1.453v-2.063h-1.453Zm.726 1.336h-4.845v1.453h4.845v-1.453Zm-4.843 0a5.824 5.824 0 0 1-2.981-.835l-.747 1.247a7.288 7.288 0 0 0 3.724 1.041l.004-1.453Zm-2.981-.835a6.174 6.174 0 0 1-2.202-2.278l-1.267.712a7.623 7.623 0 0 0 2.722 2.813l.747-1.247Zm-3.469-2.278a6.174 6.174 0 0 1-2.202 2.278l.747 1.247a7.63 7.63 0 0 0 2.722-2.813l-1.267-.712Zm-2.202 2.278a5.827 5.827 0 0 1-2.982.835l.005 1.453a7.29 7.29 0 0 0 3.724-1.041l-.747-1.247Zm-2.979.835h-4.846v1.453h4.846v-1.453Zm-4.119.727v-2.053h-1.453v2.053h1.453Zm4.5-1.329a5.555 5.555 0 0 0 3.722-1.882l-1.09-.961a4.11 4.11 0 0 1-2.749 1.395l.117 1.448Zm3.722-1.882a5.94 5.94 0 0 0 1.469-3.983l-1.453.015a4.491 4.491 0 0 1-1.106 3.007l1.09.961Zm1.469-3.975v-11.292h-1.454v11.292h1.454Zm-.727-12.019h-3.876v1.454h3.876v-1.454Zm-3.15.727v-2.053h-1.453v2.053h1.453Zm-.726-1.326h3.876v-1.453h-3.876v1.453Zm4.603-.727v-9.238h-1.454v9.238h1.454Zm0-9.233a5.944 5.944 0 0 0-1.472-3.975l-1.09.962a4.49 4.49 0 0 1 1.109 3.002l1.453.011Zm-1.472-3.975a5.56 5.56 0 0 0-3.719-1.878l-.117 1.449a4.105 4.105 0 0 1 2.746 1.391l1.09-.962Zm-8.219-1.154v-2.062h-1.453v2.062h1.453Zm-.727-1.336h4.846v-1.453h-4.846v1.453Zm16.152 34.893h5.168v-1.454h-5.168v1.454Zm-16.152.01h5.169v-1.454h-5.169v1.454Zm5.169-34.293h-5.169v1.453h5.169v-1.453Z" mask="url(#b)"/>
  <defs>
    <clipPath id="a">
      <path fill="#fff" d="M0 0h212.048v41.578H0z" transform="translate(101.148 196.926)"/>
    </clipPath>
  </defs>
</svg>
