<svg xmlns="http://www.w3.org/2000/svg" fill="none" viewBox="0 0 600 520">
  <rect width="218.785" height="218.785" fill="#D8EBFD" rx="17.697" transform="scale(1 -1) rotate(-76.025 83.294 -227.64)"/>
  <rect width="277.889" height="277.889" fill="#ECF5FE" rx="19.922" transform="scale(1 -1) rotate(-61.809 -185.159 -188.654)"/>
  <path fill="#FFB700" d="M465.048 113.18a1.937 1.937 0 0 1 0 2.767 2 2 0 0 1-2.803 0l-4.171-4.116a1.938 1.938 0 0 1 0-2.766 2.002 2.002 0 0 1 2.804 0l4.17 4.115Zm-9.764-9.634a1.938 1.938 0 0 1 0 2.766 2.002 2.002 0 0 1-2.804 0l-4.171-4.115a1.938 1.938 0 0 1 0-2.766 2.002 2.002 0 0 1 2.804 0l4.171 4.115Zm9.764-4.116a2 2 0 0 0-2.803 0l-4.171 4.116a1.938 1.938 0 0 0 0 2.766c.774.764 2.03.764 2.804 0l4.17-4.115a1.936 1.936 0 0 0 0-2.766Zm-12.568 9.635a2.002 2.002 0 0 1 2.804 0 1.938 1.938 0 0 1 0 2.766l-4.171 4.116a2.002 2.002 0 0 1-2.804 0 1.939 1.939 0 0 1 0-2.767l4.171-4.115Z"/>
  <path fill="#fff" fill-rule="evenodd" d="M264.37 411.811a7.558 7.558 0 0 0-7.556-7.561 7.558 7.558 0 0 0-7.556 7.561 7.56 7.56 0 0 0 7.556 7.561 7.56 7.56 0 0 0 7.556-7.561Zm-11.485 0a3.93 3.93 0 1 1 7.858 0 3.93 3.93 0 1 1-7.858 0Zm251.262-242.186a7.558 7.558 0 0 0-7.556-7.561 7.558 7.558 0 0 0-7.556 7.561 7.558 7.558 0 0 0 7.556 7.561 7.558 7.558 0 0 0 7.556-7.561Zm-11.485 0a3.93 3.93 0 0 1 3.929-3.932 3.93 3.93 0 0 1 3.929 3.932 3.93 3.93 0 1 1-7.858 0Z" clip-rule="evenodd"/>
  <path fill="#87AFFF" d="M215.727 456.323a1.939 1.939 0 0 1 0 2.767 2.002 2.002 0 0 1-2.804 0l-4.17-4.116a1.936 1.936 0 0 1 0-2.766 2.002 2.002 0 0 1 2.804 0l4.17 4.115Zm-9.765-9.634a1.936 1.936 0 0 1 0 2.766 2 2 0 0 1-2.803 0l-4.171-4.115a1.938 1.938 0 0 1 0-2.766 2.002 2.002 0 0 1 2.804 0l4.17 4.115Zm9.765-4.115a2.002 2.002 0 0 0-2.804 0l-4.17 4.115a1.936 1.936 0 0 0 0 2.766 2.002 2.002 0 0 0 2.804 0l4.17-4.115a1.938 1.938 0 0 0 0-2.766Zm-12.568 9.634a2 2 0 0 1 2.803 0 1.936 1.936 0 0 1 0 2.766l-4.17 4.116a2.002 2.002 0 0 1-2.804 0 1.939 1.939 0 0 1 0-2.767l4.171-4.115Z"/>
  <ellipse cx="304.338" cy="399.149" fill="#769EEB" rx="191.148" ry="16.852"/>
  <path fill="#4EC4C8" d="M166.748 354.967h287.47v12.817a1.83 1.83 0 0 1-1.831 1.831H168.579a1.831 1.831 0 0 1-1.831-1.831v-12.817Z"/>
  <path fill="#493A91" d="M436.866 179.188H184.1c-9.544 0-17.352 7.91-17.352 17.578v158.2h287.47v-158.2c0-9.668-7.808-17.578-17.352-17.578Z"/>
  <path fill="#846DFF" d="M439.571 195.667H181.397a1.83 1.83 0 0 0-1.831 1.831v140.988c0 1.011.82 1.831 1.831 1.831h258.174a1.83 1.83 0 0 0 1.831-1.831V197.498a1.83 1.83 0 0 0-1.831-1.831Z"/>
  <path fill="#9FE6E8" d="M139.284 372.462a2.848 2.848 0 0 1 2.848-2.849h334.874a2.848 2.848 0 0 1 2.848 2.849c0 12.584-10.201 22.786-22.786 22.786H162.07c-12.584 0-22.786-10.202-22.786-22.786Z"/>
  <path fill="#0C9A9E" d="M250.978 371.037c0-.786.638-1.424 1.424-1.424H368.57c.787 0 1.424.638 1.424 1.424 0 6.293-5.1 11.393-11.393 11.393h-96.23c-6.292 0-11.393-5.1-11.393-11.393Z"/>
  <path fill="#7DA9FF" d="M207.355 215.17a3.56 3.56 0 0 1 3.56-3.56h197.096a3.56 3.56 0 0 1 3.56 3.56v124.669H207.355V215.17Z"/>
  <path fill="#B3CCFF" d="M269.283 215.162a3.552 3.552 0 0 1 3.552-3.552h50.198a3.552 3.552 0 0 1 3.552 3.552v10.328a3.551 3.551 0 0 0 2.82 3.475l17.676 3.728c3.872.816 3.709 6.398-.204 6.988l-20.028 3.017a3.615 3.615 0 0 1-.53.039h-53.484a3.552 3.552 0 0 1-3.552-3.552v-24.023Z"/>
  <path fill="#D9E5FF" d="M238.154 215.162a3.552 3.552 0 0 1 3.552-3.552h50.198a3.552 3.552 0 0 1 3.552 3.552v10.328a3.551 3.551 0 0 0 2.819 3.475l17.676 3.728c3.873.816 3.71 6.398-.204 6.988l-20.028 3.017a3.601 3.601 0 0 1-.529.039h-53.484a3.552 3.552 0 0 1-3.552-3.552v-24.023Z"/>
  <path fill="#FAFCFF" d="M207.355 215.162a3.552 3.552 0 0 1 3.552-3.552h50.198a3.552 3.552 0 0 1 3.552 3.552v10.328a3.551 3.551 0 0 0 2.819 3.475l17.676 3.728c3.873.816 3.71 6.398-.203 6.988l-20.029 3.017a3.601 3.601 0 0 1-.529.039h-53.484a3.552 3.552 0 0 1-3.552-3.552v-24.023Z"/>
  <path fill="#FAFCFF" d="M207.355 231a3.56 3.56 0 0 1 3.56-3.56h200.656v112.398H207.355V231Z"/>
  <rect width="86.058" height="5.493" x="223.507" y="246.398" fill="#8F83CE" rx="1.831"/>
  <rect width="34.789" height="5.493" x="326.045" y="246.398" fill="#8F83CE" rx="1.831"/>
  <rect width="34.789" height="5.493" x="368.157" y="246.398" fill="#8F83CE" rx="1.831"/>
  <rect width="86.058" height="5.493" x="223.507" y="259.215" fill="#8F83CE" rx="1.831"/>
  <rect width="34.789" height="5.493" x="326.045" y="259.215" fill="#8F83CE" rx="1.831"/>
  <rect width="34.789" height="5.493" x="368.157" y="259.215" fill="#8F83CE" rx="1.831"/>
  <rect width="67.748" height="5.493" x="223.507" y="272.033" fill="#8F83CE" rx="1.831"/>
  <rect width="34.789" height="5.493" x="326.045" y="272.033" fill="#8F83CE" rx="1.831"/>
  <rect width="34.789" height="5.493" x="368.157" y="272.033" fill="#8F83CE" rx="1.831"/>
  <rect width="86.058" height="5.493" x="223.507" y="284.849" fill="#8F83CE" rx="1.831"/>
  <rect width="34.789" height="5.493" x="326.045" y="284.849" fill="#8F83CE" rx="1.831"/>
  <rect width="86.058" height="5.493" x="223.507" y="297.667" fill="#8F83CE" rx="1.831"/>
  <rect width="34.789" height="5.493" x="326.045" y="297.667" fill="#8F83CE" rx="1.831"/>
  <rect width="34.789" height="5.493" x="368.157" y="297.667" fill="#8F83CE" rx="1.831"/>
  <rect width="86.058" height="5.493" x="223.507" y="310.484" fill="#8F83CE" rx="1.831"/>
  <rect width="34.789" height="5.493" x="326.045" y="310.484" fill="#8F83CE" rx="1.831"/>
  <rect width="34.789" height="5.493" x="368.157" y="310.484" fill="#8F83CE" rx="1.831"/>
  <g filter="url(#a)">
    <circle cx="313.113" cy="282.605" r="36.526" fill="#05F"/>
    <path fill="#fff" fill-rule="evenodd" stroke="#fff" stroke-width="1.76" d="M329.395 299.769a.88.88 0 0 1-.88.88H297.71a.88.88 0 0 1-.88-.88v-11.146a.626.626 0 1 1 1.252 0v9.881c0 .486.394.88.88.88h28.3a.88.88 0 0 0 .881-.88v-9.881a.626.626 0 1 1 1.252 0v11.146Zm-16.909-39.607c.346 0 .626.28.626.626v26.334c0 .786.953 1.178 1.506.619l4.282-4.326a.668.668 0 1 1 .949.94l-6.737 6.805a.88.88 0 0 1-1.251 0l-6.732-6.812a.663.663 0 0 1 .943-.933l4.282 4.326c.553.559 1.506.167 1.506-.619v-26.334c0-.346.28-.626.626-.626Z" clip-rule="evenodd"/>
  </g>
  <path fill="#FF7761" d="M154.774 243.242v-24.353h60.478c4.258 0 7.711-2.911 7.711-6.501v-71.514c0-3.591-1.718-6.931-7.712-6.502H111.748c-4.258 0-7.711 2.911-7.711 6.502v71.514c0 3.59 3.453 6.501 7.711 6.501h12.042l30.984 24.353Z"/>
  <circle r="9.707" fill="#fff" transform="matrix(-1 0 0 1 138.036 163.059)"/>
  <path fill="#fff" d="M152.809 191.789c2.161-1.684 2.704-4.687 1.501-7.149-2.942-6.018-9.124-10.164-16.274-10.164-7.146 0-13.325 4.14-16.269 10.153-1.209 2.47-.677 5.484 1.438 7.242 7.744 6.437 22.288 5.62 29.604-.082Z"/>
  <circle r="9.707" fill="#fff" transform="matrix(-1 0 0 1 188.554 163.059)"/>
  <path fill="#fff" d="M203.326 191.789c2.162-1.684 2.704-4.687 1.501-7.149-2.942-6.018-9.124-10.164-16.274-10.164-7.146 0-13.325 4.14-16.269 10.153-1.209 2.47-.676 5.484 1.438 7.242 7.744 6.437 22.288 5.62 29.604-.082Z"/>
  <path fill="#fff" stroke="#FF7761" stroke-width="2.576" d="M163.295 176.968c9.265 0 17.23 5.549 20.76 13.499 1.319 2.97.726 6.567-1.838 8.754-4.595 3.918-11.667 6.086-18.698 6.237-7.033.151-14.302-1.711-19.227-6.187-2.477-2.25-3.078-5.833-1.752-8.815 3.532-7.945 11.495-13.488 20.755-13.488Z"/>
  <circle r="11.484" fill="#fff" transform="matrix(-1 0 0 1 163.296 164.749)"/>
  <path fill="#FC9" d="m470.051 181.52-10.766 60.361a5.329 5.329 0 0 1-2.452 3.635l-.187.131a5.404 5.404 0 0 1-3.698.652l-95.893-17.104a5.385 5.385 0 0 1-3.218-1.886.455.455 0 0 1-.13-.187 5.347 5.347 0 0 1-1.072-4.264l10.766-60.361a5.215 5.215 0 0 1 2.073-3.348 5.082 5.082 0 0 1 1.543-.873 5.49 5.49 0 0 1 2.715-.2l95.899 17.105a5.715 5.715 0 0 1 3.663 2.457 5.51 5.51 0 0 1 .757 3.882Z"/>
  <path fill="#FF9C37" d="M469.299 177.633c-.461.4-59.289 32.182-59.289 32.182l-44.542-50.654.027-.018.004-.022 56.066-31.098a4.723 4.723 0 0 1 5.868 1.047l41.866 48.563Z"/>
  <path fill="#FAFCFF" d="M460.438 162.752a.79.79 0 0 1 .112.564l-3.712 20.812a.789.789 0 0 1-.401.555l-45.879 24.833a.787.787 0 0 1-.968-.173l-34.48-39.211a.79.79 0 0 1-.185-.66l6.03-33.806a2.408 2.408 0 0 1 2.793-1.947l65.258 11.64a.79.79 0 0 1 .526.351l10.906 17.042Z"/>
  <path fill="#B3CCFF" d="m449.346 145.42 11.302 17.356-13.006-2.319a.964.964 0 0 1-.779-1.117l2.483-13.92Z"/>
  <path fill="#FF9C37" d="M456.827 245.513c-.057.05-.119.092-.184.129l-40.639-38.998 4.829-2.647 35.994 41.516Zm-51.374-40.774L353.835 227.3a.34.34 0 0 1-.128-.183l48.113-26.557 3.633 4.179Z"/>
  <path fill="#493A91" d="M425.968 183.321c-2.291-.408-4.51.358-6.083 1.846l-9.96-7.568c.293-.587.535-1.207.656-1.886a7.003 7.003 0 0 0-.05-2.691l12.701-4.856c1.01 1.726 2.712 3.032 4.831 3.41 3.834.684 7.51-1.879 8.194-5.714a7.072 7.072 0 0 0-5.714-8.195c-3.834-.684-7.51 1.879-8.194 5.714a6.995 6.995 0 0 0 .037 2.587l-12.739 4.87c-1.016-1.681-2.698-2.948-4.78-3.32-3.834-.684-7.51 1.88-8.194 5.714a7.072 7.072 0 0 0 5.714 8.195c2.328.415 4.587-.378 6.164-1.914l9.927 7.542c-.317.614-.578 1.265-.705 1.98a7.072 7.072 0 0 0 5.714 8.195 7.072 7.072 0 0 0 8.195-5.714 7.072 7.072 0 0 0-5.714-8.195Z"/>
  <path fill="#fff" d="M224.978 90.038v7.126h7.121v3.562h-7.121v7.126h-3.561v-7.126h-7.121v-3.563h7.121v-7.125h3.561Z"/>
  <path fill="#87AFFF" d="M250.015 90.038v7.126h7.121v3.562h-7.121v7.126h-3.56v-7.126h-7.122v-3.563h7.122v-7.125h3.56Z"/>
  <defs>
    <filter id="a" width="77.453" height="77.453" x="276.586" y="246.079" color-interpolation-filters="sRGB" filterUnits="userSpaceOnUse">
      <feFlood flood-opacity="0" result="BackgroundImageFix"/>
      <feColorMatrix in="SourceAlpha" result="hardAlpha" values="0 0 0 0 0 0 0 0 0 0 0 0 0 0 0 0 0 0 127 0"/>
      <feOffset dx="4.401" dy="4.401"/>
      <feComposite in2="hardAlpha" operator="out"/>
      <feColorMatrix values="0 0 0 0 0.47451 0 0 0 0 0.380392 0 0 0 0 0.94902 0 0 0 0.5 0"/>
      <feBlend in2="BackgroundImageFix" result="effect1_dropShadow_3054_13649"/>
      <feBlend in="SourceGraphic" in2="effect1_dropShadow_3054_13649" result="shape"/>
    </filter>
  </defs>
</svg>
