<svg xmlns="http://www.w3.org/2000/svg" fill="none" viewBox="0 0 600 520">
  <rect width="277.889" height="277.889" x="549.226" y="262.726" fill="#ECF5FE" rx="19.922" transform="rotate(118.191 549.226 262.726)"/>
  <rect width="218.785" height="218.785" x="333.734" y="67.786" fill="#D8EBFD" rx="17.697" transform="rotate(103.975 333.734 67.786)"/>
  <path fill="#FFB700" fill-rule="evenodd" d="M416.519 425.968a7.56 7.56 0 0 1 7.556-7.561 7.558 7.558 0 0 1 7.555 7.561 7.558 7.558 0 0 1-7.555 7.561 7.558 7.558 0 0 1-7.556-7.561Zm11.484 0a3.93 3.93 0 1 0-7.858 0 3.93 3.93 0 1 0 7.858 0Z" clip-rule="evenodd"/>
  <path fill="#fff" fill-rule="evenodd" d="M113.665 169.625a7.558 7.558 0 0 1 7.556-7.561 7.558 7.558 0 0 1 7.556 7.561 7.56 7.56 0 0 1-7.556 7.561 7.56 7.56 0 0 1-7.556-7.561Zm11.485 0a3.93 3.93 0 1 0-7.858 0 3.93 3.93 0 1 0 7.858 0Z" clip-rule="evenodd"/>
  <path fill="#fff" d="M452.727 351.994a1.939 1.939 0 0 0 0 2.767c.774.764 2.03.764 2.804 0l4.17-4.115a1.937 1.937 0 0 0 0-2.767 2 2 0 0 0-2.803 0l-4.171 4.115Zm9.765-9.634a1.937 1.937 0 0 0 0 2.767 2.002 2.002 0 0 0 2.804 0l4.17-4.115a1.939 1.939 0 0 0 0-2.767 2.002 2.002 0 0 0-2.804 0l-4.17 4.115Zm-9.765-4.115a2.002 2.002 0 0 1 2.804 0l4.17 4.115a1.937 1.937 0 0 1 0 2.767 2 2 0 0 1-2.803 0l-4.171-4.115a1.939 1.939 0 0 1 0-2.767Zm12.569 9.634a2.002 2.002 0 0 0-2.804 0 1.937 1.937 0 0 0 0 2.767l4.17 4.115c.775.764 2.03.764 2.804 0a1.939 1.939 0 0 0 0-2.767l-4.17-4.115Z"/>
  <path fill="#87AFFF" d="M382.43 104.032a1.938 1.938 0 0 0 0 2.766c.774.764 2.03.764 2.804 0l4.171-4.115a1.938 1.938 0 0 0 0-2.767 2.002 2.002 0 0 0-2.804 0l-4.171 4.116Zm9.765-9.635a1.938 1.938 0 0 0 0 2.767 2.002 2.002 0 0 0 2.804 0l4.17-4.115a1.937 1.937 0 0 0 0-2.767 2.002 2.002 0 0 0-2.804 0l-4.17 4.115Zm-9.765-4.115a2.002 2.002 0 0 1 2.804 0l4.171 4.115a1.938 1.938 0 0 1 0 2.767 2.002 2.002 0 0 1-2.804 0l-4.171-4.115a1.938 1.938 0 0 1 0-2.767Zm12.569 9.634a2.002 2.002 0 0 0-2.804 0 1.938 1.938 0 0 0 0 2.767l4.17 4.115c.775.764 2.03.764 2.804 0a1.936 1.936 0 0 0 0-2.766l-4.17-4.116Z"/>
  <path fill="#769EEB" fill-rule="evenodd" d="m406.669 361.462.009 9.132a2.943 2.943 0 0 1-2.94 2.946l-11.151.011.013 12.883a2.943 2.943 0 0 1-2.941 2.946l-174.592.167a2.944 2.944 0 0 1-2.946-2.941l-.205-214.934a2.943 2.943 0 0 1 2.94-2.946l11.151-.011-.013-12.883a2.943 2.943 0 0 1 2.941-2.946l15.564-.015-.008-9.132a2.942 2.942 0 0 1 2.94-2.946l142.147-.136 34.559 34.493c.553.552.863 1.3.864 2.081l.049 51.104 5.932-13.735a2.187 2.187 0 0 1 2.873-1.141l1.131.489-.009-.007 2.601-6.023a6.658 6.658 0 0 1 6.49-4.008 6.662 6.662 0 0 1 5.745 9.294l-2.599 6.019-.017-.003 3.021 1.304c.042.015.083.032.125.05l7.358 3.177c.275.119.532.281.738.498.618.653.758 1.576.424 2.349l-16.954 39.265a2.15 2.15 0 0 1-2.83 1.123 2.154 2.154 0 0 1-1.123-2.83l15.69-36.337a1.035 1.035 0 0 0-.541-1.362l-4.386-1.894-.083-.038-18.304 42.391-.026-.011-5.208 12.063.076 79.533a2.943 2.943 0 0 1-2.94 2.946l-15.565.015Z" clip-rule="evenodd"/>
  <path fill="#69CED0" d="m205.104 377.427-.205-214.935a2.943 2.943 0 0 1 2.94-2.946l142.148-.135 34.558 34.493c.553.551.864 1.299.864 2.08l.173 181.271a2.942 2.942 0 0 1-2.94 2.945l-174.592.167a2.943 2.943 0 0 1-2.946-2.94Z"/>
  <path fill="#9FE6E8" d="m219.182 361.587-.205-214.935a2.943 2.943 0 0 1 2.94-2.946l142.148-.135 34.559 34.493c.552.551.863 1.299.864 2.08l.172 181.271a2.943 2.943 0 0 1-2.94 2.946l-174.592.166a2.942 2.942 0 0 1-2.946-2.94Z"/>
  <path fill="#CFF2F3" d="m237.678 349.493-.205-214.934a2.942 2.942 0 0 1 2.94-2.946l142.148-.136 34.559 34.493c.552.552.863 1.3.864 2.081l.172 181.27a2.942 2.942 0 0 1-2.94 2.946l-174.592.167a2.943 2.943 0 0 1-2.946-2.941Z"/>
  <path fill="#4CCBCE" d="m382.602 166.867-.034-35.388 35.422 35.354-35.388.034Zm-114.406 25.71a2.944 2.944 0 0 1 2.94-2.946l105.594-.1a2.942 2.942 0 0 1 2.946 2.94l.003 3.365a2.942 2.942 0 0 1-2.94 2.946l-105.594.101a2.944 2.944 0 0 1-2.946-2.94l-.003-3.366Zm.018 24.398a2.942 2.942 0 0 1 2.94-2.946l105.594-.101a2.944 2.944 0 0 1 2.946 2.941l.003 3.365a2.944 2.944 0 0 1-2.94 2.946l-105.594.1a2.942 2.942 0 0 1-2.946-2.94l-.003-3.365Zm.029 102.925a2.943 2.943 0 0 1 2.94-2.946l95.342-.091a2.944 2.944 0 0 1 2.946 2.941l.003 3.365a2.943 2.943 0 0 1-2.94 2.946l-95.342.091a2.944 2.944 0 0 1-2.946-2.941l-.003-3.365Zm-.048-53.256a2.943 2.943 0 0 1 2.94-2.946l105.594-.101a2.943 2.943 0 0 1 2.946 2.941l.003 3.365a2.943 2.943 0 0 1-2.94 2.946l-105.594.1a2.943 2.943 0 0 1-2.946-2.94l-.003-3.365Zm0 25.303a2.943 2.943 0 0 1 2.94-2.945l105.594-.101a2.942 2.942 0 0 1 2.946 2.94l.003 3.365a2.942 2.942 0 0 1-2.94 2.946l-105.594.101a2.943 2.943 0 0 1-2.946-2.94l-.003-3.366Zm-.003-50.034a2.944 2.944 0 0 1 2.941-2.946l105.593-.1a2.942 2.942 0 0 1 2.946 2.94l.003 3.365a2.942 2.942 0 0 1-2.94 2.946l-105.594.101a2.944 2.944 0 0 1-2.946-2.94l-.003-3.366Z"/>
  <rect width="77.63" height="15.142" x="173.551" y="312.627" fill="#322472" rx="6.042" transform="rotate(-44.962 173.551 312.627)"/>
  <mask id="a" width="110" height="110" x="201" y="186" maskUnits="userSpaceOnUse" style="mask-type:alpha">
    <path fill="#9FE6E8" d="M310.859 240.695c0 30.106-24.494 54.603-54.603 54.603-11.087 0-21.767-3.31-30.879-9.569a54.66 54.66 0 0 1-7.731-6.421 54.769 54.769 0 0 1-6.424-7.736c-6.259-9.11-9.568-19.79-9.568-30.877 0-30.109 24.497-54.603 54.602-54.603 15.057 0 28.708 6.125 38.591 16.015 9.89 9.887 16.012 23.535 16.012 38.588Z"/>
  </mask>
  <g mask="url(#a)">
    <path fill="#9FE6E8" d="M201.654 187.718h105.015v127.563H201.654z"/>
    <path fill="#49CFD3" d="M313.32 239.383c0 30.106-24.494 54.603-54.603 54.603-11.087 0-21.767-3.31-30.88-9.568a54.663 54.663 0 0 1-7.73-6.421c2.854.606 95.571 15.989 77.201-77.202 9.89 9.887 16.012 23.535 16.012 38.588Z"/>
  </g>
  <path fill="#A18FFE" d="M300.685 197.418c-10.75-10.753-25.595-17.413-41.967-17.413-32.746 0-59.384 26.638-59.384 59.378 0 12.062 3.6 23.675 10.406 33.58a59.402 59.402 0 0 0 15.394 15.397c9.909 6.807 21.522 10.406 33.584 10.406 32.74 0 59.377-26.637 59.377-59.383 0-16.369-6.66-31.212-17.41-41.965Zm-41.967 91.793c-10.122 0-19.862-3.017-28.176-8.728a49.778 49.778 0 0 1-7.055-5.867 49.537 49.537 0 0 1-5.87-7.061c-5.711-8.31-8.727-18.05-8.727-28.172 0-27.472 22.353-49.822 49.828-49.822 13.737 0 26.194 5.59 35.212 14.613 9.023 9.02 14.61 21.477 14.61 35.209 0 27.474-22.35 49.828-49.822 49.828Z"/>
  <path stroke="#fff" stroke-linecap="round" stroke-width="8.794" d="M260.161 200.792c-4.239-.001-9.312-.014-12.881 1.907m-29.077 36.687c1.115-17.11 8.719-26.059 17.584-31.318"/>
  <path fill="#7961F2" d="M318.093 239.381c0 32.746-26.637 59.383-59.377 59.383-12.062 0-23.675-3.599-33.584-10.406a59.454 59.454 0 0 1-8.406-6.985l6.759-6.759a49.666 49.666 0 0 0 7.055 5.867c8.313 5.711 18.053 8.728 28.176 8.728 27.471 0 49.821-22.354 49.821-49.828 0-13.732-5.586-26.189-14.61-35.209l6.756-6.755c10.75 10.752 17.41 25.595 17.41 41.964Z"/>
  <rect width="82.636" height="28.361" x="141.591" y="335.351" fill="#493A91" rx="6.042" transform="rotate(-44.962 141.591 335.351)"/>
  <path stroke="#C9C0FA" stroke-linecap="round" stroke-width="6.042" d="m199.335 288.124-15.346 15.345m-6.42 6.141-2.644 2.644"/>
  <path fill="#097376" d="M433.162 257.969a2.155 2.155 0 0 1-2.224-2.993l15.69-36.336a1.037 1.037 0 0 0-.541-1.363l-4.386-1.893c-1.082-.468-1.666-1.71-1.232-2.806a2.154 2.154 0 0 1 2.856-1.184l7.358 3.178c.275.118.532.28.738.497.618.654.758 1.576.424 2.35l-16.954 39.265a2.15 2.15 0 0 1-1.729 1.285Z"/>
  <path fill="#A18FFE" d="m398.527 314.789-13.374 12.691c-1.73 1.626-4.566.401-4.568-1.971l-.004-3.806-.301-14.715 11.43 4.259 6.817 3.542Z"/>
  <path fill="#493A91" d="m423.29 257.722-24.386 56.477a1.446 1.446 0 0 1-1.507.868c-1.976-.248-6.249-.843-9.204-1.683-3.059-.871-6.294-4.082-7.606-5.497-.38-.409-.466-1-.245-1.512l24.453-56.639 10.066.256 8.429 7.73Z"/>
  <path fill="#9FE6E8" d="M443.297 200.619a6.633 6.633 0 0 1-.502 3.405l-2.599 6.02-6.937-1.336-5.3-3.947 2.602-6.022a6.654 6.654 0 0 1 6.489-4.008 6.661 6.661 0 0 1 6.247 5.888Z"/>
  <path fill="#0FC0C5" d="m443.323 211.399-20.009 46.339-18.495-7.986 19.145-44.33a2.186 2.186 0 0 1 2.874-1.141l16.485 7.118Z"/>
  <path stroke="#CFF2F3" stroke-linecap="round" stroke-width="4.415" d="m428.539 209.436-12.508 28.695m-4.414 9.565 1.952-4.414"/>
  <path fill="#493A91" d="m257.634 233.856-13.377-13.376a2.016 2.016 0 0 1-.591-1.434c0-.543.21-1.052.591-1.434l1.215-1.214a2.011 2.011 0 0 1 1.434-.592c.542 0 1.069.21 1.45.592l7.821 7.804v-19.256c0-1.118.875-2.001 1.993-2.001h1.717c1.119 0 2.082.883 2.082 2.001v19.344l7.864-7.892a1.987 1.987 0 0 1 1.421-.592 2 2 0 0 1 1.426.592l1.211 1.215c.382.382.59.89.59 1.433s-.211 1.052-.593 1.434l-13.376 13.376a2.012 2.012 0 0 1-1.438.592 2.015 2.015 0 0 1-1.44-.592Zm10.475 7.595 13.376-13.377a2.016 2.016 0 0 1 1.434-.591c.543 0 1.052.21 1.433.591l1.215 1.215a2.055 2.055 0 0 1 0 2.884l-7.804 7.821h19.256c1.118 0 2.001.875 2.001 1.993v1.717c0 1.118-.883 2.082-2.001 2.082h-19.344l7.892 7.864c.381.382.591.877.591 1.42a2 2 0 0 1-.591 1.427l-1.215 1.211a2.01 2.01 0 0 1-1.434.59 2.013 2.013 0 0 1-1.433-.593l-13.377-13.376a2.015 2.015 0 0 1-.591-1.438 2.015 2.015 0 0 1 .592-1.44Zm-7.596 10.475 13.377 13.376c.381.382.591.891.591 1.434 0 .543-.21 1.051-.591 1.433l-1.215 1.215a2.055 2.055 0 0 1-2.884 0l-7.821-7.804v19.256a1.978 1.978 0 0 1-1.993 2.001h-1.717c-1.119 0-2.082-.883-2.082-2.001v-19.344l-7.864 7.892a1.986 1.986 0 0 1-1.421.591c-.542 0-1.045-.21-1.426-.591l-1.211-1.215a2.01 2.01 0 0 1-.59-1.434c0-.542.211-1.051.593-1.433l13.376-13.377a2.015 2.015 0 0 1 1.438-.591 2.011 2.011 0 0 1 1.44.592Zm-10.474-7.596-13.376 13.376a2.013 2.013 0 0 1-1.434.592 2.01 2.01 0 0 1-1.433-.592l-1.215-1.214a2.013 2.013 0 0 1-.592-1.434c0-.542.21-1.069.592-1.45l7.804-7.821h-19.256a1.978 1.978 0 0 1-2.001-1.993v-1.718c0-1.118.883-2.081 2.001-2.081h19.344l-7.892-7.865a1.982 1.982 0 0 1-.591-1.42c0-.542.21-1.045.591-1.426l1.215-1.211a2.01 2.01 0 0 1 1.434-.59c.542 0 1.051.211 1.433.593l13.376 13.376c.383.383.594.895.592 1.438a2.015 2.015 0 0 1-.592 1.44Z"/>
  <path fill="#F8C12F" d="M221.125 80.407v7.126h7.122v3.563h-7.122v7.126h-3.56v-7.126h-7.121v-3.563h7.121v-7.126h3.56Z"/>
</svg>
