<svg width="400" height="320" viewBox="0 0 400 320" fill="none" xmlns="http://www.w3.org/2000/svg">
<g clip-path="url(#clip0_2_2)">
<mask id="mask0_2_2" style="mask-type:luminance" maskUnits="userSpaceOnUse" x="0" y="0" width="400" height="320">
<path d="M0 0H400V320H0V0Z" fill="white"/>
</mask>
<g mask="url(#mask0_2_2)">
<path fill-rule="evenodd" clip-rule="evenodd" d="M159.364 98.364C159.364 98.9599 159.481 99.55 159.709 100.101C159.937 100.651 160.271 101.152 160.692 101.573C161.113 101.995 161.613 102.329 162.164 102.557C162.714 102.785 163.304 102.903 163.9 102.903C164.496 102.903 165.086 102.785 165.636 102.557C166.187 102.329 166.687 101.995 167.108 101.573C167.529 101.152 167.863 100.651 168.091 100.101C168.319 99.55 168.436 98.9599 168.436 98.364C168.436 97.1606 167.959 96.0064 167.108 95.1552C166.257 94.304 165.103 93.8255 163.9 93.825C163.304 93.8253 162.714 93.9429 162.164 94.1712C161.613 94.3995 161.113 94.734 160.692 95.1556C160.271 95.5771 159.936 96.0776 159.709 96.6282C159.481 97.1789 159.364 97.7681 159.364 98.364ZM166.258 98.364C166.267 98.6796 166.213 98.9938 166.099 99.288C165.984 99.5823 165.812 99.8506 165.592 100.077C165.372 100.304 165.109 100.484 164.818 100.607C164.528 100.73 164.215 100.793 163.9 100.793C163.584 100.793 163.271 100.73 162.98 100.607C162.69 100.484 162.426 100.304 162.206 100.078C161.986 99.8514 161.814 99.5832 161.7 99.289C161.585 98.9948 161.531 98.6806 161.54 98.365C161.558 97.7512 161.814 97.1686 162.255 96.7408C162.695 96.313 163.285 96.0737 163.899 96.0737C164.513 96.0737 165.103 96.313 165.543 96.7408C165.984 97.1686 166.24 97.7502 166.258 98.364Z" fill="#FFB700"/>
<path d="M216.164 67.878V72.418H220.7V74.687H216.164V79.226H213.896V74.686H209.36V72.417H213.896V67.878H216.164Z" fill="#FFB700"/>
<path d="M210.468 129.899V134.438H215.004V136.707H210.468V141.246H208.2V136.707H203.664V134.438H208.2V129.899H210.468ZM180.598 55.96C180.488 55.8517 180.4 55.7226 180.34 55.5801C180.28 55.4376 180.25 55.2846 180.25 55.13C180.25 54.9754 180.28 54.8224 180.34 54.6799C180.4 54.5374 180.488 54.4083 180.598 54.3C180.823 54.0795 181.125 53.9559 181.439 53.9559C181.754 53.9559 182.056 54.0795 182.281 54.3L184.785 56.77C184.895 56.8784 184.983 57.0077 185.042 57.1503C185.102 57.2929 185.133 57.4459 185.133 57.6005C185.133 57.7551 185.102 57.9081 185.042 58.0507C184.983 58.1933 184.895 58.3226 184.785 58.431C184.56 58.6516 184.258 58.7752 183.943 58.7752C183.628 58.7752 183.326 58.6516 183.101 58.431L180.598 55.96ZM186.46 61.744C186.35 61.6357 186.262 61.5066 186.202 61.3641C186.142 61.2216 186.112 61.0686 186.112 60.914C186.112 60.7594 186.142 60.6064 186.202 60.4639C186.262 60.3214 186.35 60.1923 186.46 60.084C186.685 59.8635 186.987 59.7399 187.301 59.7399C187.616 59.7399 187.918 59.8635 188.143 60.084L190.647 62.554C190.757 62.6624 190.844 62.7916 190.904 62.9341C190.964 63.0766 190.994 63.2295 190.994 63.384C190.994 63.5385 190.964 63.6914 190.904 63.8339C190.844 63.9764 190.757 64.1056 190.647 64.214C190.422 64.4344 190.12 64.5578 189.805 64.5578C189.49 64.5578 189.188 64.4344 188.963 64.214L186.46 61.744ZM180.598 64.215C180.823 64.4355 181.125 64.5591 181.439 64.5591C181.754 64.5591 182.056 64.4355 182.281 64.215L184.785 61.745C184.895 61.6366 184.983 61.5073 185.042 61.3647C185.102 61.2221 185.133 61.0691 185.133 60.9145C185.133 60.7599 185.102 60.6069 185.042 60.4643C184.983 60.3217 184.895 60.1924 184.785 60.084C184.56 59.8634 184.258 59.7398 183.943 59.7398C183.628 59.7398 183.326 59.8634 183.101 60.084L180.598 62.554C180.488 62.6623 180.4 62.7914 180.34 62.9339C180.28 63.0764 180.25 63.2294 180.25 63.384C180.25 63.5386 180.28 63.6916 180.34 63.8341C180.4 63.9766 180.488 64.1067 180.598 64.215ZM188.143 58.431C187.918 58.6515 187.616 58.7751 187.301 58.7751C186.987 58.7751 186.685 58.6515 186.46 58.431C186.35 58.3227 186.262 58.1936 186.202 58.0511C186.142 57.9086 186.112 57.7556 186.112 57.601C186.112 57.4464 186.142 57.2934 186.202 57.1509C186.262 57.0084 186.35 56.8793 186.46 56.771L188.963 54.3C189.188 54.0796 189.49 53.9562 189.805 53.9562C190.12 53.9562 190.422 54.0796 190.647 54.3C190.757 54.4084 190.844 54.5376 190.904 54.6801C190.964 54.8226 190.994 54.9755 190.994 55.13C190.994 55.2845 190.964 55.4374 190.904 55.5799C190.844 55.7224 190.757 55.8516 190.647 55.96L188.143 58.431Z" fill="#87AFFF"/>
<path d="M95.413 265.118C134.412 265.118 166.027 259.52 166.027 252.614C166.027 245.708 134.412 240.11 95.413 240.11C56.414 240.11 24.799 245.708 24.799 252.614C24.799 259.52 56.414 265.118 95.413 265.118Z" fill="#769EEB"/>
<path d="M192.416 157.567C192.258 157.417 192.064 157.311 191.853 157.26C191.641 157.209 191.42 157.214 191.211 157.276C191.002 157.337 190.813 157.452 190.663 157.61C190.513 157.767 190.407 157.962 190.356 158.173L184.986 180.327C184.968 180.403 184.934 180.475 184.888 180.538C184.842 180.602 184.784 180.655 184.717 180.696C184.65 180.737 184.575 180.764 184.498 180.776C184.42 180.788 184.341 180.785 184.265 180.766L181.591 180.118C180.932 179.958 180.233 180.327 180.053 180.982C180.009 181.142 179.997 181.309 180.019 181.474C180.041 181.638 180.096 181.797 180.18 181.94C180.264 182.083 180.376 182.208 180.51 182.307C180.643 182.406 180.795 182.477 180.956 182.516L185.443 183.603C185.61 183.644 185.785 183.659 185.955 183.63C186.465 183.544 186.849 183.168 186.964 182.696L192.766 158.757C192.817 158.545 192.812 158.324 192.751 158.115C192.689 157.906 192.574 157.717 192.416 157.567Z" fill="#097376"/>
<path d="M196.171 119.424L194.414 108.951C194.182 107.604 192.453 107.184 191.63 108.275L190.31 110.025L185.074 116.691L191.808 118.691L196.171 119.424Z" fill="#A18FFE"/>
<path d="M187.79 154.262L196.135 119.83C196.179 119.655 196.164 119.47 196.093 119.303C196.022 119.137 195.9 118.998 195.743 118.908C194.748 118.337 192.576 117.131 190.925 116.494C189.216 115.834 186.615 116.191 185.521 116.388C185.367 116.417 185.225 116.49 185.112 116.598C184.999 116.707 184.92 116.846 184.885 116.999L176.514 151.529L181.234 154.898L187.79 154.262Z" fill="#493A91"/>
<path d="M177.21 187.464C177.659 186.994 177.994 186.402 178.159 185.723L179.049 182.053L175.394 180.265L171.588 180.244L170.699 183.917C170.58 184.407 170.559 184.915 170.637 185.413C170.714 185.911 170.889 186.388 171.152 186.818C171.414 187.249 171.759 187.623 172.166 187.92C172.573 188.217 173.034 188.431 173.524 188.549C174.18 188.708 174.865 188.692 175.513 188.501C176.16 188.311 176.745 187.953 177.21 187.464Z" fill="#9FE6E8"/>
<path d="M180.958 182.514L187.806 154.262L176.53 151.529L169.98 178.557C169.902 178.881 169.955 179.224 170.129 179.509C170.303 179.794 170.583 179.998 170.907 180.077L180.958 182.514Z" fill="#0FC0C5"/>
<path d="M173.48 178.295L177.666 160.759M178.949 154.829L178.318 157.537" stroke="#CFF2F3" stroke-width="2.543" stroke-linecap="round"/>
<path d="M165.612 173.653C165.643 172.885 165.824 172.131 166.147 171.434C166.469 170.737 166.927 170.11 167.492 169.59C168.057 169.07 168.72 168.666 169.441 168.403C170.163 168.139 170.929 168.02 171.697 168.053C172.464 168.087 173.218 168.271 173.914 168.596C174.61 168.921 175.235 169.38 175.753 169.948C176.272 170.515 176.673 171.179 176.934 171.901C177.195 172.624 177.311 173.391 177.275 174.158C177.203 175.701 176.522 177.152 175.382 178.194C174.242 179.236 172.735 179.783 171.192 179.717C169.649 179.65 168.195 178.974 167.149 177.838C166.103 176.701 165.551 175.196 165.612 173.653Z" fill="black" stroke="black" stroke-width="0.709"/>
<path d="M134.203 209.393C145.199 202.137 158.801 194.242 169.279 177.696" stroke="black" stroke-width="3.544"/>
<path d="M36.349 238.792C36.5646 239.527 36.6332 240.298 36.5509 241.06C36.4686 241.822 36.237 242.56 35.8694 243.233C35.5017 243.905 35.0053 244.499 34.4083 244.98C33.8113 245.46 33.1255 245.818 32.39 246.034C31.6545 246.25 30.8838 246.318 30.1218 246.236C29.3599 246.154 28.6215 245.922 27.9491 245.554C27.2766 245.187 26.6831 244.69 26.2025 244.093C25.7219 243.496 25.3636 242.81 25.148 242.075C24.7126 240.59 24.8852 238.992 25.6276 237.634C26.3701 236.276 27.6217 235.268 29.107 234.833C30.5923 234.398 32.1898 234.57 33.5479 235.313C34.9061 236.055 35.9136 237.307 36.349 238.792Z" fill="black" stroke="black" stroke-width="0.709"/>
<path d="M54.564 194.837C46.494 205.25 36.162 217.107 31.577 236.148" stroke="black" stroke-width="3.544"/>
<path d="M31.887 133.192L52.673 128.998C52.5402 128.289 52.4059 127.58 52.27 126.871C51.828 124.564 51.228 121.487 50.624 118.407C50.017 115.316 49.4077 112.225 48.796 109.134C47.9801 109.996 47.1956 110.887 46.444 111.805C43.4 115.49 38.686 121.967 31.887 133.192ZM30.897 137.008C33.857 143.518 36.262 152.407 38.224 162.315C40.414 173.373 42.079 185.845 43.327 197.986C45.822 222.265 46.66 245.342 46.666 253.375C46.6627 253.494 46.6838 253.612 46.728 253.723C46.7722 253.833 46.8386 253.933 46.923 254.017C46.994 254.085 47.0796 254.136 47.1731 254.165C47.2667 254.195 47.3658 254.203 47.463 254.189C55.611 253.246 79.767 249.973 102.07 245.84C113.228 243.772 123.872 241.498 131.805 239.203C135.78 238.053 139.003 236.918 141.251 235.83C142.379 235.285 143.189 234.785 143.712 234.349C144.213 233.932 144.286 233.712 144.289 233.712L144.287 233.722C149.829 202.831 146.696 169.181 140.535 143.105C137.455 130.07 133.635 118.998 129.808 111.157C127.892 107.229 126.006 104.178 124.255 102.105C122.498 100.025 121.13 99.227 120.233 99.11C112.619 100.377 95.118 102.473 79.55 104.25C70.3853 105.294 61.2176 106.311 52.047 107.302L52.433 109.253C52.89 111.563 53.497 114.644 54.102 117.725C54.706 120.806 55.308 123.889 55.752 126.205C55.972 127.361 56.156 128.331 56.28 129.014C56.342 129.354 56.391 129.632 56.424 129.829C56.44 129.924 56.454 130.019 56.464 130.099C56.5055 130.395 56.4782 130.697 56.384 130.981C56.2984 131.174 56.1935 131.359 56.071 131.531C55.89 131.715 55.419 131.994 55.058 132.115L55.061 132.132L30.898 137.008H30.897Z" fill="white" stroke="black" stroke-width="3.544"/>
<path d="M120.291 97.335C120.204 97.3279 120.117 97.3323 120.031 97.348C105.011 99.859 49.932 105.748 49.932 105.748C49.932 105.748 44.196 108.899 28.307 135.724C41.554 161.31 44.882 237.438 44.894 253.376C44.894 254.916 46.137 256.127 47.667 255.95C64.029 254.056 144.453 242.836 146.032 234.035C157.222 171.651 133.363 98.422 120.291 97.335Z" fill="white"/>
<path fill-rule="evenodd" clip-rule="evenodd" d="M52.673 128.999C52.563 128.411 52.427 127.691 52.27 126.872C51.7271 124.05 51.1784 121.228 50.624 118.408C50.131 115.895 49.636 113.381 49.222 111.287C48.7408 111.827 48.2704 112.376 47.811 112.934C44.964 116.381 40.566 122.396 34.253 132.716L52.673 128.999ZM28.307 135.724C28.722 135.022 29.13 134.338 29.532 133.668C40.043 116.151 45.855 109.466 48.382 107.039C49.452 106.012 49.932 105.748 49.932 105.748L51.702 105.558C61.241 104.529 106.615 99.591 120.031 97.348C120.117 97.3323 120.204 97.3279 120.291 97.335C133.363 98.422 157.222 171.651 146.032 234.035C144.453 242.836 64.029 254.056 47.667 255.95C46.137 256.127 44.895 254.916 44.894 253.376C44.883 237.766 41.69 164.422 29.113 137.369C28.8561 136.815 28.5873 136.267 28.307 135.724ZM32.679 136.649C35.651 143.321 38.032 152.221 39.963 161.971C42.167 173.102 43.839 185.633 45.09 197.806C47.487 221.132 48.36 243.357 48.433 252.29C57.512 251.198 80.478 248.039 101.747 244.098C112.889 242.033 123.465 239.771 131.312 237.501C135.255 236.361 138.366 235.258 140.479 234.236C141.544 233.72 142.211 233.294 142.578 232.987L142.625 232.948C147.999 202.484 144.901 169.293 138.81 143.513C135.751 130.564 131.968 119.624 128.216 111.934C126.333 108.076 124.521 105.168 122.901 103.249C121.485 101.572 120.56 101.058 120.177 100.916C112.335 102.197 95.07 104.263 79.751 106.011C70.7399 107.038 61.7259 108.039 52.709 109.014L52.392 109.048L52.433 109.254C52.89 111.564 53.498 114.644 54.102 117.725C54.6578 120.551 55.2078 123.377 55.752 126.205C55.972 127.362 56.156 128.332 56.281 129.014C56.343 129.354 56.391 129.632 56.424 129.829C56.44 129.925 56.454 130.02 56.464 130.099C56.469 130.132 56.477 130.201 56.482 130.278V130.28C56.4947 130.518 56.4614 130.756 56.384 130.981C56.2984 131.175 56.1936 131.359 56.071 131.532C55.89 131.715 55.419 131.995 55.058 132.116L55.061 132.133L32.679 136.649ZM142.792 232.784C142.792 232.784 142.786 232.793 142.772 232.808C142.778 232.799 142.784 232.791 142.792 232.784Z" fill="black"/>
<path d="M96.64 201.001C98.803 211.953 116.676 208.3 115.412 197.271C115.286 196.173 114.182 195.523 113.099 195.748L98.197 198.84C97.18 199.051 96.439 199.982 96.64 201.001Z" fill="black" stroke="black" stroke-width="1.418" stroke-linecap="round"/>
<path d="M133.942 195.177C122.129 197.179 110.931 189.225 108.929 177.412C106.928 165.599 114.882 154.4 126.695 152.399C138.508 150.397 149.706 158.351 151.708 170.164C153.709 181.977 145.755 193.176 133.942 195.177Z" fill="#B3CCFF" stroke="black" stroke-width="3.544"/>
<path d="M78.7805 204.56C66.9676 206.561 55.7688 198.607 53.7674 186.794C51.766 174.981 59.7199 163.783 71.5328 161.781C83.3457 159.78 94.5444 167.734 96.5458 179.547C98.5472 191.359 90.5934 202.558 78.7805 204.56Z" fill="#B3CCFF" stroke="black" stroke-width="3.544"/>
<path d="M108.7 179.268L97.194 181.217" stroke="black" stroke-width="3.544"/>
<path fill-rule="evenodd" clip-rule="evenodd" d="M125.16 180.774C127.635 180.371 128.517 177.244 127.987 173.983C127.457 170.722 125.631 168.035 123.155 168.437C120.679 168.84 119.798 171.967 120.328 175.228C120.858 178.489 122.684 181.176 125.16 180.774ZM85.94 186.804C88.415 186.402 89.296 183.275 88.767 180.014C88.237 176.753 86.411 174.066 83.935 174.468C81.459 174.87 80.578 177.998 81.108 181.259C81.638 184.519 83.464 187.207 85.94 186.804Z" fill="black"/>
<path d="M239.521 212.749V73.117C239.521 71.8956 240.007 70.7243 240.87 69.8607C241.734 68.9971 242.906 68.512 244.127 68.512H335.411C336.632 68.512 337.803 68.997 338.667 69.861L359.822 91.016C360.25 91.4435 360.589 91.9511 360.82 92.5098C361.052 93.0685 361.171 93.6673 361.171 94.272V212.75C361.171 213.971 360.686 215.143 359.822 216.006C358.959 216.87 357.787 217.355 356.566 217.355H244.127C242.906 217.355 241.734 216.87 240.87 216.006C240.007 215.143 239.521 213.971 239.521 212.75V212.749Z" fill="#C9C0FA"/>
<path d="M337.494 89.13V68.511C339.36 69.147 361.219 91.249 361.172 92.199H340.564C339.75 92.199 338.969 91.8756 338.393 91.2998C337.817 90.7241 337.494 89.9442 337.494 89.13ZM260.34 140.363C260.34 139.536 260.668 138.743 261.253 138.158C261.838 137.573 262.631 137.245 263.458 137.245H337.235C338.062 137.245 338.855 137.573 339.44 138.158C340.024 138.743 340.353 139.536 340.353 140.363C340.353 141.19 340.024 141.983 339.44 142.568C338.855 143.153 338.062 143.481 337.235 143.481H263.458C262.631 143.481 261.838 143.153 261.253 142.568C260.668 141.983 260.34 141.19 260.34 140.363ZM260.369 107.483C260.369 106.656 260.697 105.863 261.282 105.278C261.867 104.694 262.66 104.365 263.487 104.365H337.264C338.091 104.365 338.884 104.694 339.469 105.278C340.053 105.863 340.382 106.656 340.382 107.483C340.382 108.31 340.053 109.103 339.469 109.688C338.884 110.272 338.091 110.601 337.264 110.601H263.487C262.66 110.601 261.867 110.272 261.282 109.688C260.697 109.103 260.369 108.31 260.369 107.483ZM260.337 156.808C260.337 155.981 260.666 155.188 261.25 154.603C261.835 154.019 262.628 153.69 263.455 153.69H337.232C338.059 153.69 338.852 154.019 339.437 154.603C340.022 155.188 340.35 155.981 340.35 156.808C340.35 157.635 340.022 158.428 339.437 159.013C338.852 159.597 338.059 159.926 337.232 159.926H263.455C262.628 159.926 261.835 159.597 261.25 159.013C260.666 158.428 260.337 157.635 260.337 156.808ZM260.368 123.927C260.368 123.1 260.697 122.307 261.282 121.723C261.866 121.138 262.659 120.81 263.486 120.81H337.263C338.08 120.825 338.859 121.16 339.432 121.743C340.004 122.326 340.325 123.11 340.325 123.927C340.325 124.745 340.004 125.529 339.432 126.112C338.859 126.695 338.08 127.03 337.263 127.045H263.486C262.659 127.045 261.866 126.716 261.281 126.132C260.697 125.547 260.368 124.754 260.368 123.927ZM260.337 173.248C260.337 172.421 260.666 171.628 261.25 171.043C261.835 170.459 262.628 170.13 263.455 170.13H337.182C338.009 170.13 338.802 170.459 339.387 171.043C339.971 171.628 340.3 172.421 340.3 173.248C340.3 174.075 339.971 174.868 339.387 175.453C338.802 176.037 338.009 176.366 337.182 176.366H263.455C262.628 176.366 261.835 176.037 261.25 175.453C260.666 174.868 260.337 174.075 260.337 173.248ZM260.325 189.685C260.325 188.858 260.654 188.065 261.238 187.48C261.823 186.896 262.616 186.567 263.443 186.567H315.259C316.086 186.567 316.879 186.896 317.464 187.48C318.048 188.065 318.377 188.858 318.377 189.685C318.377 190.512 318.048 191.305 317.464 191.89C316.879 192.474 316.086 192.803 315.259 192.803H263.443C262.616 192.803 261.823 192.474 261.238 191.89C260.654 191.305 260.325 190.512 260.325 189.685Z" fill="#9C8BF0"/>
<path d="M280.396 80.52H222.592C220.527 80.52 218.853 82.194 218.853 84.259V114.268C218.853 116.333 220.527 118.007 222.592 118.007H280.396C282.461 118.007 284.135 116.333 284.135 114.268V84.259C284.135 82.194 282.461 80.52 280.396 80.52Z" fill="#FF7761"/>
<path d="M296.694 258.369C319.063 258.369 337.197 255.111 337.197 251.091C337.197 247.071 319.063 243.813 296.694 243.813C274.325 243.813 256.191 247.071 256.191 251.091C256.191 255.111 274.325 258.369 296.694 258.369Z" fill="#769EEB"/>
<path d="M373.757 71.293L388.722 64.843M377.891 92.856L393.034 98.876M361.655 55.194L367.676 40.051" stroke="#FFB700" stroke-width="7.892" stroke-linecap="round"/>
</g>
<path d="M230 107V105.68C230.307 105.667 230.56 105.627 230.76 105.56C230.973 105.493 231.133 105.34 231.24 105.1C231.36 104.86 231.42 104.473 231.42 103.94V96.28C231.42 95.92 231.427 95.5733 231.44 95.24C231.467 94.9067 231.487 94.6533 231.5 94.48C231.287 94.4933 231.02 94.5067 230.7 94.52C230.38 94.52 230.147 94.5267 230 94.54V93H240L240.12 96.88H238.8C238.8 96.1467 238.673 95.5933 238.42 95.22C238.167 94.8467 237.853 94.6 237.48 94.48C237.107 94.3467 236.74 94.2867 236.38 94.3L235.66 94.32C235.38 94.32 235.14 94.36 234.94 94.44C234.74 94.5067 234.587 94.6667 234.48 94.92C234.373 95.16 234.32 95.54 234.32 96.06V99.54H236.38L236.3 97.82H237.84V102.68H236.52C236.52 102.12 236.433 101.713 236.26 101.46C236.087 101.207 235.847 101.053 235.54 101C235.247 100.933 234.92 100.907 234.56 100.92H234.32V103.72C234.32 104.08 234.313 104.427 234.3 104.76C234.287 105.093 234.267 105.347 234.24 105.52C234.387 105.507 234.58 105.5 234.82 105.5C235.06 105.487 235.293 105.48 235.52 105.48C235.76 105.467 235.927 105.46 236.02 105.46V107H230ZM247.166 94.32C246.872 94.3333 246.619 94.3733 246.406 94.44C246.192 94.5067 246.026 94.66 245.906 94.9C245.799 95.1267 245.746 95.5133 245.746 96.06V103.72C245.746 104.08 245.739 104.427 245.726 104.76C245.712 105.093 245.692 105.347 245.666 105.52C245.879 105.493 246.146 105.48 246.466 105.48C246.799 105.467 247.032 105.46 247.166 105.46V107H241.426V105.68C241.732 105.667 241.986 105.627 242.186 105.56C242.399 105.493 242.559 105.34 242.666 105.1C242.786 104.86 242.846 104.473 242.846 103.94V96.28C242.846 95.92 242.852 95.5733 242.866 95.24C242.892 94.9067 242.912 94.6533 242.926 94.48C242.712 94.4933 242.446 94.5067 242.126 94.52C241.806 94.52 241.572 94.5267 241.426 94.54V93H247.166V94.32ZM249.16 107V105.68C249.467 105.667 249.72 105.627 249.92 105.56C250.133 105.493 250.293 105.34 250.4 105.1C250.52 104.86 250.58 104.473 250.58 103.94V96.28C250.58 95.92 250.587 95.5733 250.6 95.24C250.627 94.9067 250.647 94.6533 250.66 94.48C250.447 94.4933 250.18 94.5067 249.86 94.52C249.54 94.52 249.307 94.5267 249.16 94.54V93H254.9V94.32C254.607 94.3333 254.353 94.3733 254.14 94.44C253.927 94.5067 253.76 94.66 253.64 94.9C253.533 95.1267 253.48 95.5133 253.48 96.06V103.72C253.48 104.08 253.473 104.42 253.46 104.74C253.447 105.06 253.427 105.307 253.4 105.48H256.08C256.867 105.48 257.48 105.207 257.92 104.66C258.373 104.113 258.6 103.293 258.6 102.2H259.94L259.82 107H249.16ZM268.03 102.18C268.03 101.62 267.944 101.213 267.77 100.96C267.597 100.707 267.357 100.553 267.05 100.5C266.757 100.433 266.43 100.407 266.07 100.42L265.55 100.44V103.72C265.55 104.08 265.544 104.42 265.53 104.74C265.517 105.06 265.497 105.307 265.47 105.48H268.15C268.55 105.48 268.937 105.393 269.31 105.22C269.684 105.033 269.99 104.733 270.23 104.32C270.47 103.893 270.59 103.32 270.59 102.6H271.89L271.79 107H261.23V105.68C261.537 105.667 261.79 105.627 261.99 105.56C262.204 105.493 262.364 105.34 262.47 105.1C262.59 104.86 262.65 104.473 262.65 103.94V96.28C262.65 95.92 262.657 95.5733 262.67 95.24C262.697 94.9067 262.717 94.6533 262.73 94.48C262.517 94.4933 262.25 94.5067 261.93 94.52C261.61 94.52 261.377 94.5267 261.23 94.54V93H271.23L271.35 96.88H270.03C270.03 96.1467 269.904 95.5933 269.65 95.22C269.397 94.8467 269.084 94.6 268.71 94.48C268.337 94.3467 267.97 94.2867 267.61 94.3L266.89 94.32C266.61 94.32 266.37 94.36 266.17 94.44C265.97 94.5067 265.817 94.6667 265.71 94.92C265.604 95.16 265.55 95.54 265.55 96.06V99.06H267.89L267.81 97.32H269.35V102.18H268.03Z" fill="white"/>
</g>
<defs>
<clipPath id="clip0_2_2">
<rect width="400" height="320" fill="white"/>
</clipPath>
</defs>
</svg>
