<svg xmlns="http://www.w3.org/2000/svg" fill="none" viewBox="0 0 240 336"><path fill="#fff" d="M0 0h240v336H0z"></path><path fill="#3D99F5" fill-rule="evenodd" d="M177.053 148.523a4.526 4.526 0 0 1-4.527 4.524 4.524 4.524 0 1 1 0-9.047c2.5 0 4.527 2.025 4.527 4.523m-6.79.004a2.263 2.263 0 1 0 4.525-.001 2.263 2.263 0 0 0-4.525.001" clip-rule="evenodd"></path><rect width="84" height="84" x="36" y="118.773" fill="#ECF5FE" rx="8" transform="rotate(-20 36 118.773)"></rect><rect width="84" height="84" fill="#D8EBFD" rx="8" transform="rotate(20 -370.434 431.512)skewX(-.035)"></rect><path fill="#fff" fill-rule="evenodd" d="M86 120h52.914a4 4 0 0 1 2.843 1.186l15.086 15.245a4 4 0 0 1 1.157 2.814V212a4 4 0 0 1-4 4H86a4 4 0 0 1-4-4v-88a4 4 0 0 1 4-4" clip-rule="evenodd"></path><path fill="#00194C" fill-rule="evenodd" d="M138.914 120H86a4 4 0 0 0-4 4v88a4 4 0 0 0 4 4h68a4 4 0 0 0 4-4v-72.755a4 4 0 0 0-1.157-2.814l-15.086-15.245a4 4 0 0 0-2.843-1.186M84 124a2 2 0 0 1 2-2h52v18h18v72a2 2 0 0 1-2 2H86a2 2 0 0 1-2-2zm71.566 14H140v-15.68q.182.118.336.273l15.086 15.245q.076.077.144.162m-44.657 54c-.502 0-.909.373-.909.833 0 5.063 4.477 9.167 10 9.167s10-4.104 10-9.167c0-.46-.407-.833-.909-.833s-.909.373-.909.833c0 4.142-3.663 7.5-8.182 7.5s-8.182-3.358-8.182-7.5c0-.46-.407-.833-.909-.833M100 179a1 1 0 0 1 1-1h10a1 1 0 0 1 0 2h-10a1 1 0 0 1-1-1m29-1a1 1 0 0 0 0 2h10a1 1 0 0 0 0-2z" clip-rule="evenodd"></path><path fill="#fff" d="M93 225H67v-5l10-12-10-12v-5h26v5l-10 12 10 12z"></path><path fill="#3D99F5" fill-rule="evenodd" d="M66 191a1 1 0 0 1 1-1h26a1 1 0 0 1 1 1v5a1 1 0 0 1-.232.64L84.302 208l9.466 11.36A1 1 0 0 1 94 220v5a1 1 0 0 1-1 1H67a1 1 0 0 1-1-1v-5a1 1 0 0 1 .232-.64L75.698 208l-9.466-11.36A1 1 0 0 1 66 196zm2 1v3.638l9.768 11.722a1 1 0 0 1 0 1.28L68 220.362V224h24v-3.638l-9.768-11.722a1 1 0 0 1 0-1.28L92 195.638V192z" clip-rule="evenodd"></path><path fill="#3D99F5" stroke="#3D99F5" stroke-width="2" d="M83.761 215h3.302a1 1 0 0 1 .769.36L92 220.362V224H68v-3.638l3.528-4.233a1 1 0 0 1 1.383-.148l.73.571a5 5 0 0 0 5.351.513l3.406-1.737c.422-.216.89-.328 1.364-.328Z"></path><path fill="#3D99F5" d="M68 192h24v2H68z"></path></svg>