<svg xmlns="http://www.w3.org/2000/svg" fill="none" viewBox="0 0 600 520">
  <rect width="218.785" height="218.785" fill="#ECF5FE" rx="17.697" transform="scale(-1 1) rotate(-76.025 131.313 428.198)"/>
  <rect width="277.889" height="277.889" fill="#D8EBFD" rx="19.922" transform="scale(-1 1) rotate(-61.809 -50.808 572.522)"/>
  <path fill="#87AFFF" d="M373.767 429.45a1.937 1.937 0 0 1 0-2.767 2 2 0 0 1 2.803 0l4.171 4.115a1.939 1.939 0 0 1 0 2.767 2.002 2.002 0 0 1-2.804 0l-4.17-4.115Zm9.764 9.634a1.938 1.938 0 0 1 0-2.766 2.002 2.002 0 0 1 2.804 0l4.171 4.115a1.938 1.938 0 0 1 0 2.766 2.002 2.002 0 0 1-2.804 0l-4.171-4.115Zm-9.764 4.115a2 2 0 0 0 2.803 0l4.171-4.115a1.938 1.938 0 0 0 0-2.766 2.002 2.002 0 0 0-2.804 0l-4.17 4.115a1.936 1.936 0 0 0 0 2.766Zm12.568-9.634a2.002 2.002 0 0 1-2.804 0 1.939 1.939 0 0 1 0-2.767l4.171-4.115a2.002 2.002 0 0 1 2.804 0 1.939 1.939 0 0 1 0 2.767l-4.171 4.115Z"/>
  <path fill="#A99DEB" fill-rule="evenodd" d="m406.161 133.077-7.373-7.41H388.71v5.386h7.857l5.804 5.833 3.79-3.809ZM223.443 376.014h5.361v11.277c0 .23.06.43.163.601l-4.59 2.782a6.551 6.551 0 0 1-.934-3.383v-11.277Zm218.111-196.275v-11.094l-7.373-7.41-3.79 3.809 5.803 5.832v8.863h5.36Zm-14.009-25.173-3.791 3.809-14.747-14.82 3.79-3.809 14.748 14.82Zm14.009 35.157h-5.36v22.188h5.36v-22.188Zm0 32.173h-5.36v22.188h5.36v-22.188Zm0 32.172h-5.36v22.188h5.36v-22.188Zm0 32.173h-5.36v22.187h5.36v-22.187Zm0 32.172h-5.36v22.188h5.36v-22.188Zm0 32.172h-5.36v22.188h5.36v-22.188Zm0 32.173h-5.36v5.707h-5.062v5.387h10.422v-11.094Zm-19.803 11.094v-5.387h-20.845v5.387h20.845Zm-30.226 0v-5.387h-20.846v5.387h20.846Zm-30.226 0v-5.387h-20.846v5.387h20.846Zm-30.226 0v-5.387h-20.846v5.387h20.846Zm-30.226 0v-5.387h-20.846v5.387h20.846Zm-30.226 0v-5.387h-20.846v5.387h20.846Zm-30.227 0v-5.387h-10.422c-.229 0-.428-.061-.599-.165l-2.767 4.614a6.475 6.475 0 0 0 3.366.938h10.422Zm-16.951-27.987h5.361v-22.554h-5.361v22.554Zm0-32.703h5.361v-22.554h-5.361v22.554Zm0-32.703h5.361v-22.554h-5.361v22.554Zm0-32.703h5.361v-22.554h-5.361v22.554Zm0-32.703h5.361v-22.554h-5.361v22.554Zm0-32.703h5.361v-22.554h-5.361v22.554Zm0-32.703h5.361v-22.554h-5.361v22.554Zm0-32.704h5.361v-5.89h4.717v-5.386h-10.078v11.276Zm19.147-11.276v5.386h20.155v-5.386H242.59Zm29.224 0v5.386h20.155v-5.386h-20.155Zm29.224 0v5.386h20.155v-5.386h-20.155Zm29.224 0v5.386h20.155v-5.386h-20.155Zm29.224 0v5.386h20.155v-5.386h-20.155Z" clip-rule="evenodd"/>
  <mask id="a" width="184" height="223" x="228" y="171" maskUnits="userSpaceOnUse" style="mask-type:alpha">
    <path fill="#FAACAC" d="M228.423 171.186h62.216l87.619.637 30.586 34.751 2.474 187.126H228.423V171.186Z"/>
  </mask>
  <g mask="url(#a)">
    <path fill="#A99DEB" fill-rule="evenodd" d="m375.166 185.723-6.373-6.131h-10.451v5.388h8.29l4.814 4.632 3.72-3.889Zm29.313 38.915v-10.71l-6.372-6.131-3.72 3.888 4.719 4.541v8.412h5.373Zm-11.47-21.746-3.72 3.888-12.745-12.263 3.72-3.888 12.745 12.263Zm11.47 30.314h-5.373v21.419h5.373v-21.419Zm0 29.987h-5.373v21.419h5.373v-21.419Zm0 29.987h-5.373v21.419h5.373V293.18Zm0 29.987h-5.373v21.419h5.373v-21.419Zm0 29.987h-5.373v21.42h5.373v-21.42Zm0 29.987h-5.373v5.321h-5.46v5.389h10.833v-10.71Zm-19.5 10.71v-5.389h-21.666v5.389h21.666Zm-30.333 0v-5.389h-21.667v5.389h21.667Zm-30.333 0v-5.389h-21.667v5.389h21.667Zm-30.334 0v-5.389h-21.666v5.389h21.666Zm-30.333 0v-5.389h-21.667v5.389h21.667Zm-30.333 0v-5.389h-5.46v-5.543h-5.374v10.932h10.834Zm-10.834-19.677h5.374v-21.863h-5.374v21.863Zm0-30.608h5.374v-21.863h-5.374v21.863Zm0-30.609h5.374v-21.863h-5.374v21.863Zm0-30.608h5.374v-21.863h-5.374v21.863Zm0-30.609h5.374v-21.863h-5.374v21.863Zm0-30.608h5.374v-21.863h-5.374v21.863Zm0-30.609h5.374v-5.543h5.077v-5.388h-10.451v10.931Zm18.812-10.931v5.388h20.902v-5.388h-20.902Zm29.263 0v5.388h20.902v-5.388h-20.902Zm29.263 0v5.388h20.902v-5.388h-20.902Zm29.262 0v5.388h20.902v-5.388h-20.902Z" clip-rule="evenodd"/>
  </g>
  <path stroke="#604DBF" stroke-linecap="square" stroke-linejoin="round" stroke-width="5.362" d="M206.699 394.127h-34.424V127.71h34.424m-34.424 136.446h22.497m-22.497-32.071h22.497M175.03 327.41h19.53m-19.53-133.74h19.53m-19.53 101.67h19.53M175.03 161.6h19.53m-19.53 198.51h19.53"/>
  <path fill="#769EEB" d="M231.629 393.725v-162.55a5.362 5.362 0 0 1 5.362-5.362h106.267c1.422 0 2.786.565 3.791 1.57l24.628 24.628a5.362 5.362 0 0 1 1.57 3.791v137.923c0 2.961-2.4 5.362-5.361 5.362H236.991a5.362 5.362 0 0 1-5.362-5.362Z"/>
  <path fill="#C9C0FA" d="M223.062 387.117V224.566a5.36 5.36 0 0 1 5.361-5.361H334.69c1.422 0 2.786.564 3.792 1.57l24.627 24.627a5.366 5.366 0 0 1 1.57 3.792v137.923a5.36 5.36 0 0 1-5.361 5.361H228.423a5.36 5.36 0 0 1-5.361-5.361Z"/>
  <path fill="#9C8BF0" d="M337.116 243.206v-24.001c2.173.74 27.62 26.47 27.565 27.576h-23.99a3.576 3.576 0 0 1-3.575-3.575Zm-89.818 59.646a3.63 3.63 0 0 1 3.63-3.63h85.887a3.63 3.63 0 0 1 0 7.26h-85.887a3.63 3.63 0 0 1-3.63-3.63Zm.032-38.279a3.63 3.63 0 0 1 3.629-3.63h85.887a3.63 3.63 0 1 1 0 7.26h-85.887a3.63 3.63 0 0 1-3.629-3.63Zm-.036 57.423a3.63 3.63 0 0 1 3.63-3.63h85.886a3.63 3.63 0 1 1 0 7.26h-85.886a3.63 3.63 0 0 1-3.63-3.63Zm.035-38.279a3.63 3.63 0 0 1 3.629-3.63h85.887a3.63 3.63 0 1 1 0 7.259h-85.887a3.63 3.63 0 0 1-3.629-3.629Zm-.034 57.415a3.63 3.63 0 0 1 3.63-3.63h85.829a3.63 3.63 0 0 1 0 7.26h-85.829a3.63 3.63 0 0 1-3.63-3.63Zm-.014 19.135a3.63 3.63 0 0 1 3.629-3.63h60.322a3.63 3.63 0 1 1 0 7.26H250.91a3.63 3.63 0 0 1-3.629-3.63Z"/>
  <rect width="75.998" height="43.64" x="199.005" y="233.186" fill="#FF7761" rx="4.353"/>
  <path fill="#fff" d="M212.039 266.254v-20.476h7.035c1.13 0 2.188.115 3.172.346.984.209 1.842.575 2.575 1.099.733.502 1.308 1.183 1.727 2.041.44.838.66 1.874.66 3.109 0 1.194-.22 2.23-.66 3.109a5.874 5.874 0 0 1-1.727 2.167 7.408 7.408 0 0 1-2.544 1.256c-.963.273-1.989.409-3.078.409h-2.543v6.94h-4.617Zm4.617-10.615h2.261c2.512 0 3.768-1.088 3.768-3.266 0-1.068-.335-1.821-1.005-2.261-.67-.44-1.633-.659-2.889-.659h-2.135v6.186Zm14.091 10.615v-20.476h5.779c1.57 0 2.983.199 4.239.597 1.256.398 2.335 1.015 3.235 1.853.9.816 1.591 1.863 2.073 3.14.481 1.277.722 2.795.722 4.554 0 1.759-.241 3.287-.722 4.585-.482 1.298-1.162 2.376-2.042 3.235-.879.837-1.936 1.465-3.172 1.884-1.214.419-2.575.628-4.082.628h-6.03Zm4.617-3.737h.879c.879 0 1.675-.115 2.387-.345a4.489 4.489 0 0 0 1.821-1.1c.503-.523.89-1.204 1.162-2.041.293-.837.44-1.874.44-3.109 0-1.214-.147-2.23-.44-3.046-.272-.838-.659-1.497-1.162-1.979a4.22 4.22 0 0 0-1.821-1.068c-.712-.209-1.508-.314-2.387-.314h-.879v13.002Zm15.318 3.737v-20.476h12.907v3.894h-8.291v4.743h7.098v3.894h-7.098v7.945h-4.616Z"/>
  <path fill="#604DBF" d="M418.921 161.504a2.219 2.219 0 1 0-3.403-2.848l3.403 2.848Zm-56.272 61.338a2.22 2.22 0 0 0 2.407 2.014l19.889-1.766a2.22 2.22 0 0 0-.392-4.42l-17.68 1.57-1.57-17.68a2.219 2.219 0 0 0-4.42.392l1.766 19.89Zm52.869-64.186-52.36 62.566 3.403 2.848 52.36-62.566-3.403-2.848Z"/>
  <path fill="#FFB700" fill-rule="evenodd" d="M483.235 370.64a6.638 6.638 0 0 1-6.636 6.64 6.638 6.638 0 0 1-6.636-6.64 6.638 6.638 0 0 1 6.636-6.64 6.638 6.638 0 0 1 6.636 6.64Zm-10.086 0a3.452 3.452 0 0 0 3.45 3.453 3.452 3.452 0 0 0 3.451-3.453 3.452 3.452 0 0 0-3.451-3.453 3.452 3.452 0 0 0-3.45 3.453Z" clip-rule="evenodd"/>
  <path fill="#FFB700" d="M115.098 145.376a1.938 1.938 0 0 0 0-2.766 2.002 2.002 0 0 0-2.804 0l-4.17 4.115a1.936 1.936 0 0 0 0 2.766 2.002 2.002 0 0 0 2.804 0l4.17-4.115Zm-9.764 9.634a1.938 1.938 0 0 0 0-2.766 2.002 2.002 0 0 0-2.804 0l-4.171 4.115a1.939 1.939 0 0 0 0 2.767c.774.764 2.03.764 2.804 0l4.171-4.116Zm9.764 4.116a2.002 2.002 0 0 1-2.804 0l-4.17-4.116a1.936 1.936 0 0 1 0-2.766 2.002 2.002 0 0 1 2.804 0l4.17 4.115a1.939 1.939 0 0 1 0 2.767Zm-12.568-9.635a2.002 2.002 0 0 0 2.804 0 1.938 1.938 0 0 0 0-2.766l-4.171-4.115a2.002 2.002 0 0 0-2.804 0 1.937 1.937 0 0 0 0 2.766l4.171 4.115Z"/>
  <path fill="#87AFFF" fill-rule="evenodd" d="M147.37 83.154a7.558 7.558 0 0 0 7.556 7.561 7.558 7.558 0 0 0 7.555-7.56 7.558 7.558 0 0 0-7.555-7.562 7.558 7.558 0 0 0-7.556 7.561Zm11.484 0a3.93 3.93 0 0 1-3.929 3.932 3.93 3.93 0 0 1-3.929-3.932 3.93 3.93 0 0 1 3.929-3.931 3.93 3.93 0 0 1 3.929 3.931Z" clip-rule="evenodd"/>
  <path fill="#fff" d="M375.201 75.593v7.126h7.121v3.563h-7.121v7.126h-3.561v-7.126h-7.121V82.72h7.121v-7.126h3.561Z"/>
</svg>
