<svg width="240" height="336" viewBox="0 0 240 336" fill="none" xmlns="http://www.w3.org/2000/svg">
<mask id="mask0_4_2" style="mask-type:luminance" maskUnits="userSpaceOnUse" x="40" y="80" width="160" height="120">
<path d="M40 80H200V200H40V80Z" fill="white"/>
</mask>
<g mask="url(#mask0_4_2)">
<path fill-rule="evenodd" clip-rule="evenodd" d="M42 80C41.4696 80 40.9609 80.2107 40.5858 80.5858C40.2107 80.9609 40 81.4696 40 82V126C40 126.53 40.2107 127.039 40.5858 127.414C40.9609 127.789 41.4696 128 42 128H86C86.5304 128 87.0391 127.789 87.4142 127.414C87.7893 127.039 88 126.53 88 126V82C88 81.4696 87.7893 80.9609 87.4142 80.5858C87.0391 80.2107 86.5304 80 86 80H42ZM42 184C41.4696 184 40.9609 184.211 40.5858 184.586C40.2107 184.961 40 185.47 40 186V198C40 198.53 40.2107 199.039 40.5858 199.414C40.9609 199.789 41.4696 200 42 200H198C198.53 200 199.039 199.789 199.414 199.414C199.789 199.039 200 198.53 200 198V186C200 185.47 199.789 184.961 199.414 184.586C199.039 184.211 198.53 184 198 184H42ZM40 162C40 161.47 40.2107 160.961 40.5858 160.586C40.9609 160.211 41.4696 160 42 160H198C198.53 160 199.039 160.211 199.414 160.586C199.789 160.961 200 161.47 200 162V174C200 174.53 199.789 175.039 199.414 175.414C199.039 175.789 198.53 176 198 176H42C41.4696 176 40.9609 175.789 40.5858 175.414C40.2107 175.039 40 174.53 40 174V162ZM42 136C41.4696 136 40.9609 136.211 40.5858 136.586C40.2107 136.961 40 137.47 40 138V150C40 150.53 40.2107 151.039 40.5858 151.414C40.9609 151.789 41.4696 152 42 152H198C198.53 152 199.039 151.789 199.414 151.414C199.789 151.039 200 150.53 200 150V138C200 137.47 199.789 136.961 199.414 136.586C199.039 136.211 198.53 136 198 136H42ZM96 82C96 81.4696 96.2107 80.9609 96.5858 80.5858C96.9609 80.2107 97.4696 80 98 80H198C198.53 80 199.039 80.2107 199.414 80.5858C199.789 80.9609 200 81.4696 200 82V98C200 98.5304 199.789 99.0391 199.414 99.4142C199.039 99.7893 198.53 100 198 100H98C97.4696 100 96.9609 99.7893 96.5858 99.4142C96.2107 99.0391 96 98.5304 96 98V82ZM98 108C97.4696 108 96.9609 108.211 96.5858 108.586C96.2107 108.961 96 109.47 96 110V126C96 126.53 96.2107 127.039 96.5858 127.414C96.9609 127.789 97.4696 128 98 128H198C198.53 128 199.039 127.789 199.414 127.414C199.789 127.039 200 126.53 200 126V110C200 109.47 199.789 108.961 199.414 108.586C199.039 108.211 198.53 108 198 108H98Z" fill="#FEEBEB"/>
</g>
<path fill-rule="evenodd" clip-rule="evenodd" d="M86 120H138.914C139.443 120 139.966 120.105 140.454 120.308C140.942 120.512 141.385 120.81 141.757 121.186L156.843 136.431C157.584 137.18 158 138.191 158 139.245V212C158 213.061 157.579 214.078 156.828 214.828C156.078 215.579 155.061 216 154 216H86C84.9391 216 83.9217 215.579 83.1716 214.828C82.4214 214.078 82 213.061 82 212V124C82 122.939 82.4214 121.922 83.1716 121.172C83.9217 120.421 84.9391 120 86 120Z" fill="white"/>
<path fill-rule="evenodd" clip-rule="evenodd" d="M86 120H138.914C139.443 120 139.966 120.105 140.454 120.308C140.942 120.512 141.385 120.81 141.757 121.186L156.843 136.431C157.584 137.18 158 138.191 158 139.245V164.684C159.11 164.803 160.218 164.938 161.323 165.088C161.387 165.111 161.71 165.146 162.11 165.189C162.902 165.274 164 165.392 164 165.518V172.133C164.014 172.297 162.441 172.449 161.687 172.523C161.49 172.542 161.349 172.555 161.306 172.563C159.638 172.872 159.377 173.697 159.377 173.954C159.084 175.866 158.623 177.749 158 179.58V212C158 213.061 157.579 214.078 156.828 214.828C156.078 215.579 155.061 216 154 216H86C84.9391 216 83.9217 215.579 83.1716 214.828C82.4214 214.078 82 213.061 82 212V179.426C81.3856 177.611 80.9306 175.745 80.64 173.851C80.623 173.679 80.449 172.786 78.712 172.459C78.5849 172.444 78.4575 172.431 78.33 172.421C77.575 172.352 76 172.207 76 172.03V165.518C76 165.354 77.58 165.202 78.342 165.128C78.542 165.109 78.686 165.095 78.729 165.088C79.817 164.94 80.9073 164.808 82 164.691V124C82 122.939 82.4214 121.922 83.1716 121.172C83.9217 120.421 84.9391 120 86 120ZM84 184.111V212C84 212.53 84.2107 213.039 84.5858 213.414C84.9609 213.789 85.4696 214 86 214H154C154.53 214 155.039 213.789 155.414 213.414C155.789 213.039 156 212.53 156 212V184.247C155.675 184.869 155.33 185.482 154.964 186.085C153.66 188.064 151.815 189.627 149.648 190.587C147.465 191.567 145.091 192.049 142.699 191.996C139.163 191.977 135.685 191.092 132.57 189.419C129.556 187.871 127.12 185.395 125.62 182.357C125.243 181.513 124.935 180.639 124.7 179.745C124.364 178.101 123.657 176.555 122.632 175.226C121.883 174.625 120.951 174.298 119.991 174.298C119.041 174.281 118.117 174.604 117.385 175.209C116.349 176.541 115.63 178.093 115.283 179.745C115.041 180.599 114.745 181.437 114.397 182.254C112.898 185.292 110.462 187.768 107.448 189.316C104.332 190.988 100.854 191.872 97.318 191.893C94.9257 191.946 92.5519 191.464 90.369 190.484C88.2023 189.524 86.3571 187.961 85.053 185.982C84.6824 185.37 84.3312 184.746 84 184.111ZM156 164.487C152.572 164.179 149.13 164.023 145.687 164.023C137.926 163.817 130.192 165.016 122.858 167.562H117.264C109.906 165.016 102.149 163.817 94.365 164.023C90.905 164.034 87.445 164.188 84 164.495V124C84 123.47 84.2107 122.961 84.5858 122.586C84.9609 122.211 85.4696 122 86 122H138V140H156V164.487ZM140 138H155.566C155.521 137.943 155.473 137.889 155.422 137.838L140.336 122.593C140.234 122.49 140.122 122.399 140 122.32V138ZM110 192C110 197.523 114.477 202 120 202C125.523 202 130 197.523 130 192H110ZM102 179C102 181.643 103.061 184 105 184C106.939 184 108 181.643 108 179C108 176.357 106.939 174 105 174C103.061 174 102 176.357 102 179ZM135 184C133.061 184 132 181.643 132 179C132 176.357 133.061 174 135 174C136.939 174 138 176.357 138 179C138 181.643 136.939 184 135 184ZM107.465 186.12C109.841 184.555 111.664 182.283 112.677 179.625H112.642C113.529 177.825 114.117 175.892 114.38 173.903C114.327 171.05 112.364 168.971 108.525 167.734C105.242 166.803 101.843 166.346 98.431 166.377H96.241C93.6405 166.304 91.0431 166.605 88.528 167.27C87.5465 167.621 86.6659 168.207 85.9632 168.977C85.2605 169.746 84.7571 170.677 84.497 171.686C83.697 175.209 85.279 180.278 86.877 183.542C88.093 186.017 90.787 188.972 96.693 188.972C100.458 188.885 104.15 187.908 107.465 186.12ZM143.307 188.972C149.214 188.972 151.907 186.017 153.123 183.542H153.088C154.739 180.278 156.267 175.209 155.468 171.721C155.208 170.712 154.705 169.782 154.002 169.012C153.3 168.242 152.419 167.656 151.438 167.305C148.925 166.63 146.325 166.329 143.724 166.411H141.535C138.123 166.382 134.723 166.839 131.44 167.769C127.601 169.006 125.586 171.085 125.586 173.937C125.856 175.914 126.443 177.834 127.323 179.625C128.336 182.283 130.159 184.555 132.535 186.12C135.85 187.908 139.542 188.885 143.307 188.972Z" fill="#1A1A1A"/>
<path d="M150 228H90C88.8954 228 88 228.895 88 230V254C88 255.105 88.8954 256 90 256H150C151.105 256 152 255.105 152 254V230C152 228.895 151.105 228 150 228Z" fill="#F23030"/>
<path d="M106.925 249.4C105.808 249.4 104.783 249.15 103.85 248.65C102.917 248.15 102.167 247.425 101.6 246.475C101.05 245.525 100.775 244.375 100.775 243.025C100.775 242.075 100.933 241.183 101.25 240.35C101.567 239.517 102.008 238.783 102.575 238.15C103.158 237.517 103.842 237.017 104.625 236.65C105.425 236.283 106.308 236.1 107.275 236.1C108.342 236.1 109.225 236.267 109.925 236.6C110.642 236.917 111.175 237.342 111.525 237.875C111.892 238.392 112.075 238.942 112.075 239.525C112.075 240.008 111.925 240.442 111.625 240.825C111.342 241.192 110.933 241.383 110.4 241.4C109.767 241.417 109.325 241.242 109.075 240.875C108.825 240.492 108.7 240.125 108.7 239.775C108.7 239.625 108.725 239.45 108.775 239.25C108.825 239.033 108.9 238.842 109 238.675C108.883 238.425 108.708 238.242 108.475 238.125C108.242 238.008 108 237.933 107.75 237.9C107.517 237.85 107.325 237.833 107.175 237.85C106.375 237.9 105.717 238.3 105.2 239.05C104.683 239.8 104.425 240.883 104.425 242.3C104.425 243.133 104.525 243.917 104.725 244.65C104.942 245.367 105.292 245.958 105.775 246.425C106.258 246.892 106.908 247.142 107.725 247.175C108.425 247.192 109.108 247.025 109.775 246.675C110.442 246.325 111.008 245.85 111.475 245.25L112.625 246.375C112.025 247.208 111.4 247.842 110.75 248.275C110.1 248.708 109.45 249 108.8 249.15C108.167 249.317 107.542 249.4 106.925 249.4ZM119.714 249.4C118.998 249.4 118.298 249.308 117.614 249.125C116.931 248.942 116.398 248.708 116.014 248.425L116.064 249.175H114.164L114.064 244.875H115.689C115.739 245.375 115.939 245.833 116.289 246.25C116.639 246.667 117.098 247 117.664 247.25C118.231 247.483 118.864 247.6 119.564 247.6C119.848 247.6 120.114 247.558 120.364 247.475C120.631 247.392 120.848 247.258 121.014 247.075C121.198 246.875 121.289 246.633 121.289 246.35C121.289 246.033 121.173 245.775 120.939 245.575C120.723 245.375 120.398 245.183 119.964 245C119.548 244.817 119.023 244.608 118.389 244.375C117.873 244.175 117.348 243.967 116.814 243.75C116.298 243.533 115.814 243.275 115.364 242.975C114.931 242.658 114.581 242.275 114.314 241.825C114.048 241.358 113.914 240.792 113.914 240.125C113.914 239.642 114.006 239.167 114.189 238.7C114.373 238.217 114.656 237.783 115.039 237.4C115.423 237 115.906 236.683 116.489 236.45C117.089 236.217 117.798 236.1 118.614 236.1C119.064 236.1 119.573 236.175 120.139 236.325C120.723 236.458 121.214 236.667 121.614 236.95V236.225H123.514V240.65H121.889C121.789 240.067 121.581 239.567 121.264 239.15C120.964 238.733 120.573 238.417 120.089 238.2C119.606 237.967 119.064 237.85 118.464 237.85C118.048 237.85 117.664 237.95 117.314 238.15C116.981 238.35 116.814 238.692 116.814 239.175C116.814 239.558 116.948 239.867 117.214 240.1C117.481 240.317 117.848 240.5 118.314 240.65C118.781 240.8 119.298 240.975 119.864 241.175C120.714 241.458 121.464 241.792 122.114 242.175C122.781 242.558 123.306 243.025 123.689 243.575C124.073 244.108 124.264 244.767 124.264 245.55C124.264 246.417 124.048 247.133 123.614 247.7C123.181 248.267 122.614 248.692 121.914 248.975C121.231 249.258 120.498 249.4 119.714 249.4ZM130.748 249.075L126.798 240.4C126.615 239.983 126.482 239.667 126.398 239.45C126.332 239.233 126.282 239.05 126.248 238.9C126.232 238.733 126.198 238.55 126.148 238.35L125.223 238.4V236.5H131.073V238.1C130.723 238.117 130.49 238.217 130.373 238.4C130.257 238.583 130.215 238.825 130.248 239.125C130.282 239.408 130.357 239.717 130.473 240.05L131.773 243.25C131.907 243.567 132.04 243.892 132.173 244.225C132.307 244.558 132.44 244.892 132.573 245.225H132.598C132.732 244.875 132.857 244.525 132.973 244.175C133.107 243.825 133.232 243.475 133.348 243.125L134.423 240.075C134.573 239.658 134.707 239.325 134.823 239.075C134.957 238.825 135.098 238.567 135.248 238.3L133.698 238.4V236.5H138.448V238.1C138.065 238.167 137.723 238.383 137.423 238.75C137.123 239.1 136.865 239.5 136.648 239.95C136.432 240.383 136.257 240.767 136.123 241.1L132.923 249.075H130.748Z" fill="white"/>
</svg>
