<svg xmlns="http://www.w3.org/2000/svg" fill="none" viewBox="0 0 240 336"><g clip-path="url(#a)"><path fill="#FFF8E6" fill-rule="evenodd" d="M42 80a2 2 0 0 0-2 2v92a2 2 0 0 0 2 2h16a2 2 0 0 0 2-2v-72a2 2 0 0 1 2-2h112a2 2 0 0 0 2-2V82a2 2 0 0 0-2-2zm24 24a2 2 0 0 0-2 2v92a2 2 0 0 0 2 2h132a2 2 0 0 0 2-2v-92a2 2 0 0 0-2-2zm126 20c0 6.627-5.373 12-12 12s-12-5.373-12-12 5.373-12 12-12 12 5.373 12 12M84 180v-22l24-26 27 23 13-12 32 24v13z" clip-rule="evenodd"></path></g><path fill="#fff" fill-rule="evenodd" d="M86 120h52.914a4 4 0 0 1 2.843 1.186l15.086 15.245a4 4 0 0 1 1.157 2.814V212a4 4 0 0 1-4 4H86a4 4 0 0 1-4-4v-88a4 4 0 0 1 4-4" clip-rule="evenodd"></path><path fill="#00194C" fill-rule="evenodd" d="M86 120h52.914a4 4 0 0 1 2.843 1.186l15.086 15.245a4 4 0 0 1 1.157 2.814v22.057c1.543.345 2.63.701 3.353.983a1 1 0 0 1 .647.924v3.786a.97.97 0 0 1-.323.718 1.13 1.13 0 0 1-.773.286 1.14 1.14 0 0 0-.84.315 1.06 1.06 0 0 0-.338.793c.092 3.708-.488 6.853-1.726 9.406V212a4 4 0 0 1-4 4H86a4 4 0 0 1-4-4v-33.487c-1.238-2.552-1.818-5.698-1.726-9.406a1.06 1.06 0 0 0-.338-.793 1.17 1.17 0 0 0-.84-.315 1.13 1.13 0 0 1-.773-.286.97.97 0 0 1-.323-.719v-3.785c0-.407.254-.77.647-.923.723-.283 1.81-.638 3.353-.983V124a4 4 0 0 1 4-4m70 20v20.91c-5.544-.945-15.236-1.541-31.348.218a43 43 0 0 1-9.303 0c-.826-.09-1.631-.173-2.424-.251l-.081-.008h-.001l-.057-.005a215 215 0 0 0-1.67-.158c-.313-.028-.618-.054-.923-.079h-.001v-.001h-.001l-.262-.022c-12.912-1.086-21.036-.525-25.929.308V124a2 2 0 0 1 2-2h52v18zm-.434-2H140v-15.68q.182.118.336.273l15.086 15.245q.076.077.144.162M84 212v-30.483q.342.387.717.743c.303.288.616.546.931.79q.224.174.449.334c.156.11.312.211.469.312 3.38 2.168 6.941 2.237 7.226 2.243h.018c6.484.281 11.572-.412 15.586-2.116 3.295-1.399 5.68-4.26 6.378-7.653.508-2.461.769-5.233.899-7.124.107-1.55 1.378-2.84 2.959-3q.187-.02.372-.019c.785 0 1.534.254 2.141.733.7.553 1.118 1.329 1.176 2.185.129 1.921.392 4.733.905 7.225.698 3.393 3.083 6.254 6.379 7.653 4.013 1.704 9.101 2.396 15.552 2.117.071 0 3.78-.004 7.278-2.246q.235-.148.469-.31.225-.16.448-.334c.319-.248.636-.509.944-.801q.368-.351.704-.731V212a2 2 0 0 1-2 2H86a2 2 0 0 1-2-2m.316-47.034a32 32 0 0 0-.316 4.417c0 1.202.076 2.49.283 3.771.168 1.04 1.828 1.157 2.17.15 1.033-3.042 3.094-7.146 7.064-9.531.93-.559.42-1.843-.706-1.77-1.923.125-4.145.385-6.39.891-1.122.253-1.964 1.066-2.105 2.072m46.137 8.338c1.033-3.042 3.095-7.146 7.064-9.531.93-.559.419-1.843-.706-1.77-1.923.125-4.145.385-6.39.891-1.122.253-1.964 1.066-2.105 2.072-.26 1.848-.542 5.039-.033 8.188.168 1.04 1.828 1.157 2.17.15M120 202c-5.523 0-10-4.477-10-10h20c0 5.523-4.477 10-10 10" clip-rule="evenodd"></path><rect width="64" height="28" x="88" y="228" fill="#FFB700" rx="2"></rect><path fill="#fff" fill-rule="evenodd" d="M128.071 248.34q1.18.42 2.52.42 1.38 0 2.5-.46t1.8-1.12v-6h-4.76v2.4h2.16v2.24q-.24.201-.62.3-.38.1-.78.1-1.84 0-2.76-1.1-.9-1.12-.9-3.14 0-.98.24-1.76.26-.78.72-1.32t1.08-.82q.64-.3 1.4-.3.84 0 1.4.3t1.06.74l1.54-1.88q-.64-.66-1.66-1.18t-2.44-.52q-1.3 0-2.46.46a6 6 0 0 0-2.04 1.34q-.86.88-1.36 2.16-.5 1.26-.5 2.88 0 1.64.48 2.9.5 1.24 1.36 2.08t2.02 1.28m-22.962.18v-13.04h2.94v13.04zm4.942 0v-13.04h3.22l2.1 5.8q.2.58.38 1.2.18.6.38 1.2h.08q.2-.6.36-1.2.18-.62.38-1.2l2.06-5.8h3.2v13.04h-2.68v-4.78q0-.48.04-1.06a33 33 0 0 1 .1-1.16q.06-.6.12-1.16.06-.58.12-1.06h-.08l-1.06 3.1-1.86 4.98h-1.62l-1.86-4.98-1.04-3.1h-.08q.06.48.12 1.06.06.56.12 1.16.06.58.1 1.16t.04 1.06v4.78z" clip-rule="evenodd"></path><defs><clipPath id="a"><path fill="#fff" d="M40 80h160v120H40z"></path></clipPath></defs></svg>