<svg width="240" height="336" viewBox="0 0 240 336" fill="none" xmlns="http://www.w3.org/2000/svg">
<mask id="mask0_4_2" style="mask-type:luminance" maskUnits="userSpaceOnUse" x="40" y="80" width="160" height="120">
<path d="M40 80H200V200H40V80Z" fill="white"/>
</mask>
<g mask="url(#mask0_4_2)">
<path fill-rule="evenodd" clip-rule="evenodd" d="M42 80C41.4696 80 40.9609 80.2107 40.5858 80.5858C40.2107 80.9609 40 81.4696 40 82V126C40 126.53 40.2107 127.039 40.5858 127.414C40.9609 127.789 41.4696 128 42 128H86C86.5304 128 87.0391 127.789 87.4142 127.414C87.7893 127.039 88 126.53 88 126V82C88 81.4696 87.7893 80.9609 87.4142 80.5858C87.0391 80.2107 86.5304 80 86 80H42ZM42 184C41.4696 184 40.9609 184.211 40.5858 184.586C40.2107 184.961 40 185.47 40 186V198C40 198.53 40.2107 199.039 40.5858 199.414C40.9609 199.789 41.4696 200 42 200H198C198.53 200 199.039 199.789 199.414 199.414C199.789 199.039 200 198.53 200 198V186C200 185.47 199.789 184.961 199.414 184.586C199.039 184.211 198.53 184 198 184H42ZM40 162C40 161.47 40.2107 160.961 40.5858 160.586C40.9609 160.211 41.4696 160 42 160H198C198.53 160 199.039 160.211 199.414 160.586C199.789 160.961 200 161.47 200 162V174C200 174.53 199.789 175.039 199.414 175.414C199.039 175.789 198.53 176 198 176H42C41.4696 176 40.9609 175.789 40.5858 175.414C40.2107 175.039 40 174.53 40 174V162ZM42 136C41.4696 136 40.9609 136.211 40.5858 136.586C40.2107 136.961 40 137.47 40 138V150C40 150.53 40.2107 151.039 40.5858 151.414C40.9609 151.789 41.4696 152 42 152H198C198.53 152 199.039 151.789 199.414 151.414C199.789 151.039 200 150.53 200 150V138C200 137.47 199.789 136.961 199.414 136.586C199.039 136.211 198.53 136 198 136H42ZM96 82C96 81.4696 96.2107 80.9609 96.5858 80.5858C96.9609 80.2107 97.4696 80 98 80H198C198.53 80 199.039 80.2107 199.414 80.5858C199.789 80.9609 200 81.4696 200 82V98C200 98.5304 199.789 99.0391 199.414 99.4142C199.039 99.7893 198.53 100 198 100H98C97.4696 100 96.9609 99.7893 96.5858 99.4142C96.2107 99.0391 96 98.5304 96 98V82ZM98 108C97.4696 108 96.9609 108.211 96.5858 108.586C96.2107 108.961 96 109.47 96 110V126C96 126.53 96.2107 127.039 96.5858 127.414C96.9609 127.789 97.4696 128 98 128H198C198.53 128 199.039 127.789 199.414 127.414C199.789 127.039 200 126.53 200 126V110C200 109.47 199.789 108.961 199.414 108.586C199.039 108.211 198.53 108 198 108H98Z" fill="#FEEBEB"/>
</g>
<path fill-rule="evenodd" clip-rule="evenodd" d="M86 120H138.914C139.443 120 139.966 120.105 140.454 120.308C140.942 120.512 141.385 120.81 141.757 121.186L156.843 136.431C157.584 137.18 158 138.191 158 139.245V212C158 213.061 157.579 214.078 156.828 214.828C156.078 215.579 155.061 216 154 216H86C84.9391 216 83.9217 215.579 83.1716 214.828C82.4214 214.078 82 213.061 82 212V124C82 122.939 82.4214 121.922 83.1716 121.172C83.9217 120.421 84.9391 120 86 120Z" fill="white"/>
<path fill-rule="evenodd" clip-rule="evenodd" d="M86 120H138.914C139.443 120 139.966 120.105 140.454 120.308C140.942 120.512 141.385 120.81 141.757 121.186L156.843 136.431C157.584 137.18 158 138.191 158 139.245V164.684C159.11 164.803 160.218 164.938 161.323 165.088C161.387 165.111 161.71 165.146 162.11 165.189C162.902 165.274 164 165.392 164 165.518V172.133C164.014 172.297 162.441 172.449 161.687 172.523C161.49 172.542 161.349 172.555 161.306 172.563C159.638 172.872 159.377 173.697 159.377 173.954C159.084 175.866 158.623 177.749 158 179.58V212C158 213.061 157.579 214.078 156.828 214.828C156.078 215.579 155.061 216 154 216H86C84.9391 216 83.9217 215.579 83.1716 214.828C82.4214 214.078 82 213.061 82 212V179.426C81.3856 177.611 80.9306 175.745 80.64 173.851C80.623 173.679 80.449 172.786 78.712 172.459C78.5849 172.444 78.4575 172.431 78.33 172.421C77.575 172.352 76 172.207 76 172.03V165.518C76 165.354 77.58 165.202 78.342 165.128C78.542 165.109 78.686 165.095 78.729 165.088C79.817 164.94 80.9073 164.808 82 164.691V124C82 122.939 82.4214 121.922 83.1716 121.172C83.9217 120.421 84.9391 120 86 120ZM84 184.111V212C84 212.53 84.2107 213.039 84.5858 213.414C84.9609 213.789 85.4696 214 86 214H154C154.53 214 155.039 213.789 155.414 213.414C155.789 213.039 156 212.53 156 212V184.247C155.675 184.869 155.33 185.482 154.964 186.085C153.66 188.064 151.815 189.627 149.648 190.587C147.465 191.567 145.091 192.049 142.699 191.996C139.163 191.977 135.685 191.092 132.57 189.419C129.556 187.871 127.12 185.395 125.62 182.357C125.243 181.513 124.935 180.639 124.7 179.745C124.364 178.101 123.657 176.555 122.632 175.226C121.883 174.625 120.951 174.298 119.991 174.298C119.041 174.281 118.117 174.604 117.385 175.209C116.349 176.541 115.63 178.093 115.283 179.745C115.041 180.599 114.745 181.437 114.397 182.254C112.898 185.292 110.462 187.768 107.448 189.316C104.332 190.988 100.854 191.872 97.318 191.893C94.9257 191.946 92.5519 191.464 90.369 190.484C88.2023 189.524 86.3571 187.961 85.053 185.982C84.6824 185.37 84.3312 184.746 84 184.111ZM156 164.487C152.572 164.179 149.13 164.023 145.687 164.023C137.926 163.817 130.192 165.016 122.858 167.562H117.264C109.906 165.016 102.149 163.817 94.365 164.023C90.905 164.034 87.445 164.188 84 164.495V124C84 123.47 84.2107 122.961 84.5858 122.586C84.9609 122.211 85.4696 122 86 122H138V140H156V164.487ZM140 138H155.566C155.521 137.943 155.473 137.889 155.422 137.838L140.336 122.593C140.234 122.49 140.122 122.399 140 122.32V138ZM110 192C110 197.523 114.477 202 120 202C125.523 202 130 197.523 130 192H110ZM102 179C102 181.643 103.061 184 105 184C106.939 184 108 181.643 108 179C108 176.357 106.939 174 105 174C103.061 174 102 176.357 102 179ZM135 184C133.061 184 132 181.643 132 179C132 176.357 133.061 174 135 174C136.939 174 138 176.357 138 179C138 181.643 136.939 184 135 184ZM107.465 186.12C109.841 184.555 111.664 182.283 112.677 179.625H112.642C113.529 177.825 114.117 175.892 114.38 173.903C114.327 171.05 112.364 168.971 108.525 167.734C105.242 166.803 101.843 166.346 98.431 166.377H96.241C93.6405 166.304 91.0431 166.605 88.528 167.27C87.5465 167.621 86.6659 168.207 85.9632 168.977C85.2605 169.746 84.7571 170.677 84.497 171.686C83.697 175.209 85.279 180.278 86.877 183.542C88.093 186.017 90.787 188.972 96.693 188.972C100.458 188.885 104.15 187.908 107.465 186.12ZM143.307 188.972C149.214 188.972 151.907 186.017 153.123 183.542H153.088C154.739 180.278 156.267 175.209 155.468 171.721C155.208 170.712 154.705 169.782 154.002 169.012C153.3 168.242 152.419 167.656 151.438 167.305C148.925 166.63 146.325 166.329 143.724 166.411H141.535C138.123 166.382 134.723 166.839 131.44 167.769C127.601 169.006 125.586 171.085 125.586 173.937C125.856 175.914 126.443 177.834 127.323 179.625C128.336 182.283 130.159 184.555 132.535 186.12C135.85 187.908 139.542 188.885 143.307 188.972Z" fill="#1A1A1A"/>
<path d="M150 228H90C88.8954 228 88 228.895 88 230V254C88 255.105 88.8954 256 90 256H150C151.105 256 152 255.105 152 254V230C152 228.895 151.105 228 150 228Z" fill="#F23030"/>
<path d="M111.84 235.84C111.787 236.52 111.747 237.173 111.72 237.8C111.707 238.427 111.7 238.907 111.7 239.24C111.7 239.533 111.707 239.813 111.72 240.08C111.733 240.347 111.747 240.573 111.76 240.76H111.3C111.087 239.64 110.813 238.753 110.48 238.1C110.16 237.447 109.773 236.987 109.32 236.72C108.867 236.44 108.333 236.3 107.72 236.3H107.26V247.72C107.26 248.253 107.313 248.653 107.42 248.92C107.54 249.187 107.753 249.367 108.06 249.46C108.367 249.54 108.813 249.587 109.4 249.6V250C108.987 249.987 108.433 249.973 107.74 249.96C107.06 249.947 106.347 249.94 105.6 249.94C104.867 249.94 104.173 249.947 103.52 249.96C102.867 249.973 102.34 249.987 101.94 250V249.6C102.54 249.587 102.993 249.54 103.3 249.46C103.607 249.367 103.813 249.187 103.92 248.92C104.027 248.653 104.08 248.253 104.08 247.72V236.3H103.64C103.027 236.3 102.493 236.44 102.04 236.72C101.587 236.987 101.2 237.447 100.88 238.1C100.56 238.74 100.28 239.627 100.04 240.76H99.58C99.6067 240.573 99.62 240.347 99.62 240.08C99.6333 239.813 99.64 239.533 99.64 239.24C99.64 238.907 99.6267 238.427 99.6 237.8C99.5867 237.173 99.5533 236.52 99.5 235.84C100.113 235.853 100.78 235.867 101.5 235.88C102.233 235.893 102.967 235.9 103.7 235.9C104.433 235.9 105.093 235.9 105.68 235.9C106.28 235.9 106.94 235.9 107.66 235.9C108.393 235.9 109.127 235.893 109.86 235.88C110.593 235.867 111.253 235.853 111.84 235.84ZM118.339 235.82V236.24C117.739 236.24 117.353 236.3 117.179 236.42C117.019 236.527 117.033 236.72 117.219 237L125.139 248.58C125.406 248.953 125.619 249.207 125.779 249.34C125.939 249.473 126.153 249.553 126.419 249.58V250C126.153 249.987 125.766 249.973 125.259 249.96C124.753 249.933 124.226 249.92 123.679 249.92C123.079 249.92 122.466 249.933 121.839 249.96C121.226 249.973 120.766 249.987 120.459 250V249.58C121.073 249.58 121.466 249.54 121.639 249.46C121.826 249.367 121.826 249.18 121.639 248.9L113.699 237.24C113.446 236.853 113.239 236.593 113.079 236.46C112.919 236.327 112.699 236.253 112.419 236.24V235.82C112.699 235.833 113.106 235.853 113.639 235.88C114.186 235.893 114.733 235.9 115.279 235.9C115.879 235.9 116.453 235.893 116.999 235.88C117.559 235.853 118.006 235.833 118.339 235.82ZM118.519 242.88C118.519 242.88 118.533 242.927 118.559 243.02C118.586 243.1 118.613 243.187 118.639 243.28C118.666 243.36 118.679 243.4 118.679 243.4L116.679 246.14C116.146 246.86 115.846 247.473 115.779 247.98C115.713 248.473 115.826 248.86 116.119 249.14C116.426 249.407 116.873 249.56 117.459 249.6V250C117.273 249.987 117.033 249.98 116.739 249.98C116.459 249.967 116.159 249.96 115.839 249.96C115.533 249.947 115.239 249.94 114.959 249.94C114.693 249.94 114.473 249.94 114.299 249.94C113.926 249.94 113.579 249.947 113.259 249.96C112.939 249.96 112.673 249.973 112.459 250V249.6C112.926 249.44 113.399 249.16 113.879 248.76C114.359 248.347 114.853 247.813 115.359 247.16L118.519 242.88ZM125.519 235.84V236.24C125.079 236.36 124.639 236.613 124.199 237C123.773 237.387 123.373 237.833 122.999 238.34L119.759 242.66C119.759 242.66 119.733 242.573 119.679 242.4C119.639 242.227 119.619 242.14 119.619 242.14L121.679 239.36C122.186 238.72 122.486 238.173 122.579 237.72C122.686 237.267 122.613 236.913 122.359 236.66C122.106 236.407 121.706 236.267 121.159 236.24V235.84C121.413 235.853 121.693 235.867 121.999 235.88C122.306 235.88 122.606 235.887 122.899 235.9C123.206 235.9 123.466 235.9 123.679 235.9C124.066 235.9 124.419 235.893 124.739 235.88C125.059 235.867 125.319 235.853 125.519 235.84ZM139.028 235.84C138.974 236.52 138.934 237.173 138.908 237.8C138.894 238.427 138.888 238.907 138.888 239.24C138.888 239.533 138.894 239.813 138.908 240.08C138.921 240.347 138.934 240.573 138.948 240.76H138.488C138.274 239.64 138.001 238.753 137.668 238.1C137.348 237.447 136.961 236.987 136.508 236.72C136.054 236.44 135.521 236.3 134.908 236.3H134.448V247.72C134.448 248.253 134.501 248.653 134.608 248.92C134.728 249.187 134.941 249.367 135.248 249.46C135.554 249.54 136.001 249.587 136.588 249.6V250C136.174 249.987 135.621 249.973 134.928 249.96C134.248 249.947 133.534 249.94 132.788 249.94C132.054 249.94 131.361 249.947 130.708 249.96C130.054 249.973 129.528 249.987 129.127 250V249.6C129.728 249.587 130.181 249.54 130.488 249.46C130.794 249.367 131.001 249.187 131.108 248.92C131.214 248.653 131.268 248.253 131.268 247.72V236.3H130.828C130.214 236.3 129.681 236.44 129.228 236.72C128.774 236.987 128.388 237.447 128.068 238.1C127.748 238.74 127.468 239.627 127.228 240.76H126.768C126.794 240.573 126.808 240.347 126.808 240.08C126.821 239.813 126.828 239.533 126.828 239.24C126.828 238.907 126.814 238.427 126.788 237.8C126.774 237.173 126.741 236.52 126.688 235.84C127.301 235.853 127.968 235.867 128.688 235.88C129.421 235.893 130.154 235.9 130.888 235.9C131.621 235.9 132.281 235.9 132.868 235.9C133.468 235.9 134.128 235.9 134.848 235.9C135.581 235.9 136.314 235.893 137.048 235.88C137.781 235.867 138.441 235.853 139.028 235.84Z" fill="white"/>
</svg>
