<svg xmlns="http://www.w3.org/2000/svg" fill="none" viewBox="0 0 240 336"><g clip-path="url(#a)"><path fill="#FEEBEB" fill-rule="evenodd" d="M42 80a2 2 0 0 0-2 2v44a2 2 0 0 0 2 2h44a2 2 0 0 0 2-2V82a2 2 0 0 0-2-2zm0 104a2 2 0 0 0-2 2v12a2 2 0 0 0 2 2h156a2 2 0 0 0 2-2v-12a2 2 0 0 0-2-2zm-2-22a2 2 0 0 1 2-2h156a2 2 0 0 1 2 2v12a2 2 0 0 1-2 2H42a2 2 0 0 1-2-2zm2-26a2 2 0 0 0-2 2v12a2 2 0 0 0 2 2h156a2 2 0 0 0 2-2v-12a2 2 0 0 0-2-2zm54-54a2 2 0 0 1 2-2h100a2 2 0 0 1 2 2v16a2 2 0 0 1-2 2H98a2 2 0 0 1-2-2zm2 26a2 2 0 0 0-2 2v16a2 2 0 0 0 2 2h100a2 2 0 0 0 2-2v-16a2 2 0 0 0-2-2z" clip-rule="evenodd"></path></g><path fill="#fff" fill-rule="evenodd" d="M86 120h52.914a4 4 0 0 1 2.843 1.186l15.086 15.245a4 4 0 0 1 1.157 2.814V212a4 4 0 0 1-4 4H86a4 4 0 0 1-4-4v-88a4 4 0 0 1 4-4" clip-rule="evenodd"></path><path fill="#1A1A1A" fill-rule="evenodd" d="M86 120h52.914a4 4 0 0 1 2.843 1.186l15.086 15.245a4 4 0 0 1 1.157 2.814v25.439q1.665.179 3.323.404c.064.023.387.058.787.101.792.085 1.89.203 1.89.329v6.615c.014.164-1.559.316-2.313.39-.197.019-.338.032-.381.04-1.668.309-1.929 1.134-1.929 1.391A33 33 0 0 1 158 179.58V212a4 4 0 0 1-4 4H86a4 4 0 0 1-4-4v-32.574a33 33 0 0 1-1.36-5.575c-.017-.172-.191-1.065-1.928-1.392a11 11 0 0 0-.382-.038c-.755-.069-2.33-.214-2.33-.391v-6.512c0-.164 1.58-.316 2.342-.39.2-.019.344-.033.387-.04q1.632-.222 3.271-.397V124a4 4 0 0 1 4-4m-2 64.111V212a2 2 0 0 0 2 2h68a2 2 0 0 0 2-2v-27.753q-.487.933-1.036 1.838a12.36 12.36 0 0 1-5.316 4.502 16.1 16.1 0 0 1-6.949 1.409 21.66 21.66 0 0 1-10.129-2.577 15.8 15.8 0 0 1-6.95-7.062 17 17 0 0 1-.92-2.612 11 11 0 0 0-2.068-4.519 4.22 4.22 0 0 0-2.641-.928 3.98 3.98 0 0 0-2.606.911 11.1 11.1 0 0 0-2.102 4.536 21 21 0 0 1-.886 2.509 15.8 15.8 0 0 1-6.949 7.062 21.7 21.7 0 0 1-10.13 2.577 16.1 16.1 0 0 1-6.949-1.409 12.37 12.37 0 0 1-5.316-4.502A34 34 0 0 1 84 184.111m72-19.624c-3.428-.308-6.87-.464-10.313-.464a64.4 64.4 0 0 0-22.829 3.539h-5.594a64.8 64.8 0 0 0-22.899-3.539c-3.46.011-6.92.165-10.365.472V124a2 2 0 0 1 2-2h52v18h18zM140 138h15.566a2 2 0 0 0-.144-.162l-15.086-15.245a2 2 0 0 0-.336-.273zm-30 54c0 5.523 4.477 10 10 10s10-4.477 10-10zm-8-13c0 2.643 1.061 5 3 5s3-2.357 3-5-1.061-5-3-5-3 2.357-3 5m33 5c-1.939 0-3-2.357-3-5s1.061-5 3-5 3 2.357 3 5-1.061 5-3 5m-27.535 2.12a13.56 13.56 0 0 0 5.212-6.495h-.035a18.4 18.4 0 0 0 1.738-5.722c-.053-2.853-2.016-4.932-5.855-6.169a35.8 35.8 0 0 0-10.094-1.357h-2.19a27.2 27.2 0 0 0-7.713.893 6.38 6.38 0 0 0-4.031 4.416c-.8 3.523.782 8.592 2.38 11.856 1.216 2.475 3.91 5.43 9.816 5.43a23.85 23.85 0 0 0 10.772-2.852m35.842 2.852c5.907 0 8.6-2.955 9.816-5.43h-.035c1.651-3.264 3.179-8.333 2.38-11.821a6.38 6.38 0 0 0-4.03-4.416 26.5 26.5 0 0 0-7.714-.894h-2.189a35.9 35.9 0 0 0-10.095 1.358c-3.839 1.237-5.854 3.316-5.854 6.168a18.6 18.6 0 0 0 1.737 5.688 13.56 13.56 0 0 0 5.212 6.495 23.85 23.85 0 0 0 10.772 2.852" clip-rule="evenodd"></path><rect width="64" height="28" x="88" y="228" fill="#F23030" rx="2"></rect><path fill="#fff" fill-rule="evenodd" d="M103.949 248.52v-13.04h4.48q1.08 0 2.02.22a4.35 4.35 0 0 1 1.64.7q.7.48 1.1 1.3.42.801.42 1.98 0 1.14-.42 1.98a3.74 3.74 0 0 1-1.1 1.38 4.7 4.7 0 0 1-1.62.8 7.2 7.2 0 0 1-1.96.26h-1.62v4.42zm2.94-6.76h1.44q2.4 0 2.4-2.08 0-1.02-.64-1.44t-1.84-.42h-1.36zm8.72 6.76v-13.04h3.68q1.5 0 2.7.38t2.06 1.18q.861.78 1.32 2t.46 2.9q0 1.68-.46 2.92t-1.3 2.06a5.4 5.4 0 0 1-2.02 1.2q-1.16.4-2.6.4zm2.94-2.38h.56q.84 0 1.52-.22t1.16-.7q.48-.5.74-1.3.28-.8.28-1.98 0-1.16-.28-1.94-.26-.8-.74-1.26a2.7 2.7 0 0 0-1.16-.68 5.4 5.4 0 0 0-1.52-.2h-.56zm9.281-10.66v13.04h2.94v-5.06h4.52v-2.48h-4.52v-3.02h5.28v-2.48z" clip-rule="evenodd"></path><defs><clipPath id="a"><path fill="#fff" d="M40 80h160v120H40z"></path></clipPath></defs></svg>